# AiCar meshgen
# verts=888 faces=666
# map=berlin visual
v -11.566540 0.000000 3.479207
v -11.646540 0.000000 3.479207
v -11.566540 0.000000 -26.470793
v -11.646540 0.000000 -26.470793
v -11.566540 0.350000 3.479207
v -11.646540 0.350000 3.479207
v -11.566540 0.350000 -26.470793
v -11.646540 0.350000 -26.470793
v -11.606540 0.000000 -26.430793
v -11.606540 0.000000 -26.510793
v 18.343460 0.000000 -26.430793
v 18.343460 0.000000 -26.510793
v -11.606540 0.350000 -26.430793
v -11.606540 0.350000 -26.510793
v 18.343460 0.350000 -26.430793
v 18.343460 0.350000 -26.510793
v 18.303460 0.000000 -26.470793
v 18.383460 0.000000 -26.470793
v 18.303460 0.000000 3.479207
v 18.383460 0.000000 3.479207
v 18.303460 0.350000 -26.470793
v 18.383460 0.350000 -26.470793
v 18.303460 0.350000 3.479207
v 18.383460 0.350000 3.479207
v 18.343460 0.000000 3.439207
v 18.343460 0.000000 3.519207
v -11.606540 0.000000 3.439207
v -11.606540 0.000000 3.519207
v 18.343460 0.350000 3.439207
v 18.343460 0.350000 3.519207
v -11.606540 0.350000 3.439207
v -11.606540 0.350000 3.519207
v -2.264502 0.000000 1.768406
v -2.248578 0.000000 1.690008
v 0.935498 0.000000 2.418406
v 0.951422 0.000000 2.340008
v -2.264502 0.350000 1.768406
v -2.248578 0.350000 1.690008
v 0.935498 0.350000 2.418406
v 0.951422 0.350000 2.340008
v 0.941861 0.000000 2.419175
v 0.945059 0.000000 2.339239
v 3.441861 0.000000 2.519175
v 3.445059 0.000000 2.439239
v 0.941861 0.350000 2.419175
v 0.945059 0.350000 2.339239
v 3.441861 0.350000 2.519175
v 3.445059 0.350000 2.439239
v 3.452454 0.000000 2.518183
v 3.434466 0.000000 2.440231
v 4.102454 0.000000 2.368183
v 4.084466 0.000000 2.290231
v 3.452454 0.350000 2.518183
v 3.434466 0.350000 2.440231
v 4.102454 0.350000 2.368183
v 4.084466 0.350000 2.290231
v 4.110583 0.000000 2.365357
v 4.076337 0.000000 2.293057
v 6.010583 0.000000 1.465357
v 5.976337 0.000000 1.393057
v 4.110583 0.350000 2.365357
v 4.076337 0.350000 2.293057
v 6.010583 0.350000 1.465357
v 5.976337 0.350000 1.393057
v 6.016527 0.000000 1.461886
v 5.970393 0.000000 1.396528
v 7.716527 0.000000 0.261886
v 7.670393 0.000000 0.196528
v 6.016527 0.350000 1.461886
v 5.970393 0.350000 1.396528
v 7.716527 0.350000 0.261886
v 7.670393 0.350000 0.196528
v 7.721079 0.000000 0.258141
v 7.665841 0.000000 0.200273
v 9.921079 0.000000 -1.841859
v 9.865841 0.000000 -1.899727
v 7.721079 0.350000 0.258141
v 7.665841 0.350000 0.200273
v 9.921079 0.350000 -1.841859
v 9.865841 0.350000 -1.899727
v 9.925034 0.000000 -1.846235
v 9.861886 0.000000 -1.895351
v 11.325034 0.000000 -3.646235
v 11.261886 0.000000 -3.695351
v 9.925034 0.350000 -1.846235
v 9.861886 0.350000 -1.895351
v 11.325034 0.350000 -3.646235
v 11.261886 0.350000 -3.695351
v 11.329237 0.000000 -3.652904
v 11.257683 0.000000 -3.688682
v 12.379237 0.000000 -5.752904
v 12.307683 0.000000 -5.788682
v 11.329237 0.350000 -3.652904
v 11.257683 0.350000 -3.688682
v 12.379237 0.350000 -5.752904
v 12.307683 0.350000 -5.788682
v 12.382266 0.000000 -5.761092
v 12.304654 0.000000 -5.780494
v 12.732266 0.000000 -7.161092
v 12.654654 0.000000 -7.180494
v 12.382266 0.350000 -5.761092
v 12.304654 0.350000 -5.780494
v 12.732266 0.350000 -7.161092
v 12.654654 0.350000 -7.180494
v 12.733460 0.000000 -7.170793
v 12.653460 0.000000 -7.170793
v 12.733460 0.000000 -7.770793
v 12.653460 0.000000 -7.770793
v 12.733460 0.350000 -7.170793
v 12.653460 0.350000 -7.170793
v 12.733460 0.350000 -7.770793
v 12.653460 0.350000 -7.770793
v 12.732109 0.000000 -7.781100
v 12.654811 0.000000 -7.760486
v 12.532109 0.000000 -8.531100
v 12.454811 0.000000 -8.510486
v 12.732109 0.350000 -7.781100
v 12.654811 0.350000 -7.760486
v 12.532109 0.350000 -8.531100
v 12.454811 0.350000 -8.510486
v 12.527280 0.000000 -8.542153
v 12.459640 0.000000 -8.499433
v 11.927280 0.000000 -9.492153
v 11.859640 0.000000 -9.449433
v 12.527280 0.350000 -8.542153
v 12.459640 0.350000 -8.499433
v 11.927280 0.350000 -9.492153
v 11.859640 0.350000 -9.449433
v 11.920948 0.000000 -9.499852
v 11.865972 0.000000 -9.441734
v 10.070948 0.000000 -11.249852
v 10.015972 0.000000 -11.191734
v 11.920948 0.350000 -9.499852
v 11.865972 0.350000 -9.441734
v 10.070948 0.350000 -11.249852
v 10.015972 0.350000 -11.191734
v 10.074695 0.000000 -11.245781
v 10.012225 0.000000 -11.195805
v 9.274695 0.000000 -12.245781
v 9.212225 0.000000 -12.195805
v 10.074695 0.350000 -11.245781
v 10.012225 0.350000 -11.195805
v 9.274695 0.350000 -12.245781
v 9.212225 0.350000 -12.195805
v 9.278949 0.000000 -12.239247
v 9.207971 0.000000 -12.202339
v 8.628949 0.000000 -13.489247
v 8.557971 0.000000 -13.452339
v 9.278949 0.350000 -12.239247
v 9.207971 0.350000 -12.202339
v 8.628949 0.350000 -13.489247
v 8.557971 0.350000 -13.452339
v 8.631259 0.000000 -13.483877
v 8.555661 0.000000 -13.457709
v 8.181259 0.000000 -14.783877
v 8.105661 0.000000 -14.757709
v 8.631259 0.350000 -13.483877
v 8.555661 0.350000 -13.457709
v 8.181259 0.350000 -14.783877
v 8.105661 0.350000 -14.757709
v 8.182740 0.000000 -14.778347
v 8.104180 0.000000 -14.763239
v 7.932740 0.000000 -16.078347
v 7.854180 0.000000 -16.063239
v 8.182740 0.350000 -14.778347
v 8.104180 0.350000 -14.763239
v 7.932740 0.350000 -16.078347
v 7.854180 0.350000 -16.063239
v 7.933430 0.000000 -16.069256
v 7.853490 0.000000 -16.072330
v 7.983430 0.000000 -17.369256
v 7.903490 0.000000 -17.372330
v 7.933430 0.350000 -16.069256
v 7.853490 0.350000 -16.072330
v 7.983430 0.350000 -17.369256
v 7.903490 0.350000 -17.372330
v 7.982457 0.000000 -17.361892
v 7.904463 0.000000 -17.379694
v 9.032457 0.000000 -21.961892
v 8.954463 0.000000 -21.979694
v 7.982457 0.350000 -17.361892
v 7.904463 0.350000 -17.379694
v 9.032457 0.350000 -21.961892
v 8.954463 0.350000 -21.979694
v 9.033322 0.000000 -21.967471
v 8.953598 0.000000 -21.974115
v 9.133322 0.000000 -23.167471
v 9.053598 0.000000 -23.174115
v 9.033322 0.350000 -21.967471
v 8.953598 0.350000 -21.974115
v 9.133322 0.350000 -23.167471
v 9.053598 0.350000 -23.174115
v 9.132507 0.000000 -23.179470
v 9.054413 0.000000 -23.162116
v 8.932507 0.000000 -24.079470
v 8.854413 0.000000 -24.062116
v 9.132507 0.350000 -23.179470
v 9.054413 0.350000 -23.162116
v 8.932507 0.350000 -24.079470
v 8.854413 0.350000 -24.062116
v 8.928011 0.000000 -24.090948
v 8.858909 0.000000 -24.050638
v 8.578011 0.000000 -24.690948
v 8.508909 0.000000 -24.650638
v 8.928011 0.350000 -24.090948
v 8.858909 0.350000 -24.050638
v 8.578011 0.350000 -24.690948
v 8.508909 0.350000 -24.650638
v 8.571744 0.000000 -24.699077
v 8.515176 0.000000 -24.642509
v 8.071744 0.000000 -25.199077
v 8.015176 0.000000 -25.142509
v 8.571744 0.350000 -24.699077
v 8.515176 0.350000 -24.642509
v 8.071744 0.350000 -25.199077
v 8.015176 0.350000 -25.142509
v 8.064318 0.000000 -25.204924
v 8.022602 0.000000 -25.136662
v 7.164318 0.000000 -25.754924
v 7.122602 0.000000 -25.686662
v 8.064318 0.350000 -25.204924
v 8.022602 0.350000 -25.136662
v 7.164318 0.350000 -25.754924
v 7.122602 0.350000 -25.686662
v 7.151305 0.000000 -25.760016
v 7.135615 0.000000 -25.681570
v 5.651305 0.000000 -26.060016
v 5.635615 0.000000 -25.981570
v 7.151305 0.350000 -25.760016
v 7.135615 0.350000 -25.681570
v 5.651305 0.350000 -26.060016
v 5.635615 0.350000 -25.981570
v 5.640676 0.000000 -26.060696
v 5.646244 0.000000 -25.980890
v 3.490676 0.000000 -25.910696
v 3.496244 0.000000 -25.830890
v 5.640676 0.350000 -26.060696
v 5.646244 0.350000 -25.980890
v 3.490676 0.350000 -25.910696
v 3.496244 0.350000 -25.830890
v 3.478962 0.000000 -25.908073
v 3.507958 0.000000 -25.833513
v 2.578962 0.000000 -25.558073
v 2.607958 0.000000 -25.483513
v 3.478962 0.350000 -25.908073
v 3.507958 0.350000 -25.833513
v 2.578962 0.350000 -25.558073
v 2.607958 0.350000 -25.483513
v 2.566045 0.000000 -25.549921
v 2.620875 0.000000 -25.491665
v 1.716045 0.000000 -24.749921
v 1.770875 0.000000 -24.691665
v 2.566045 0.350000 -25.549921
v 2.620875 0.350000 -25.491665
v 1.716045 0.350000 -24.749921
v 1.770875 0.350000 -24.691665
v 1.707310 0.000000 -24.737916
v 1.779610 0.000000 -24.703670
v 1.257310 0.000000 -23.787916
v 1.329610 0.000000 -23.753670
v 1.707310 0.350000 -24.737916
v 1.779610 0.350000 -24.703670
v 1.257310 0.350000 -23.787916
v 1.329610 0.350000 -23.753670
v 1.254166 0.000000 -23.778277
v 1.332754 0.000000 -23.763309
v 1.054166 0.000000 -22.728277
v 1.132754 0.000000 -22.713309
v 1.254166 0.350000 -23.778277
v 1.332754 0.350000 -23.763309
v 1.054166 0.350000 -22.728277
v 1.132754 0.350000 -22.713309
v 1.053493 0.000000 -22.719162
v 1.133427 0.000000 -22.722424
v 1.153493 0.000000 -20.269162
v 1.233427 0.000000 -20.272424
v 1.053493 0.350000 -22.719162
v 1.133427 0.350000 -22.722424
v 1.153493 0.350000 -20.269162
v 1.233427 0.350000 -20.272424
v 1.154313 0.000000 -20.279009
v 1.232607 0.000000 -20.262577
v 0.304313 0.000000 -16.229009
v 0.382607 0.000000 -16.212577
v 1.154313 0.350000 -20.279009
v 1.232607 0.350000 -20.262577
v 0.304313 0.350000 -16.229009
v 0.382607 0.350000 -16.212577
v 0.303487 0.000000 -16.222273
v 0.383433 0.000000 -16.219313
v 0.253487 0.000000 -14.872273
v 0.333433 0.000000 -14.869313
v 0.303487 0.350000 -16.222273
v 0.383433 0.350000 -16.219313
v 0.253487 0.350000 -14.872273
v 0.333433 0.350000 -14.869313
v 0.254105 0.000000 -14.863638
v 0.332815 0.000000 -14.877948
v 0.354105 0.000000 -14.313638
v 0.432815 0.000000 -14.327948
v 0.254105 0.350000 -14.863638
v 0.332815 0.350000 -14.877948
v 0.354105 0.350000 -14.313638
v 0.432815 0.350000 -14.327948
v 0.389161 0.000000 -14.360561
v 0.397759 0.000000 -14.281025
v -1.460839 0.000000 -14.160561
v -1.452241 0.000000 -14.081025
v 0.389161 0.350000 -14.360561
v 0.397759 0.350000 -14.281025
v -1.460839 0.350000 -14.160561
v -1.452241 0.350000 -14.081025
v -1.477398 0.000000 -14.154924
v -1.435682 0.000000 -14.086662
v -2.377398 0.000000 -13.604924
v -2.335682 0.000000 -13.536662
v -1.477398 0.350000 -14.154924
v -1.435682 0.350000 -14.086662
v -2.377398 0.350000 -13.604924
v -2.335682 0.350000 -13.536662
v -2.391834 0.000000 -13.589617
v -2.321246 0.000000 -13.551969
v -3.191834 0.000000 -12.089617
v -3.121246 0.000000 -12.051969
v -2.391834 0.350000 -13.589617
v -2.321246 0.350000 -13.551969
v -3.191834 0.350000 -12.089617
v -3.121246 0.350000 -12.051969
v -3.194674 0.000000 -12.082869
v -3.118406 0.000000 -12.058717
v -4.144674 0.000000 -9.082869
v -4.068406 0.000000 -9.058717
v -3.194674 0.350000 -12.082869
v -3.118406 0.350000 -12.058717
v -4.144674 0.350000 -9.082869
v -4.068406 0.350000 -9.058717
v -4.146485 0.000000 -9.072895
v -4.066595 0.000000 -9.068691
v -4.196485 0.000000 -8.122895
v -4.116595 0.000000 -8.118691
v -4.146485 0.350000 -9.072895
v -4.066595 0.350000 -9.068691
v -4.196485 0.350000 -8.122895
v -4.116595 0.350000 -8.118691
v -4.194487 0.000000 -8.108144
v -4.118593 0.000000 -8.133442
v -3.994487 0.000000 -7.508144
v -3.918593 0.000000 -7.533442
v -4.194487 0.350000 -8.108144
v -4.118593 0.350000 -8.133442
v -3.994487 0.350000 -7.508144
v -3.918593 0.350000 -7.533442
v -3.983005 0.000000 -7.490799
v -3.930075 0.000000 -7.550787
v -3.133005 0.000000 -6.740799
v -3.080075 0.000000 -6.800787
v -3.983005 0.350000 -7.490799
v -3.930075 0.350000 -7.550787
v -3.133005 0.350000 -6.740799
v -3.080075 0.350000 -6.800787
v -3.127299 0.000000 -6.736601
v -3.085781 0.000000 -6.804985
v -1.727299 0.000000 -5.886601
v -1.685781 0.000000 -5.954985
v -3.127299 0.350000 -6.736601
v -3.085781 0.350000 -6.804985
v -1.727299 0.350000 -5.886601
v -1.685781 0.350000 -5.954985
v -1.743679 0.000000 -5.905937
v -1.669401 0.000000 -5.935649
v -1.643679 0.000000 -5.655937
v -1.569401 0.000000 -5.685649
v -1.743679 0.350000 -5.905937
v -1.669401 0.350000 -5.935649
v -1.643679 0.350000 -5.655937
v -1.569401 0.350000 -5.685649
v -1.586858 0.000000 -5.705616
v -1.626222 0.000000 -5.635970
v -3.886858 0.000000 -7.005616
v -3.926222 0.000000 -6.935970
v -1.586858 0.350000 -5.705616
v -1.626222 0.350000 -5.635970
v -3.886858 0.350000 -7.005616
v -3.926222 0.350000 -6.935970
v -3.899385 0.000000 -7.010148
v -3.913695 0.000000 -6.931438
v -4.999385 0.000000 -7.210148
v -5.013695 0.000000 -7.131438
v -3.899385 0.350000 -7.010148
v -3.913695 0.350000 -6.931438
v -4.999385 0.350000 -7.210148
v -5.013695 0.350000 -7.131438
v -5.032446 0.000000 -7.201271
v -4.980634 0.000000 -7.140315
v -6.032446 0.000000 -6.351271
v -5.980634 0.000000 -6.290315
v -5.032446 0.350000 -7.201271
v -4.980634 0.350000 -7.140315
v -6.032446 0.350000 -6.351271
v -5.980634 0.350000 -6.290315
v -6.041612 0.000000 -6.340026
v -5.971468 0.000000 -6.301560
v -6.891612 0.000000 -4.790026
v -6.821468 0.000000 -4.751560
v -6.041612 0.350000 -6.340026
v -5.971468 0.350000 -6.301560
v -6.891612 0.350000 -4.790026
v -6.821468 0.350000 -4.751560
v -6.895223 0.000000 -4.780973
v -6.817857 0.000000 -4.760613
v -7.145223 0.000000 -3.830973
v -7.067857 0.000000 -3.810613
v -6.895223 0.350000 -4.780973
v -6.817857 0.350000 -4.760613
v -7.145223 0.350000 -3.830973
v -7.067857 0.350000 -3.810613
v -7.146540 0.000000 -3.820793
v -7.066540 0.000000 -3.820793
v -7.146540 0.000000 -2.620793
v -7.066540 0.000000 -2.620793
v -7.146540 0.350000 -3.820793
v -7.066540 0.350000 -3.820793
v -7.146540 0.350000 -2.620793
v -7.066540 0.350000 -2.620793
v -7.145189 0.000000 -2.610486
v -7.067891 0.000000 -2.631100
v -6.945189 0.000000 -1.860486
v -6.867891 0.000000 -1.881100
v -7.145189 0.350000 -2.610486
v -7.067891 0.350000 -2.631100
v -6.945189 0.350000 -1.860486
v -6.867891 0.350000 -1.881100
v -6.941403 0.000000 -1.851183
v -6.871677 0.000000 -1.890403
v -6.491403 0.000000 -1.051183
v -6.421677 0.000000 -1.090403
v -6.941403 0.350000 -1.851183
v -6.871677 0.350000 -1.890403
v -6.491403 0.350000 -1.051183
v -6.421677 0.350000 -1.090403
v -6.484824 0.000000 -1.042509
v -6.428256 0.000000 -1.099077
v -4.934824 0.000000 0.507491
v -4.878256 0.000000 0.450923
v -6.484824 0.350000 -1.042509
v -6.428256 0.350000 -1.099077
v -4.934824 0.350000 0.507491
v -4.878256 0.350000 0.450923
v -4.926261 0.000000 0.514008
v -4.886819 0.000000 0.444406
v -3.426261 0.000000 1.364008
v -3.386819 0.000000 1.294406
v -4.926261 0.350000 0.514008
v -4.886819 0.350000 0.444406
v -3.426261 0.350000 1.364008
v -3.386819 0.350000 1.294406
v -3.419681 0.000000 1.366987
v -3.393399 0.000000 1.291427
v -2.269681 0.000000 1.766987
v -2.243399 0.000000 1.691427
v -3.419681 0.350000 1.366987
v -3.393399 0.350000 1.291427
v -2.269681 0.350000 1.766987
v -2.243399 0.350000 1.691427
v 0.354747 0.000000 -2.009168
v 0.332173 0.000000 -1.932418
v -1.345253 0.000000 -2.509168
v -1.367827 0.000000 -2.432418
v 0.354747 0.350000 -2.009168
v 0.332173 0.350000 -1.932418
v -1.345253 0.350000 -2.509168
v -1.367827 0.350000 -2.432418
v -1.341485 0.000000 -2.507852
v -1.371595 0.000000 -2.433734
v -2.941485 0.000000 -3.157852
v -2.971595 0.000000 -3.083734
v -1.341485 0.350000 -2.507852
v -1.371595 0.350000 -2.433734
v -2.941485 0.350000 -3.157852
v -2.971595 0.350000 -3.083734
v -2.938037 0.000000 -3.156256
v -2.975043 0.000000 -3.085330
v -4.088037 0.000000 -3.756256
v -4.125043 0.000000 -3.685330
v -2.938037 0.350000 -3.156256
v -2.975043 0.350000 -3.085330
v -4.088037 0.350000 -3.756256
v -4.125043 0.350000 -3.685330
v -4.068593 0.000000 -3.733442
v -4.144487 0.000000 -3.708144
v -4.168593 0.000000 -4.033442
v -4.244487 0.000000 -4.008144
v -4.068593 0.350000 -3.733442
v -4.144487 0.350000 -3.708144
v -4.168593 0.350000 -4.033442
v -4.244487 0.350000 -4.008144
v -4.200883 0.000000 -3.981195
v -4.212197 0.000000 -4.060391
v -3.500883 0.000000 -4.081195
v -3.512197 0.000000 -4.160391
v -4.200883 0.350000 -3.981195
v -4.212197 0.350000 -4.060391
v -3.500883 0.350000 -4.081195
v -3.512197 0.350000 -4.160391
v -3.518585 0.000000 -4.082650
v -3.494495 0.000000 -4.158936
v -2.568585 0.000000 -3.782650
v -2.544495 0.000000 -3.858936
v -3.518585 0.350000 -4.082650
v -3.494495 0.350000 -4.158936
v -2.568585 0.350000 -3.782650
v -2.544495 0.350000 -3.858936
v -2.574429 0.000000 -3.785016
v -2.538651 0.000000 -3.856570
v -2.074429 0.000000 -3.535016
v -2.038651 0.000000 -3.606570
v -2.574429 0.350000 -3.785016
v -2.538651 0.350000 -3.856570
v -2.074429 0.350000 -3.535016
v -2.038651 0.350000 -3.606570
v -2.082015 0.000000 -3.539955
v -2.031065 0.000000 -3.601631
v -0.932015 0.000000 -2.589955
v -0.881065 0.000000 -2.651631
v -2.082015 0.350000 -3.539955
v -2.031065 0.350000 -3.601631
v -0.932015 0.350000 -2.589955
v -0.881065 0.350000 -2.651631
v -0.906540 0.000000 -2.580793
v -0.906540 0.000000 -2.660793
v -0.306540 0.000000 -2.580793
v -0.306540 0.000000 -2.660793
v -0.906540 0.350000 -2.580793
v -0.906540 0.350000 -2.660793
v -0.306540 0.350000 -2.580793
v -0.306540 0.350000 -2.660793
v -0.293087 0.000000 -2.583123
v -0.319993 0.000000 -2.658463
v 0.406913 0.000000 -2.833123
v 0.380007 0.000000 -2.908463
v -0.293087 0.350000 -2.583123
v -0.319993 0.350000 -2.658463
v 0.406913 0.350000 -2.833123
v 0.380007 0.350000 -2.908463
v 0.416987 0.000000 -2.838444
v 0.369933 0.000000 -2.903142
v 0.966987 0.000000 -3.238444
v 0.919933 0.000000 -3.303142
v 0.416987 0.350000 -2.838444
v 0.369933 0.350000 -2.903142
v 0.966987 0.350000 -3.238444
v 0.919933 0.350000 -3.303142
v 0.974189 0.000000 -3.245186
v 0.912731 0.000000 -3.296400
v 1.474189 0.000000 -3.845186
v 1.412731 0.000000 -3.896400
v 0.974189 0.350000 -3.245186
v 0.912731 0.350000 -3.296400
v 1.474189 0.350000 -3.845186
v 1.412731 0.350000 -3.896400
v 1.479875 0.000000 -3.854241
v 1.407045 0.000000 -3.887345
v 1.729875 0.000000 -4.404241
v 1.657045 0.000000 -4.437345
v 1.479875 0.350000 -3.854241
v 1.407045 0.350000 -3.887345
v 1.729875 0.350000 -4.404241
v 1.657045 0.350000 -4.437345
v 1.733460 0.000000 -4.420793
v 1.653460 0.000000 -4.420793
v 1.733460 0.000000 -5.120793
v 1.653460 0.000000 -5.120793
v 1.733460 0.350000 -4.420793
v 1.653460 0.350000 -4.420793
v 1.733460 0.350000 -5.120793
v 1.653460 0.350000 -5.120793
v 1.729875 0.000000 -5.137345
v 1.657045 0.000000 -5.104241
v 1.479875 0.000000 -5.687345
v 1.407045 0.000000 -5.654241
v 1.729875 0.350000 -5.137345
v 1.657045 0.350000 -5.104241
v 1.479875 0.350000 -5.687345
v 1.407045 0.350000 -5.654241
v 1.473298 0.000000 -5.697434
v 1.413622 0.000000 -5.644152
v 0.223298 0.000000 -7.097434
v 0.163622 0.000000 -7.044152
v 1.473298 0.350000 -5.697434
v 1.413622 0.350000 -5.644152
v 0.223298 0.350000 -7.097434
v 0.163622 0.350000 -7.044152
v 0.229237 0.000000 -7.088682
v 0.157683 0.000000 -7.052904
v -0.020763 0.000000 -7.588682
v -0.092317 0.000000 -7.552904
v 0.229237 0.350000 -7.088682
v 0.157683 0.350000 -7.052904
v -0.020763 0.350000 -7.588682
v -0.092317 0.350000 -7.552904
v -0.017949 0.000000 -7.581318
v -0.095131 0.000000 -7.560268
v -0.167949 0.000000 -8.131318
v -0.245131 0.000000 -8.110268
v -0.017949 0.350000 -7.581318
v -0.095131 0.350000 -7.560268
v -0.167949 0.350000 -8.131318
v -0.245131 0.350000 -8.110268
v -0.166540 0.000000 -8.120793
v -0.246540 0.000000 -8.120793
v -0.166540 0.000000 -8.970793
v -0.246540 0.000000 -8.970793
v -0.166540 0.350000 -8.120793
v -0.246540 0.350000 -8.120793
v -0.166540 0.350000 -8.970793
v -0.246540 0.350000 -8.970793
v -0.168309 0.000000 -8.959030
v -0.244771 0.000000 -8.982556
v 0.231691 0.000000 -10.259030
v 0.155229 0.000000 -10.282556
v -0.168309 0.350000 -8.959030
v -0.244771 0.350000 -8.982556
v 0.231691 0.350000 -10.259030
v 0.155229 0.350000 -10.282556
v 0.229653 0.000000 -10.253761
v 0.157267 0.000000 -10.287825
v 0.629653 0.000000 -11.103761
v 0.557267 0.000000 -11.137825
v 0.229653 0.350000 -10.253761
v 0.157267 0.350000 -10.287825
v 0.629653 0.350000 -11.103761
v 0.557267 0.350000 -11.137825
v 0.614040 0.000000 -11.086493
v 0.572880 0.000000 -11.155093
v 1.614040 0.000000 -11.686493
v 1.572880 0.000000 -11.755093
v 0.614040 0.350000 -11.086493
v 0.572880 0.350000 -11.155093
v 1.614040 0.350000 -11.686493
v 1.572880 0.350000 -11.755093
v 1.603161 0.000000 -11.681987
v 1.583759 0.000000 -11.759599
v 2.403161 0.000000 -11.881987
v 2.383759 0.000000 -11.959599
v 1.603161 0.350000 -11.681987
v 1.583759 0.350000 -11.759599
v 2.403161 0.350000 -11.881987
v 2.383759 0.350000 -11.959599
v 2.421744 0.000000 -11.892509
v 2.365176 0.000000 -11.949077
v 2.921744 0.000000 -12.392509
v 2.865176 0.000000 -12.449077
v 2.421744 0.350000 -11.892509
v 2.365176 0.350000 -11.949077
v 2.921744 0.350000 -12.392509
v 2.865176 0.350000 -12.449077
v 2.928576 0.000000 -12.401639
v 2.858344 0.000000 -12.439947
v 3.228576 0.000000 -12.951639
v 3.158344 0.000000 -12.989947
v 2.928576 0.350000 -12.401639
v 2.858344 0.350000 -12.439947
v 3.228576 0.350000 -12.951639
v 3.158344 0.350000 -12.989947
v 3.232740 0.000000 -12.963239
v 3.154180 0.000000 -12.978347
v 3.482740 0.000000 -14.263239
v 3.404180 0.000000 -14.278347
v 3.232740 0.350000 -12.963239
v 3.154180 0.350000 -12.978347
v 3.482740 0.350000 -14.263239
v 3.404180 0.350000 -14.278347
v 3.483460 0.000000 -14.270793
v 3.403460 0.000000 -14.270793
v 3.483460 0.000000 -15.420793
v 3.403460 0.000000 -15.420793
v 3.483460 0.350000 -14.270793
v 3.403460 0.350000 -14.270793
v 3.483460 0.350000 -15.420793
v 3.403460 0.350000 -15.420793
v 3.482683 0.000000 -15.428638
v 3.404237 0.000000 -15.412948
v 3.332683 0.000000 -16.178638
v 3.254237 0.000000 -16.162948
v 3.482683 0.350000 -15.428638
v 3.404237 0.350000 -15.412948
v 3.332683 0.350000 -16.178638
v 3.254237 0.350000 -16.162948
v 3.333460 0.000000 -16.170793
v 3.253460 0.000000 -16.170793
v 3.333460 0.000000 -17.870793
v 3.253460 0.000000 -17.870793
v 3.333460 0.350000 -16.170793
v 3.253460 0.350000 -16.170793
v 3.333460 0.350000 -17.870793
v 3.253460 0.350000 -17.870793
v 3.333124 0.000000 -17.865619
v 3.253796 0.000000 -17.875967
v 3.483124 0.000000 -19.015619
v 3.403796 0.000000 -19.025967
v 3.333124 0.350000 -17.865619
v 3.253796 0.350000 -17.875967
v 3.483124 0.350000 -19.015619
v 3.403796 0.350000 -19.025967
v 3.481501 0.000000 -19.008430
v 3.405419 0.000000 -19.033156
v 4.131501 0.000000 -21.008430
v 4.055419 0.000000 -21.033156
v 3.481501 0.350000 -19.008430
v 3.405419 0.350000 -19.033156
v 4.131501 0.350000 -21.008430
v 4.055419 0.350000 -21.033156
v 4.128576 0.000000 -21.001639
v 4.058344 0.000000 -21.039947
v 4.728576 0.000000 -22.101639
v 4.658344 0.000000 -22.139947
v 4.128576 0.350000 -21.001639
v 4.058344 0.350000 -21.039947
v 4.728576 0.350000 -22.101639
v 4.658344 0.350000 -22.139947
v 4.708316 0.000000 -22.083654
v 4.678604 0.000000 -22.157932
v 4.958316 0.000000 -22.183654
v 4.928604 0.000000 -22.257932
v 4.708316 0.350000 -22.083654
v 4.678604 0.350000 -22.157932
v 4.958316 0.350000 -22.183654
v 4.928604 0.350000 -22.257932
v 4.903862 0.000000 -22.215136
v 4.983058 0.000000 -22.226450
v 4.953862 0.000000 -21.865136
v 5.033058 0.000000 -21.876450
v 4.903862 0.350000 -22.215136
v 4.983058 0.350000 -22.226450
v 4.953862 0.350000 -21.865136
v 5.033058 0.350000 -21.876450
v 4.954887 0.000000 -21.881382
v 5.032033 0.000000 -21.860204
v 4.254887 0.000000 -19.331382
v 4.332033 0.000000 -19.310204
v 4.954887 0.350000 -21.881382
v 5.032033 0.350000 -21.860204
v 4.254887 0.350000 -19.331382
v 4.332033 0.350000 -19.310204
v 4.253988 0.000000 -19.327273
v 4.332932 0.000000 -19.314313
v 3.703988 0.000000 -15.977273
v 3.782932 0.000000 -15.964313
v 4.253988 0.350000 -19.327273
v 4.332932 0.350000 -19.314313
v 3.703988 0.350000 -15.977273
v 3.782932 0.350000 -15.964313
v 3.703490 0.000000 -15.972330
v 3.783430 0.000000 -15.969256
v 3.653490 0.000000 -14.672330
v 3.733430 0.000000 -14.669256
v 3.703490 0.350000 -15.972330
v 3.783430 0.350000 -15.969256
v 3.653490 0.350000 -14.672330
v 3.733430 0.350000 -14.669256
v 3.653587 0.000000 -14.667603
v 3.733333 0.000000 -14.673983
v 3.753587 0.000000 -13.417603
v 3.833333 0.000000 -13.423983
v 3.653587 0.350000 -14.667603
v 3.733333 0.350000 -14.673983
v 3.753587 0.350000 -13.417603
v 3.833333 0.350000 -13.423983
v 3.753587 0.000000 -13.423983
v 3.833333 0.000000 -13.417603
v 3.653587 0.000000 -12.173983
v 3.733333 0.000000 -12.167603
v 3.753587 0.350000 -13.423983
v 3.833333 0.350000 -13.417603
v 3.653587 0.350000 -12.173983
v 3.733333 0.350000 -12.167603
v 3.656537 0.000000 -12.155408
v 3.730383 0.000000 -12.186178
v 3.906537 0.000000 -11.555408
v 3.980383 0.000000 -11.586178
v 3.656537 0.350000 -12.155408
v 3.730383 0.350000 -12.186178
v 3.906537 0.350000 -11.555408
v 3.980383 0.350000 -11.586178
v 3.916329 0.000000 -11.541401
v 3.970591 0.000000 -11.600185
v 4.566329 0.000000 -10.941401
v 4.620591 0.000000 -11.000185
v 3.916329 0.350000 -11.541401
v 3.970591 0.350000 -11.600185
v 4.566329 0.350000 -10.941401
v 4.620591 0.350000 -11.000185
v 4.557213 0.000000 -10.953878
v 4.629707 0.000000 -10.987708
v 5.257213 0.000000 -9.453878
v 5.329707 0.000000 -9.487708
v 4.557213 0.350000 -10.953878
v 4.629707 0.350000 -10.987708
v 5.257213 0.350000 -9.453878
v 5.329707 0.350000 -9.487708
v 5.261851 0.000000 -9.446280
v 5.325069 0.000000 -9.495306
v 7.161851 0.000000 -6.996280
v 7.225069 0.000000 -7.045306
v 5.261851 0.350000 -9.446280
v 5.325069 0.350000 -9.495306
v 7.161851 0.350000 -6.996280
v 7.225069 0.350000 -7.045306
v 7.156694 0.000000 -7.005036
v 7.230226 0.000000 -7.036550
v 7.306694 0.000000 -6.655036
v 7.380226 0.000000 -6.686550
v 7.156694 0.350000 -7.005036
v 7.230226 0.350000 -7.036550
v 7.306694 0.350000 -6.655036
v 7.380226 0.350000 -6.686550
v 7.303460 0.000000 -6.670793
v 7.383460 0.000000 -6.670793
v 7.303460 0.000000 -6.120793
v 7.383460 0.000000 -6.120793
v 7.303460 0.350000 -6.670793
v 7.383460 0.350000 -6.670793
v 7.303460 0.350000 -6.120793
v 7.383460 0.350000 -6.120793
v 7.306908 0.000000 -6.137039
v 7.380012 0.000000 -6.104547
v 7.106908 0.000000 -5.687039
v 7.180012 0.000000 -5.654547
v 7.306908 0.350000 -6.137039
v 7.380012 0.350000 -6.104547
v 7.106908 0.350000 -5.687039
v 7.180012 0.350000 -5.654547
v 7.112644 0.000000 -5.696296
v 7.174276 0.000000 -5.645290
v 5.912644 0.000000 -4.246296
v 5.974276 0.000000 -4.195290
v 7.112644 0.350000 -5.696296
v 7.174276 0.350000 -5.645290
v 5.912644 0.350000 -4.246296
v 5.974276 0.350000 -4.195290
v 5.915176 0.000000 -4.249077
v 5.971744 0.000000 -4.192509
v 5.015176 0.000000 -3.349077
v 5.071744 0.000000 -3.292509
v 5.915176 0.350000 -4.249077
v 5.971744 0.350000 -4.192509
v 5.015176 0.350000 -3.349077
v 5.071744 0.350000 -3.292509
v 5.019732 0.000000 -3.352995
v 5.067188 0.000000 -3.288591
v 4.069732 0.000000 -2.652995
v 4.117188 0.000000 -2.588591
v 5.019732 0.350000 -3.352995
v 5.067188 0.350000 -3.288591
v 4.069732 0.350000 -2.652995
v 4.117188 0.350000 -2.588591
v 4.074496 0.000000 -2.656012
v 4.112424 0.000000 -2.585574
v 3.424496 0.000000 -2.306012
v 3.462424 0.000000 -2.235574
v 4.074496 0.350000 -2.656012
v 4.112424 0.350000 -2.585574
v 3.424496 0.350000 -2.306012
v 3.462424 0.350000 -2.235574
v 3.431415 0.000000 -2.308936
v 3.455505 0.000000 -2.232650
v 2.481415 0.000000 -2.008936
v 2.505505 0.000000 -1.932650
v 3.431415 0.350000 -2.308936
v 3.455505 0.350000 -2.232650
v 2.481415 0.350000 -2.008936
v 2.505505 0.350000 -1.932650
v 2.487803 0.000000 -2.010391
v 2.499117 0.000000 -1.931195
v 1.787803 0.000000 -1.910391
v 1.799117 0.000000 -1.831195
v 2.487803 0.350000 -2.010391
v 2.499117 0.350000 -1.931195
v 1.787803 0.350000 -1.910391
v 1.799117 0.350000 -1.831195
v 1.796212 0.000000 -1.910698
v 1.790708 0.000000 -1.830888
v 0.346212 0.000000 -2.010698
v 0.340708 0.000000 -1.930888
v 1.796212 0.350000 -1.910698
v 1.790708 0.350000 -1.830888
v 0.346212 0.350000 -2.010698
v 0.340708 0.350000 -1.930888
f 1 3 7
f 1 7 5
f 2 6 8
f 2 8 4
f 5 7 8
f 5 8 6
f 9 11 15
f 9 15 13
f 10 14 16
f 10 16 12
f 13 15 16
f 13 16 14
f 17 19 23
f 17 23 21
f 18 22 24
f 18 24 20
f 21 23 24
f 21 24 22
f 25 27 31
f 25 31 29
f 26 30 32
f 26 32 28
f 29 31 32
f 29 32 30
f 33 35 39
f 33 39 37
f 34 38 40
f 34 40 36
f 37 39 40
f 37 40 38
f 41 43 47
f 41 47 45
f 42 46 48
f 42 48 44
f 45 47 48
f 45 48 46
f 49 51 55
f 49 55 53
f 50 54 56
f 50 56 52
f 53 55 56
f 53 56 54
f 57 59 63
f 57 63 61
f 58 62 64
f 58 64 60
f 61 63 64
f 61 64 62
f 65 67 71
f 65 71 69
f 66 70 72
f 66 72 68
f 69 71 72
f 69 72 70
f 73 75 79
f 73 79 77
f 74 78 80
f 74 80 76
f 77 79 80
f 77 80 78
f 81 83 87
f 81 87 85
f 82 86 88
f 82 88 84
f 85 87 88
f 85 88 86
f 89 91 95
f 89 95 93
f 90 94 96
f 90 96 92
f 93 95 96
f 93 96 94
f 97 99 103
f 97 103 101
f 98 102 104
f 98 104 100
f 101 103 104
f 101 104 102
f 105 107 111
f 105 111 109
f 106 110 112
f 106 112 108
f 109 111 112
f 109 112 110
f 113 115 119
f 113 119 117
f 114 118 120
f 114 120 116
f 117 119 120
f 117 120 118
f 121 123 127
f 121 127 125
f 122 126 128
f 122 128 124
f 125 127 128
f 125 128 126
f 129 131 135
f 129 135 133
f 130 134 136
f 130 136 132
f 133 135 136
f 133 136 134
f 137 139 143
f 137 143 141
f 138 142 144
f 138 144 140
f 141 143 144
f 141 144 142
f 145 147 151
f 145 151 149
f 146 150 152
f 146 152 148
f 149 151 152
f 149 152 150
f 153 155 159
f 153 159 157
f 154 158 160
f 154 160 156
f 157 159 160
f 157 160 158
f 161 163 167
f 161 167 165
f 162 166 168
f 162 168 164
f 165 167 168
f 165 168 166
f 169 171 175
f 169 175 173
f 170 174 176
f 170 176 172
f 173 175 176
f 173 176 174
f 177 179 183
f 177 183 181
f 178 182 184
f 178 184 180
f 181 183 184
f 181 184 182
f 185 187 191
f 185 191 189
f 186 190 192
f 186 192 188
f 189 191 192
f 189 192 190
f 193 195 199
f 193 199 197
f 194 198 200
f 194 200 196
f 197 199 200
f 197 200 198
f 201 203 207
f 201 207 205
f 202 206 208
f 202 208 204
f 205 207 208
f 205 208 206
f 209 211 215
f 209 215 213
f 210 214 216
f 210 216 212
f 213 215 216
f 213 216 214
f 217 219 223
f 217 223 221
f 218 222 224
f 218 224 220
f 221 223 224
f 221 224 222
f 225 227 231
f 225 231 229
f 226 230 232
f 226 232 228
f 229 231 232
f 229 232 230
f 233 235 239
f 233 239 237
f 234 238 240
f 234 240 236
f 237 239 240
f 237 240 238
f 241 243 247
f 241 247 245
f 242 246 248
f 242 248 244
f 245 247 248
f 245 248 246
f 249 251 255
f 249 255 253
f 250 254 256
f 250 256 252
f 253 255 256
f 253 256 254
f 257 259 263
f 257 263 261
f 258 262 264
f 258 264 260
f 261 263 264
f 261 264 262
f 265 267 271
f 265 271 269
f 266 270 272
f 266 272 268
f 269 271 272
f 269 272 270
f 273 275 279
f 273 279 277
f 274 278 280
f 274 280 276
f 277 279 280
f 277 280 278
f 281 283 287
f 281 287 285
f 282 286 288
f 282 288 284
f 285 287 288
f 285 288 286
f 289 291 295
f 289 295 293
f 290 294 296
f 290 296 292
f 293 295 296
f 293 296 294
f 297 299 303
f 297 303 301
f 298 302 304
f 298 304 300
f 301 303 304
f 301 304 302
f 305 307 311
f 305 311 309
f 306 310 312
f 306 312 308
f 309 311 312
f 309 312 310
f 313 315 319
f 313 319 317
f 314 318 320
f 314 320 316
f 317 319 320
f 317 320 318
f 321 323 327
f 321 327 325
f 322 326 328
f 322 328 324
f 325 327 328
f 325 328 326
f 329 331 335
f 329 335 333
f 330 334 336
f 330 336 332
f 333 335 336
f 333 336 334
f 337 339 343
f 337 343 341
f 338 342 344
f 338 344 340
f 341 343 344
f 341 344 342
f 345 347 351
f 345 351 349
f 346 350 352
f 346 352 348
f 349 351 352
f 349 352 350
f 353 355 359
f 353 359 357
f 354 358 360
f 354 360 356
f 357 359 360
f 357 360 358
f 361 363 367
f 361 367 365
f 362 366 368
f 362 368 364
f 365 367 368
f 365 368 366
f 369 371 375
f 369 375 373
f 370 374 376
f 370 376 372
f 373 375 376
f 373 376 374
f 377 379 383
f 377 383 381
f 378 382 384
f 378 384 380
f 381 383 384
f 381 384 382
f 385 387 391
f 385 391 389
f 386 390 392
f 386 392 388
f 389 391 392
f 389 392 390
f 393 395 399
f 393 399 397
f 394 398 400
f 394 400 396
f 397 399 400
f 397 400 398
f 401 403 407
f 401 407 405
f 402 406 408
f 402 408 404
f 405 407 408
f 405 408 406
f 409 411 415
f 409 415 413
f 410 414 416
f 410 416 412
f 413 415 416
f 413 416 414
f 417 419 423
f 417 423 421
f 418 422 424
f 418 424 420
f 421 423 424
f 421 424 422
f 425 427 431
f 425 431 429
f 426 430 432
f 426 432 428
f 429 431 432
f 429 432 430
f 433 435 439
f 433 439 437
f 434 438 440
f 434 440 436
f 437 439 440
f 437 440 438
f 441 443 447
f 441 447 445
f 442 446 448
f 442 448 444
f 445 447 448
f 445 448 446
f 449 451 455
f 449 455 453
f 450 454 456
f 450 456 452
f 453 455 456
f 453 456 454
f 457 459 463
f 457 463 461
f 458 462 464
f 458 464 460
f 461 463 464
f 461 464 462
f 465 467 471
f 465 471 469
f 466 470 472
f 466 472 468
f 469 471 472
f 469 472 470
f 473 475 479
f 473 479 477
f 474 478 480
f 474 480 476
f 477 479 480
f 477 480 478
f 481 483 487
f 481 487 485
f 482 486 488
f 482 488 484
f 485 487 488
f 485 488 486
f 489 491 495
f 489 495 493
f 490 494 496
f 490 496 492
f 493 495 496
f 493 496 494
f 497 499 503
f 497 503 501
f 498 502 504
f 498 504 500
f 501 503 504
f 501 504 502
f 505 507 511
f 505 511 509
f 506 510 512
f 506 512 508
f 509 511 512
f 509 512 510
f 513 515 519
f 513 519 517
f 514 518 520
f 514 520 516
f 517 519 520
f 517 520 518
f 521 523 527
f 521 527 525
f 522 526 528
f 522 528 524
f 525 527 528
f 525 528 526
f 529 531 535
f 529 535 533
f 530 534 536
f 530 536 532
f 533 535 536
f 533 536 534
f 537 539 543
f 537 543 541
f 538 542 544
f 538 544 540
f 541 543 544
f 541 544 542
f 545 547 551
f 545 551 549
f 546 550 552
f 546 552 548
f 549 551 552
f 549 552 550
f 553 555 559
f 553 559 557
f 554 558 560
f 554 560 556
f 557 559 560
f 557 560 558
f 561 563 567
f 561 567 565
f 562 566 568
f 562 568 564
f 565 567 568
f 565 568 566
f 569 571 575
f 569 575 573
f 570 574 576
f 570 576 572
f 573 575 576
f 573 576 574
f 577 579 583
f 577 583 581
f 578 582 584
f 578 584 580
f 581 583 584
f 581 584 582
f 585 587 591
f 585 591 589
f 586 590 592
f 586 592 588
f 589 591 592
f 589 592 590
f 593 595 599
f 593 599 597
f 594 598 600
f 594 600 596
f 597 599 600
f 597 600 598
f 601 603 607
f 601 607 605
f 602 606 608
f 602 608 604
f 605 607 608
f 605 608 606
f 609 611 615
f 609 615 613
f 610 614 616
f 610 616 612
f 613 615 616
f 613 616 614
f 617 619 623
f 617 623 621
f 618 622 624
f 618 624 620
f 621 623 624
f 621 624 622
f 625 627 631
f 625 631 629
f 626 630 632
f 626 632 628
f 629 631 632
f 629 632 630
f 633 635 639
f 633 639 637
f 634 638 640
f 634 640 636
f 637 639 640
f 637 640 638
f 641 643 647
f 641 647 645
f 642 646 648
f 642 648 644
f 645 647 648
f 645 648 646
f 649 651 655
f 649 655 653
f 650 654 656
f 650 656 652
f 653 655 656
f 653 656 654
f 657 659 663
f 657 663 661
f 658 662 664
f 658 664 660
f 661 663 664
f 661 664 662
f 665 667 671
f 665 671 669
f 666 670 672
f 666 672 668
f 669 671 672
f 669 672 670
f 673 675 679
f 673 679 677
f 674 678 680
f 674 680 676
f 677 679 680
f 677 680 678
f 681 683 687
f 681 687 685
f 682 686 688
f 682 688 684
f 685 687 688
f 685 688 686
f 689 691 695
f 689 695 693
f 690 694 696
f 690 696 692
f 693 695 696
f 693 696 694
f 697 699 703
f 697 703 701
f 698 702 704
f 698 704 700
f 701 703 704
f 701 704 702
f 705 707 711
f 705 711 709
f 706 710 712
f 706 712 708
f 709 711 712
f 709 712 710
f 713 715 719
f 713 719 717
f 714 718 720
f 714 720 716
f 717 719 720
f 717 720 718
f 721 723 727
f 721 727 725
f 722 726 728
f 722 728 724
f 725 727 728
f 725 728 726
f 729 731 735
f 729 735 733
f 730 734 736
f 730 736 732
f 733 735 736
f 733 736 734
f 737 739 743
f 737 743 741
f 738 742 744
f 738 744 740
f 741 743 744
f 741 744 742
f 745 747 751
f 745 751 749
f 746 750 752
f 746 752 748
f 749 751 752
f 749 752 750
f 753 755 759
f 753 759 757
f 754 758 760
f 754 760 756
f 757 759 760
f 757 760 758
f 761 763 767
f 761 767 765
f 762 766 768
f 762 768 764
f 765 767 768
f 765 768 766
f 769 771 775
f 769 775 773
f 770 774 776
f 770 776 772
f 773 775 776
f 773 776 774
f 777 779 783
f 777 783 781
f 778 782 784
f 778 784 780
f 781 783 784
f 781 784 782
f 785 787 791
f 785 791 789
f 786 790 792
f 786 792 788
f 789 791 792
f 789 792 790
f 793 795 799
f 793 799 797
f 794 798 800
f 794 800 796
f 797 799 800
f 797 800 798
f 801 803 807
f 801 807 805
f 802 806 808
f 802 808 804
f 805 807 808
f 805 808 806
f 809 811 815
f 809 815 813
f 810 814 816
f 810 816 812
f 813 815 816
f 813 816 814
f 817 819 823
f 817 823 821
f 818 822 824
f 818 824 820
f 821 823 824
f 821 824 822
f 825 827 831
f 825 831 829
f 826 830 832
f 826 832 828
f 829 831 832
f 829 832 830
f 833 835 839
f 833 839 837
f 834 838 840
f 834 840 836
f 837 839 840
f 837 840 838
f 841 843 847
f 841 847 845
f 842 846 848
f 842 848 844
f 845 847 848
f 845 848 846
f 849 851 855
f 849 855 853
f 850 854 856
f 850 856 852
f 853 855 856
f 853 856 854
f 857 859 863
f 857 863 861
f 858 862 864
f 858 864 860
f 861 863 864
f 861 864 862
f 865 867 871
f 865 871 869
f 866 870 872
f 866 872 868
f 869 871 872
f 869 872 870
f 873 875 879
f 873 879 877
f 874 878 880
f 874 880 876
f 877 879 880
f 877 880 878
f 881 883 887
f 881 887 885
f 882 886 888
f 882 888 884
f 885 887 888
f 885 888 886
