# AiCar meshgen
# verts=304 faces=228
# map=berlin collider
v -11.606540 0.000000 3.519207
v -11.606540 0.000000 3.439207
v 18.343460 0.000000 3.519207
v 18.343460 0.000000 3.439207
v -11.606540 0.350000 3.519207
v -11.606540 0.350000 3.439207
v 18.343460 0.350000 3.519207
v 18.343460 0.350000 3.439207
v 18.343460 0.000000 3.439207
v 18.343460 0.000000 3.519207
v -11.606540 0.000000 3.439207
v -11.606540 0.000000 3.519207
v 18.343460 0.350000 3.439207
v 18.343460 0.350000 3.519207
v -11.606540 0.350000 3.439207
v -11.606540 0.350000 3.519207
v -2.260303 0.000000 1.769030
v -2.252777 0.000000 1.689384
v 4.089697 0.000000 2.369030
v 4.097223 0.000000 2.289384
v -2.260303 0.350000 1.769030
v -2.252777 0.350000 1.689384
v 4.089697 0.350000 2.369030
v 4.097223 0.350000 2.289384
v 4.116920 0.000000 2.361605
v 4.070000 0.000000 2.296809
v 9.916920 0.000000 -1.838395
v 9.870000 0.000000 -1.903191
v 4.116920 0.350000 2.361605
v 4.070000 0.350000 2.296809
v 9.916920 0.350000 -1.838395
v 9.870000 0.350000 -1.903191
v 9.928828 0.000000 -1.852108
v 9.858092 0.000000 -1.889478
v 12.728828 0.000000 -7.152108
v 12.658092 0.000000 -7.189478
v 9.928828 0.350000 -1.852108
v 9.858092 0.350000 -1.889478
v 12.728828 0.350000 -7.152108
v 12.658092 0.350000 -7.189478
v 12.731240 0.000000 -7.183934
v 12.655680 0.000000 -7.157652
v 11.931240 0.000000 -9.483934
v 11.855680 0.000000 -9.457652
v 12.731240 0.350000 -7.183934
v 12.655680 0.350000 -7.157652
v 11.931240 0.350000 -9.483934
v 11.855680 0.350000 -9.457652
v 11.924315 0.000000 -9.496248
v 11.862605 0.000000 -9.445338
v 8.624315 0.000000 -13.496248
v 8.562605 0.000000 -13.445338
v 11.924315 0.350000 -9.496248
v 11.862605 0.350000 -9.445338
v 8.624315 0.350000 -13.496248
v 8.562605 0.350000 -13.445338
v 8.632916 0.000000 -13.477369
v 8.554004 0.000000 -13.464217
v 7.982916 0.000000 -17.377369
v 7.904004 0.000000 -17.364217
v 8.632916 0.350000 -13.477369
v 8.554004 0.350000 -13.464217
v 7.982916 0.350000 -17.377369
v 7.904004 0.350000 -17.364217
v 7.983064 0.000000 -17.365178
v 7.903856 0.000000 -17.376408
v 8.933064 0.000000 -24.065178
v 8.853856 0.000000 -24.076408
v 7.983064 0.350000 -17.365178
v 7.903856 0.350000 -17.376408
v 8.933064 0.350000 -24.065178
v 8.853856 0.350000 -24.076408
v 8.920901 0.000000 -24.099897
v 8.866019 0.000000 -24.041689
v 7.170901 0.000000 -25.749897
v 7.116019 0.000000 -25.691689
v 8.920901 0.350000 -24.099897
v 8.866019 0.350000 -24.041689
v 7.170901 0.350000 -25.749897
v 7.116019 0.350000 -25.691689
v 7.141703 0.000000 -25.760754
v 7.145217 0.000000 -25.680832
v 2.591703 0.000000 -25.560754
v 2.595217 0.000000 -25.480832
v 7.141703 0.350000 -25.760754
v 7.145217 0.350000 -25.680832
v 2.591703 0.350000 -25.560754
v 2.595217 0.350000 -25.480832
v 2.558201 0.000000 -25.539682
v 2.628719 0.000000 -25.501904
v 1.058201 0.000000 -22.739682
v 1.128719 0.000000 -22.701904
v 2.558201 0.350000 -25.539682
v 2.628719 0.350000 -25.501904
v 1.058201 0.350000 -22.739682
v 1.128719 0.350000 -22.701904
v 1.053666 0.000000 -22.724848
v 1.133254 0.000000 -22.716738
v 0.253666 0.000000 -14.874848
v 0.333254 0.000000 -14.866738
v 1.053666 0.350000 -22.724848
v 1.133254 0.350000 -22.716738
v 0.253666 0.350000 -14.874848
v 0.333254 0.350000 -14.866738
v 0.275843 0.000000 -14.906705
v 0.311077 0.000000 -14.834881
v -2.374157 0.000000 -13.606705
v -2.338923 0.000000 -13.534881
v 0.275843 0.350000 -14.906705
v 0.311077 0.350000 -14.834881
v -2.374157 0.350000 -13.606705
v -2.338923 0.350000 -13.534881
v -2.394522 0.000000 -13.583338
v -2.318558 0.000000 -13.558248
v -4.194522 0.000000 -8.133338
v -4.118558 0.000000 -8.108248
v -2.394522 0.350000 -13.583338
v -2.318558 0.350000 -13.558248
v -4.194522 0.350000 -8.133338
v -4.118558 0.350000 -8.108248
v -4.183265 0.000000 -8.091031
v -4.129815 0.000000 -8.150555
v -1.733265 0.000000 -5.891031
v -1.679815 0.000000 -5.950555
v -4.183265 0.350000 -8.091031
v -4.129815 0.350000 -8.150555
v -1.733265 0.350000 -5.891031
v -1.679815 0.350000 -5.950555
v -1.692371 0.000000 -5.958199
v -1.720709 0.000000 -5.883387
v -4.992371 0.000000 -7.208199
v -5.020709 0.000000 -7.133387
v -1.692371 0.350000 -5.958199
v -1.720709 0.350000 -5.883387
v -4.992371 0.350000 -7.208199
v -5.020709 0.350000 -7.133387
v -5.040431 0.000000 -7.192038
v -4.972649 0.000000 -7.149548
v -7.140431 0.000000 -3.842038
v -7.072649 0.000000 -3.799548
v -5.040431 0.350000 -7.192038
v -4.972649 0.350000 -7.149548
v -7.140431 0.350000 -3.842038
v -7.072649 0.350000 -3.799548
v -7.145467 0.000000 -3.811592
v -7.067613 0.000000 -3.829994
v -6.495467 0.000000 -1.061592
v -6.417613 0.000000 -1.079994
v -7.145467 0.350000 -3.811592
v -7.067613 0.350000 -3.829994
v -6.495467 0.350000 -1.061592
v -6.417613 0.350000 -1.079994
v -6.478728 0.000000 -1.037511
v -6.434352 0.000000 -1.104075
v -2.278728 0.000000 1.762489
v -2.234352 0.000000 1.695925
v -6.478728 0.350000 -1.037511
v -6.434352 0.350000 -1.104075
v -2.278728 0.350000 1.762489
v -2.234352 0.350000 1.695925
v 0.358099 0.000000 -2.008018
v 0.328821 0.000000 -1.933568
v -4.091901 0.000000 -3.758018
v -4.121179 0.000000 -3.683568
v 0.358099 0.350000 -2.008018
v 0.328821 0.350000 -1.933568
v -4.091901 0.350000 -3.758018
v -4.121179 0.350000 -3.683568
v -4.103965 0.000000 -3.680876
v -4.109115 0.000000 -3.760710
v -2.553965 0.000000 -3.780876
v -2.559115 0.000000 -3.860710
v -4.103965 0.350000 -3.680876
v -4.109115 0.350000 -3.760710
v -2.553965 0.350000 -3.780876
v -2.559115 0.350000 -3.860710
v -2.575364 0.000000 -3.785499
v -2.537716 0.000000 -3.856087
v -0.325364 0.000000 -2.585499
v -0.287716 0.000000 -2.656087
v -2.575364 0.350000 -3.785499
v -2.537716 0.350000 -3.856087
v -0.325364 0.350000 -2.585499
v -0.287716 0.350000 -2.656087
v -0.283290 0.000000 -2.588244
v -0.329790 0.000000 -2.653342
v 1.466710 0.000000 -3.838244
v 1.420210 0.000000 -3.903342
v -0.283290 0.350000 -2.588244
v -0.329790 0.350000 -2.653342
v 1.466710 0.350000 -3.838244
v 1.420210 0.350000 -3.903342
v 1.483460 0.000000 -3.870793
v 1.403460 0.000000 -3.870793
v 1.483460 0.000000 -5.670793
v 1.403460 0.000000 -5.670793
v 1.483460 0.350000 -3.870793
v 1.403460 0.350000 -3.870793
v 1.483460 0.350000 -5.670793
v 1.403460 0.350000 -5.670793
v 1.476637 0.000000 -5.693137
v 1.410283 0.000000 -5.648449
v -0.173363 0.000000 -8.143137
v -0.239717 0.000000 -8.098449
v 1.476637 0.350000 -5.693137
v 1.410283 0.350000 -5.648449
v -0.173363 0.350000 -8.143137
v -0.239717 0.350000 -8.098449
v -0.167891 0.000000 -8.110486
v -0.245189 0.000000 -8.131100
v 0.632109 0.000000 -11.110486
v 0.554811 0.000000 -11.131100
v -0.167891 0.350000 -8.110486
v -0.245189 0.350000 -8.131100
v 0.632109 0.350000 -11.110486
v 0.554811 0.350000 -11.131100
v 0.613142 0.000000 -11.085970
v 0.573778 0.000000 -11.155616
v 2.913142 0.000000 -12.385970
v 2.873778 0.000000 -12.455616
v 0.613142 0.350000 -11.085970
v 0.573778 0.350000 -11.155616
v 2.913142 0.350000 -12.385970
v 2.873778 0.350000 -12.455616
v 2.932804 0.000000 -12.413580
v 2.854116 0.000000 -12.428006
v 3.482804 0.000000 -15.413580
v 3.404116 0.000000 -15.428006
v 2.932804 0.350000 -12.413580
v 2.854116 0.350000 -12.428006
v 3.482804 0.350000 -15.413580
v 3.404116 0.350000 -15.428006
v 3.483460 0.000000 -15.420793
v 3.403460 0.000000 -15.420793
v 3.483460 0.000000 -19.020793
v 3.403460 0.000000 -19.020793
v 3.483460 0.350000 -15.420793
v 3.403460 0.350000 -15.420793
v 3.483460 0.350000 -19.020793
v 3.403460 0.350000 -19.020793
v 3.479678 0.000000 -19.003816
v 3.407242 0.000000 -19.037770
v 4.979678 0.000000 -22.203816
v 4.907242 0.000000 -22.237770
v 3.479678 0.350000 -19.003816
v 3.407242 0.350000 -19.037770
v 4.979678 0.350000 -22.203816
v 4.907242 0.350000 -22.237770
v 4.904178 0.000000 -22.228335
v 4.982742 0.000000 -22.213251
v 3.704178 0.000000 -15.978335
v 3.782742 0.000000 -15.963251
v 4.904178 0.350000 -22.228335
v 4.982742 0.350000 -22.213251
v 3.704178 0.350000 -15.978335
v 3.782742 0.350000 -15.963251
v 3.703463 0.000000 -15.971319
v 3.783457 0.000000 -15.970267
v 3.653463 0.000000 -12.171319
v 3.733457 0.000000 -12.170267
v 3.703463 0.350000 -15.971319
v 3.783457 0.350000 -15.970267
v 3.653463 0.350000 -12.171319
v 3.733457 0.350000 -12.170267
v 3.659048 0.000000 -12.150401
v 3.727872 0.000000 -12.191185
v 5.259048 0.000000 -9.450401
v 5.327872 0.000000 -9.491185
v 3.659048 0.350000 -12.150401
v 3.727872 0.350000 -12.191185
v 5.259048 0.350000 -9.450401
v 5.327872 0.350000 -9.491185
v 5.259341 0.000000 -9.449914
v 5.327579 0.000000 -9.491672
v 7.309341 0.000000 -6.099914
v 7.377579 0.000000 -6.141672
v 5.259341 0.350000 -9.449914
v 5.327579 0.350000 -9.491672
v 7.309341 0.350000 -6.099914
v 7.377579 0.350000 -6.141672
v 7.312551 0.000000 -6.146183
v 7.374369 0.000000 -6.095403
v 5.012551 0.000000 -3.346183
v 5.074369 0.000000 -3.295403
v 7.312551 0.350000 -6.146183
v 7.374369 0.350000 -6.095403
v 5.012551 0.350000 -3.346183
v 5.074369 0.350000 -3.295403
v 5.024744 0.000000 -3.356145
v 5.062176 0.000000 -3.285441
v 2.474744 0.000000 -2.006145
v 2.512176 0.000000 -1.935441
v 5.024744 0.350000 -3.356145
v 5.062176 0.350000 -3.285441
v 2.474744 0.350000 -2.006145
v 2.512176 0.350000 -1.935441
v 2.493460 0.000000 -2.010793
v 2.493460 0.000000 -1.930793
v 0.343460 0.000000 -2.010793
v 0.343460 0.000000 -1.930793
v 2.493460 0.350000 -2.010793
v 2.493460 0.350000 -1.930793
v 0.343460 0.350000 -2.010793
v 0.343460 0.350000 -1.930793
f 1 3 7
f 1 7 5
f 2 6 8
f 2 8 4
f 5 7 8
f 5 8 6
f 9 11 15
f 9 15 13
f 10 14 16
f 10 16 12
f 13 15 16
f 13 16 14
f 17 19 23
f 17 23 21
f 18 22 24
f 18 24 20
f 21 23 24
f 21 24 22
f 25 27 31
f 25 31 29
f 26 30 32
f 26 32 28
f 29 31 32
f 29 32 30
f 33 35 39
f 33 39 37
f 34 38 40
f 34 40 36
f 37 39 40
f 37 40 38
f 41 43 47
f 41 47 45
f 42 46 48
f 42 48 44
f 45 47 48
f 45 48 46
f 49 51 55
f 49 55 53
f 50 54 56
f 50 56 52
f 53 55 56
f 53 56 54
f 57 59 63
f 57 63 61
f 58 62 64
f 58 64 60
f 61 63 64
f 61 64 62
f 65 67 71
f 65 71 69
f 66 70 72
f 66 72 68
f 69 71 72
f 69 72 70
f 73 75 79
f 73 79 77
f 74 78 80
f 74 80 76
f 77 79 80
f 77 80 78
f 81 83 87
f 81 87 85
f 82 86 88
f 82 88 84
f 85 87 88
f 85 88 86
f 89 91 95
f 89 95 93
f 90 94 96
f 90 96 92
f 93 95 96
f 93 96 94
f 97 99 103
f 97 103 101
f 98 102 104
f 98 104 100
f 101 103 104
f 101 104 102
f 105 107 111
f 105 111 109
f 106 110 112
f 106 112 108
f 109 111 112
f 109 112 110
f 113 115 119
f 113 119 117
f 114 118 120
f 114 120 116
f 117 119 120
f 117 120 118
f 121 123 127
f 121 127 125
f 122 126 128
f 122 128 124
f 125 127 128
f 125 128 126
f 129 131 135
f 129 135 133
f 130 134 136
f 130 136 132
f 133 135 136
f 133 136 134
f 137 139 143
f 137 143 141
f 138 142 144
f 138 144 140
f 141 143 144
f 141 144 142
f 145 147 151
f 145 151 149
f 146 150 152
f 146 152 148
f 149 151 152
f 149 152 150
f 153 155 159
f 153 159 157
f 154 158 160
f 154 160 156
f 157 159 160
f 157 160 158
f 161 163 167
f 161 167 165
f 162 166 168
f 162 168 164
f 165 167 168
f 165 168 166
f 169 171 175
f 169 175 173
f 170 174 176
f 170 176 172
f 173 175 176
f 173 176 174
f 177 179 183
f 177 183 181
f 178 182 184
f 178 184 180
f 181 183 184
f 181 184 182
f 185 187 191
f 185 191 189
f 186 190 192
f 186 192 188
f 189 191 192
f 189 192 190
f 193 195 199
f 193 199 197
f 194 198 200
f 194 200 196
f 197 199 200
f 197 200 198
f 201 203 207
f 201 207 205
f 202 206 208
f 202 208 204
f 205 207 208
f 205 208 206
f 209 211 215
f 209 215 213
f 210 214 216
f 210 216 212
f 213 215 216
f 213 216 214
f 217 219 223
f 217 223 221
f 218 222 224
f 218 224 220
f 221 223 224
f 221 224 222
f 225 227 231
f 225 231 229
f 226 230 232
f 226 232 228
f 229 231 232
f 229 232 230
f 233 235 239
f 233 239 237
f 234 238 240
f 234 240 236
f 237 239 240
f 237 240 238
f 241 243 247
f 241 247 245
f 242 246 248
f 242 248 244
f 245 247 248
f 245 248 246
f 249 251 255
f 249 255 253
f 250 254 256
f 250 256 252
f 253 255 256
f 253 256 254
f 257 259 263
f 257 263 261
f 258 262 264
f 258 264 260
f 261 263 264
f 261 264 262
f 265 267 271
f 265 271 269
f 266 270 272
f 266 272 268
f 269 271 272
f 269 272 270
f 273 275 279
f 273 279 277
f 274 278 280
f 274 280 276
f 277 279 280
f 277 280 278
f 281 283 287
f 281 287 285
f 282 286 288
f 282 288 284
f 285 287 288
f 285 288 286
f 289 291 295
f 289 295 293
f 290 294 296
f 290 296 292
f 293 295 296
f 293 296 294
f 297 299 303
f 297 303 301
f 298 302 304
f 298 304 300
f 301 303 304
f 301 304 302
