# AiCar meshgen
# verts=1536 faces=1152
# map=icra2026_master collider
v -17.772933 0.000000 14.393574
v -17.719067 0.000000 14.334426
v -16.708933 0.000000 15.362574
v -16.655067 0.000000 15.303426
v -17.772933 0.350000 14.393574
v -17.719067 0.350000 14.334426
v -16.708933 0.350000 15.362574
v -16.655067 0.350000 15.303426
v -16.681737 0.000000 15.372999
v -16.682263 0.000000 15.293001
v -8.017737 0.000000 15.315999
v -8.018263 0.000000 15.236001
v -16.681737 0.350000 15.372999
v -16.682263 0.350000 15.293001
v -8.017737 0.350000 15.315999
v -8.018263 0.350000 15.236001
v -7.996200 0.000000 15.309538
v -8.039800 0.000000 15.242462
v -6.856200 0.000000 14.568538
v -6.899800 0.000000 14.501462
v -7.996200 0.350000 15.309538
v -8.039800 0.350000 15.242462
v -6.856200 0.350000 14.568538
v -6.899800 0.350000 14.501462
v -6.841931 0.000000 14.552293
v -6.914069 0.000000 14.517707
v -6.176931 0.000000 13.165293
v -6.249069 0.000000 13.130707
v -6.841931 0.350000 14.552293
v -6.914069 0.350000 14.517707
v -6.176931 0.350000 13.165293
v -6.249069 0.350000 13.130707
v -6.245000 0.000000 13.172000
v -6.181000 0.000000 13.124000
v -5.504000 0.000000 14.160000
v -5.440000 0.000000 14.112000
v -6.245000 0.350000 13.172000
v -6.181000 0.350000 13.124000
v -5.504000 0.350000 14.160000
v -5.440000 0.350000 14.112000
v -5.498108 0.000000 14.166304
v -5.445892 0.000000 14.105696
v -4.263108 0.000000 15.230304
v -4.210892 0.000000 15.169696
v -5.498108 0.350000 14.166304
v -5.445892 0.350000 14.105696
v -4.263108 0.350000 15.230304
v -4.210892 0.350000 15.169696
v -4.240663 0.000000 15.239832
v -4.233337 0.000000 15.160168
v -2.587663 0.000000 15.391832
v -2.580337 0.000000 15.312168
v -4.240663 0.350000 15.239832
v -4.233337 0.350000 15.160168
v -2.587663 0.350000 15.391832
v -2.580337 0.350000 15.312168
v -2.563036 0.000000 15.386066
v -2.604964 0.000000 15.317934
v -1.081036 0.000000 14.474066
v -1.122964 0.000000 14.405934
v -2.563036 0.350000 15.386066
v -2.604964 0.350000 15.317934
v -1.081036 0.350000 14.474066
v -1.122964 0.350000 14.405934
v -1.065161 0.000000 14.455586
v -1.138839 0.000000 14.424414
v -0.438161 0.000000 12.973586
v -0.511839 0.000000 12.942414
v -1.065161 0.350000 14.455586
v -1.138839 0.350000 14.424414
v -0.438161 0.350000 12.973586
v -0.511839 0.350000 12.942414
v -0.436644 0.000000 12.969350
v -0.513356 0.000000 12.946650
v 0.665356 0.000000 9.245350
v 0.588644 0.000000 9.222650
v -0.436644 0.350000 12.969350
v -0.513356 0.350000 12.946650
v 0.665356 0.350000 9.245350
v 0.588644 0.350000 9.222650
v 0.607011 0.000000 9.268647
v 0.646989 0.000000 9.199353
v 1.101011 0.000000 9.553647
v 1.140989 0.000000 9.484353
v 0.607011 0.350000 9.268647
v 0.646989 0.350000 9.199353
v 1.101011 0.350000 9.553647
v 1.140989 0.350000 9.484353
v 1.081167 0.000000 9.522649
v 1.160833 0.000000 9.515351
v 1.309167 0.000000 12.011649
v 1.388833 0.000000 12.004351
v 1.081167 0.350000 9.522649
v 1.160833 0.350000 9.515351
v 1.309167 0.350000 12.011649
v 1.388833 0.350000 12.004351
v 1.316112 0.000000 12.030768
v 1.381888 0.000000 11.985232
v 2.342112 0.000000 13.512768
v 2.407888 0.000000 13.467232
v 1.316112 0.350000 12.030768
v 1.381888 0.350000 11.985232
v 2.342112 0.350000 13.512768
v 2.407888 0.350000 13.467232
v 2.356781 0.000000 13.525610
v 2.393219 0.000000 13.454390
v 3.990781 0.000000 14.361610
v 4.027219 0.000000 14.290390
v 2.356781 0.350000 13.525610
v 2.393219 0.350000 13.454390
v 3.990781 0.350000 14.361610
v 4.027219 0.350000 14.290390
v 4.004717 0.000000 14.365770
v 4.013283 0.000000 14.286230
v 8.944717 0.000000 14.897770
v 8.953283 0.000000 14.818230
v 4.004717 0.350000 14.365770
v 4.013283 0.350000 14.286230
v 8.944717 0.350000 14.897770
v 8.953283 0.350000 14.818230
v 8.988126 0.000000 14.866314
v 8.909874 0.000000 14.849686
v 9.311126 0.000000 13.346314
v 9.232874 0.000000 13.329686
v 8.988126 0.350000 14.866314
v 8.909874 0.350000 14.849686
v 9.311126 0.350000 13.346314
v 9.232874 0.350000 13.329686
v 9.255286 0.000000 13.374341
v 9.288714 0.000000 13.301659
v 13.758286 0.000000 15.445341
v 13.791714 0.000000 15.372659
v 9.255286 0.350000 13.374341
v 9.288714 0.350000 13.301659
v 13.758286 0.350000 15.445341
v 13.791714 0.350000 15.372659
v 13.784310 0.000000 15.447902
v 13.765690 0.000000 15.370098
v 16.007310 0.000000 14.915902
v 15.988690 0.000000 14.838098
v 13.784310 0.350000 15.447902
v 13.765690 0.350000 15.370098
v 16.007310 0.350000 14.915902
v 15.988690 0.350000 14.838098
v 16.023330 0.000000 14.907958
v 15.972670 0.000000 14.846042
v 17.486330 0.000000 13.710958
v 17.435670 0.000000 13.649042
v 16.023330 0.350000 14.907958
v 15.972670 0.350000 14.846042
v 17.486330 0.350000 13.710958
v 17.435670 0.350000 13.649042
v 17.496164 0.000000 13.699065
v 17.425836 0.000000 13.660935
v 18.351164 0.000000 12.122065
v 18.280836 0.000000 12.083935
v 17.496164 0.350000 13.699065
v 17.425836 0.350000 13.660935
v 18.351164 0.350000 12.122065
v 18.280836 0.350000 12.083935
v 18.355989 0.000000 12.103954
v 18.276011 0.000000 12.102046
v 18.545989 0.000000 4.142954
v 18.466011 0.000000 4.141046
v 18.355989 0.350000 12.103954
v 18.276011 0.350000 12.102046
v 18.545989 0.350000 4.142954
v 18.466011 0.350000 4.141046
v 18.537774 0.000000 4.117702
v 18.474226 0.000000 4.166298
v 17.549774 0.000000 2.825702
v 17.486226 0.000000 2.874298
v 18.537774 0.350000 4.117702
v 18.474226 0.350000 4.166298
v 17.549774 0.350000 2.825702
v 17.486226 0.350000 2.874298
v 17.553777 0.000000 2.832111
v 17.482223 0.000000 2.867889
v 17.306777 0.000000 2.338111
v 17.235223 0.000000 2.373889
v 17.553777 0.350000 2.832111
v 17.482223 0.350000 2.867889
v 17.306777 0.350000 2.338111
v 17.235223 0.350000 2.373889
v 17.295558 0.000000 2.387574
v 17.246442 0.000000 2.324426
v 18.321558 0.000000 1.589574
v 18.272442 0.000000 1.526426
v 17.295558 0.350000 2.387574
v 17.246442 0.350000 2.324426
v 18.321558 0.350000 1.589574
v 18.272442 0.350000 1.526426
v 18.336299 0.000000 1.565453
v 18.257701 0.000000 1.550547
v 18.545299 0.000000 0.463453
v 18.466701 0.000000 0.448547
v 18.336299 0.350000 1.565453
v 18.257701 0.350000 1.550547
v 18.545299 0.350000 0.463453
v 18.466701 0.350000 0.448547
v 18.540508 0.000000 0.435771
v 18.471492 0.000000 0.476229
v 17.894508 0.000000 -0.666229
v 17.825492 0.000000 -0.625771
v 18.540508 0.350000 0.435771
v 18.471492 0.350000 0.476229
v 17.894508 0.350000 -0.666229
v 17.825492 0.350000 -0.625771
v 17.862554 0.000000 -0.685918
v 17.857446 0.000000 -0.606082
v 12.219554 0.000000 -1.046918
v 12.214446 0.000000 -0.967082
v 17.862554 0.350000 -0.685918
v 17.857446 0.350000 -0.606082
v 12.219554 0.350000 -1.046918
v 12.214446 0.350000 -0.967082
v 12.177026 0.000000 -1.008435
v 12.256974 0.000000 -1.005565
v 12.044026 0.000000 2.696565
v 12.123974 0.000000 2.699435
v 12.177026 0.350000 -1.008435
v 12.256974 0.350000 -1.005565
v 12.044026 0.350000 2.696565
v 12.123974 0.350000 2.699435
v 12.123935 0.000000 2.695724
v 12.044065 0.000000 2.700276
v 11.914935 0.000000 -0.971276
v 11.835065 0.000000 -0.966724
v 12.123935 0.350000 2.695724
v 12.044065 0.350000 2.700276
v 11.914935 0.350000 -0.971276
v 11.835065 0.350000 -0.966724
v 11.874739 0.000000 -1.008999
v 11.875261 0.000000 -0.929001
v 8.967739 0.000000 -0.989999
v 8.968261 0.000000 -0.910001
v 11.874739 0.350000 -1.008999
v 11.875261 0.350000 -0.929001
v 8.967739 0.350000 -0.989999
v 8.968261 0.350000 -0.910001
v 8.947420 0.000000 -0.984300
v 8.988580 0.000000 -0.915700
v 7.427420 0.000000 -0.072300
v 7.468580 0.000000 -0.003700
v 8.947420 0.350000 -0.984300
v 8.988580 0.350000 -0.915700
v 7.427420 0.350000 -0.072300
v 7.468580 0.350000 -0.003700
v 7.420802 0.000000 -0.067331
v 7.475198 0.000000 -0.008669
v 6.375802 0.000000 0.901669
v 6.430198 0.000000 0.960331
v 7.420802 0.350000 -0.067331
v 7.475198 0.350000 -0.008669
v 6.375802 0.350000 0.901669
v 6.430198 0.350000 0.960331
v 6.436583 0.000000 0.909270
v 6.369417 0.000000 0.952730
v 5.600583 0.000000 -0.382730
v 5.533417 0.000000 -0.339270
v 6.436583 0.350000 0.909270
v 6.369417 0.350000 0.952730
v 5.600583 0.350000 -0.382730
v 5.533417 0.350000 -0.339270
v 5.582931 0.000000 -0.397690
v 5.551069 0.000000 -0.324310
v 4.138931 0.000000 -1.024690
v 4.107069 0.000000 -0.951310
v 5.582931 0.350000 -0.397690
v 5.551069 0.350000 -0.324310
v 4.138931 0.350000 -1.024690
v 4.107069 0.350000 -0.951310
v 4.122437 0.000000 -1.027996
v 4.123563 0.000000 -0.948004
v -14.782563 0.000000 -0.761996
v -14.781437 0.000000 -0.682004
v 4.122437 0.350000 -1.027996
v 4.123563 0.350000 -0.948004
v -14.782563 0.350000 -0.761996
v -14.781437 0.350000 -0.682004
v -14.802704 0.000000 -0.756225
v -14.761296 0.000000 -0.687775
v -16.341704 0.000000 0.174775
v -16.300296 0.000000 0.243225
v -14.802704 0.350000 -0.756225
v -14.761296 0.350000 -0.687775
v -16.341704 0.350000 0.174775
v -16.300296 0.350000 0.243225
v -16.353648 0.000000 0.185889
v -16.288352 0.000000 0.232111
v -17.550648 0.000000 1.876889
v -17.485352 0.000000 1.923111
v -16.353648 0.350000 0.185889
v -16.288352 0.350000 0.232111
v -17.550648 0.350000 1.876889
v -17.485352 0.350000 1.923111
v -17.557037 0.000000 1.891274
v -17.478963 0.000000 1.908726
v -17.918037 0.000000 3.506274
v -17.839963 0.000000 3.523726
v -17.557037 0.350000 1.891274
v -17.478963 0.350000 1.908726
v -17.918037 0.350000 3.506274
v -17.839963 0.350000 3.523726
v -17.918963 0.000000 3.516724
v -17.839037 0.000000 3.513276
v -17.595963 0.000000 11.002724
v -17.516037 0.000000 10.999276
v -17.918963 0.350000 3.516724
v -17.839037 0.350000 3.513276
v -17.595963 0.350000 11.002724
v -17.516037 0.350000 10.999276
v -17.577630 0.000000 11.034647
v -17.534370 0.000000 10.967353
v -16.513630 0.000000 11.718647
v -16.470370 0.000000 11.651353
v -17.577630 0.350000 11.034647
v -17.534370 0.350000 10.967353
v -16.513630 0.350000 11.718647
v -16.470370 0.350000 11.651353
v -16.531391 0.000000 11.691951
v -16.452609 0.000000 11.678049
v -16.474391 0.000000 12.014951
v -16.395609 0.000000 12.001049
v -16.531391 0.350000 11.691951
v -16.452609 0.350000 11.678049
v -16.474391 0.350000 12.014951
v -16.395609 0.350000 12.001049
v -16.456402 0.000000 11.974207
v -16.413598 0.000000 12.041793
v -17.596402 0.000000 12.696207
v -17.553598 0.000000 12.763793
v -16.456402 0.350000 11.974207
v -16.413598 0.350000 12.041793
v -17.596402 0.350000 12.696207
v -17.553598 0.350000 12.763793
v -17.613945 0.000000 12.720872
v -17.536055 0.000000 12.739128
v -17.898945 0.000000 13.936872
v -17.821055 0.000000 13.955128
v -17.613945 0.350000 12.720872
v -17.536055 0.350000 12.739128
v -17.898945 0.350000 13.936872
v -17.821055 0.350000 13.955128
v -17.898591 0.000000 13.956525
v -17.821409 0.000000 13.935475
v -17.784591 0.000000 14.374525
v -17.707409 0.000000 14.353475
v -17.898591 0.350000 13.956525
v -17.821409 0.350000 13.935475
v -17.784591 0.350000 14.374525
v -17.707409 0.350000 14.353475
v -17.991000 0.000000 14.440000
v -18.071000 0.000000 14.440000
v -17.991000 0.000000 12.958000
v -18.071000 0.000000 12.958000
v -17.991000 0.350000 14.440000
v -18.071000 0.350000 14.440000
v -17.991000 0.350000 12.958000
v -18.071000 0.350000 12.958000
v -17.999000 0.000000 12.982000
v -18.063000 0.000000 12.934000
v -17.372000 0.000000 12.146000
v -17.436000 0.000000 12.098000
v -17.999000 0.350000 12.982000
v -18.063000 0.350000 12.934000
v -17.372000 0.350000 12.146000
v -17.436000 0.350000 12.098000
v -17.366581 0.000000 12.107864
v -17.441419 0.000000 12.136136
v -17.689581 0.000000 11.252864
v -17.764419 0.000000 11.281136
v -17.366581 0.350000 12.107864
v -17.441419 0.350000 12.136136
v -17.689581 0.350000 11.252864
v -17.764419 0.350000 11.281136
v -17.687062 0.000000 11.264770
v -17.766938 0.000000 11.269230
v -18.124062 0.000000 3.436770
v -18.203938 0.000000 3.441230
v -17.687062 0.350000 11.264770
v -17.766938 0.350000 11.269230
v -18.124062 0.350000 3.436770
v -18.203938 0.350000 3.441230
v -18.125123 0.000000 3.448412
v -18.202877 0.000000 3.429588
v -17.688123 0.000000 1.643412
v -17.765877 0.000000 1.624588
v -18.125123 0.350000 3.448412
v -18.202877 0.350000 3.429588
v -17.688123 0.350000 1.643412
v -17.765877 0.350000 1.624588
v -17.694732 0.000000 1.657638
v -17.759268 0.000000 1.610362
v -16.497732 0.000000 0.023638
v -16.562268 0.000000 -0.023638
v -17.694732 0.350000 1.657638
v -17.759268 0.350000 1.610362
v -16.497732 0.350000 0.023638
v -16.562268 0.350000 -0.023638
v -16.509363 0.000000 0.034265
v -16.550637 0.000000 -0.034265
v -14.837363 0.000000 -0.972735
v -14.878637 0.000000 -1.041265
v -16.509363 0.350000 0.034265
v -16.550637 0.350000 -0.034265
v -14.837363 0.350000 -0.972735
v -14.878637 0.350000 -1.041265
v -14.857395 0.000000 -0.967005
v -14.858605 0.000000 -1.046995
v 3.971605 0.000000 -1.252005
v 3.970395 0.000000 -1.331995
v -14.857395 0.350000 -0.967005
v -14.858605 0.350000 -1.046995
v 3.971605 0.350000 -1.252005
v 3.970395 0.350000 -1.331995
v 3.957330 0.000000 -1.254408
v 3.984670 0.000000 -1.329592
v 5.629330 0.000000 -0.646408
v 5.656670 0.000000 -0.721592
v 3.957330 0.350000 -1.254408
v 3.984670 0.350000 -1.329592
v 5.629330 0.350000 -0.646408
v 5.656670 0.350000 -0.721592
v 5.610688 0.000000 -0.660421
v 5.675312 0.000000 -0.707579
v 6.636688 0.000000 0.745579
v 6.701312 0.000000 0.698421
v 5.610688 0.350000 -0.660421
v 5.675312 0.350000 -0.707579
v 6.636688 0.350000 0.745579
v 6.701312 0.350000 0.698421
v 6.701704 0.000000 0.745031
v 6.636296 0.000000 0.698969
v 7.651704 0.000000 -0.603969
v 7.586296 0.000000 -0.650031
v 6.701704 0.350000 0.745031
v 6.636296 0.350000 0.698969
v 7.651704 0.350000 -0.603969
v 7.586296 0.350000 -0.650031
v 7.633223 0.000000 -0.589614
v 7.604777 0.000000 -0.664386
v 9.381223 0.000000 -1.254614
v 9.352777 0.000000 -1.329386
v 7.633223 0.350000 -0.589614
v 7.604777 0.350000 -0.664386
v 9.381223 0.350000 -1.254614
v 9.352777 0.350000 -1.329386
v 9.365324 0.000000 -1.252035
v 9.368676 0.000000 -1.331965
v 17.972324 0.000000 -0.891035
v 17.975676 0.000000 -0.970965
v 9.365324 0.350000 -1.252035
v 9.368676 0.350000 -1.331965
v 17.972324 0.350000 -0.891035
v 17.975676 0.350000 -0.970965
v 17.939270 0.000000 -0.911154
v 18.008730 0.000000 -0.950846
v 18.775270 0.000000 0.551846
v 18.844730 0.000000 0.512154
v 17.939270 0.350000 -0.911154
v 18.008730 0.350000 -0.950846
v 18.775270 0.350000 0.551846
v 18.844730 0.350000 0.512154
v 18.771812 0.000000 0.520097
v 18.848188 0.000000 0.543903
v 18.315812 0.000000 1.983097
v 18.392188 0.000000 2.006903
v 18.771812 0.350000 0.520097
v 18.848188 0.350000 0.543903
v 18.315812 0.350000 1.983097
v 18.392188 0.350000 2.006903
v 18.315243 0.000000 1.985105
v 18.392757 0.000000 2.004895
v 18.087243 0.000000 2.878105
v 18.164757 0.000000 2.897895
v 18.315243 0.350000 1.985105
v 18.392757 0.350000 2.004895
v 18.087243 0.350000 2.878105
v 18.164757 0.350000 2.897895
v 18.090324 0.000000 2.906089
v 18.161676 0.000000 2.869911
v 18.774324 0.000000 4.255089
v 18.845676 0.000000 4.218911
v 18.090324 0.350000 2.906089
v 18.161676 0.350000 2.869911
v 18.774324 0.350000 4.255089
v 18.845676 0.350000 4.218911
v 18.770037 0.000000 4.235274
v 18.849963 0.000000 4.238726
v 18.409037 0.000000 12.595274
v 18.488963 0.000000 12.598726
v 18.770037 0.350000 4.235274
v 18.849963 0.350000 4.238726
v 18.409037 0.350000 12.595274
v 18.488963 0.350000 12.598726
v 18.415406 0.000000 12.575287
v 18.482594 0.000000 12.618713
v 17.408406 0.000000 14.133287
v 17.475594 0.000000 14.176713
v 18.415406 0.350000 12.575287
v 18.482594 0.350000 12.618713
v 17.408406 0.350000 14.133287
v 17.475594 0.350000 14.176713
v 17.419478 0.000000 14.121943
v 17.464522 0.000000 14.188057
v 15.690478 0.000000 15.299943
v 15.735522 0.000000 15.366057
v 17.419478 0.350000 14.121943
v 17.464522 0.350000 14.188057
v 15.690478 0.350000 15.299943
v 15.735522 0.350000 15.366057
v 15.705878 0.000000 15.293639
v 15.720122 0.000000 15.372361
v 13.710878 0.000000 15.654639
v 13.725122 0.000000 15.733361
v 15.705878 0.350000 15.293639
v 15.720122 0.350000 15.372361
v 13.710878 0.350000 15.654639
v 13.725122 0.350000 15.733361
v 13.722533 0.000000 15.654258
v 13.713467 0.000000 15.733742
v 3.728533 0.000000 14.514258
v 3.719467 0.000000 14.593742
v 13.722533 0.350000 15.654258
v 13.713467 0.350000 15.733742
v 3.728533 0.350000 14.514258
v 3.719467 0.350000 14.593742
v 3.743244 0.000000 14.518933
v 3.704756 0.000000 14.589067
v 2.185244 0.000000 13.663933
v 2.146756 0.000000 13.734067
v 3.743244 0.350000 14.518933
v 3.704756 0.350000 14.589067
v 2.185244 0.350000 13.663933
v 2.146756 0.350000 13.734067
v 2.199282 0.000000 13.676812
v 2.132718 0.000000 13.721188
v 1.059282 0.000000 11.966812
v 0.992718 0.000000 12.011188
v 2.199282 0.350000 13.676812
v 2.132718 0.350000 13.721188
v 1.059282 0.350000 11.966812
v 0.992718 0.350000 12.011188
v 1.065873 0.000000 11.985810
v 0.986127 0.000000 11.992190
v 0.875873 0.000000 9.610810
v 0.796127 0.000000 9.617190
v 1.065873 0.350000 11.985810
v 0.986127 0.350000 11.992190
v 0.875873 0.350000 9.610810
v 0.796127 0.350000 9.617190
v 0.797705 0.000000 9.602447
v 0.874295 0.000000 9.625553
v -0.228295 0.000000 13.003447
v -0.151705 0.000000 13.026553
v 0.797705 0.350000 9.602447
v 0.874295 0.350000 9.625553
v -0.228295 0.350000 13.003447
v -0.151705 0.350000 13.026553
v -0.226923 0.000000 12.999615
v -0.153077 0.000000 13.030385
v -0.891923 0.000000 14.595615
v -0.818077 0.000000 14.626385
v -0.226923 0.350000 12.999615
v -0.153077 0.350000 13.030385
v -0.891923 0.350000 14.595615
v -0.818077 0.350000 14.626385
v -0.875921 0.000000 14.576907
v -0.834079 0.000000 14.645093
v -2.547921 0.000000 15.602907
v -2.506079 0.000000 15.671093
v -0.875921 0.350000 14.576907
v -0.834079 0.350000 14.645093
v -2.547921 0.350000 15.602907
v -2.506079 0.350000 15.671093
v -2.525051 0.000000 15.597048
v -2.528949 0.000000 15.676952
v -4.083051 0.000000 15.521048
v -4.086949 0.000000 15.600952
v -2.525051 0.350000 15.597048
v -2.528949 0.350000 15.676952
v -4.083051 0.350000 15.521048
v -4.086949 0.350000 15.600952
v -4.062606 0.000000 15.527856
v -4.107394 0.000000 15.594144
v -5.468606 0.000000 14.577856
v -5.513394 0.000000 14.644144
v -4.062606 0.350000 15.527856
v -4.107394 0.350000 15.594144
v -5.468606 0.350000 14.577856
v -5.513394 0.350000 14.644144
v -5.483774 0.000000 14.571658
v -5.498226 0.000000 14.650342
v -6.414774 0.000000 14.400658
v -6.429226 0.000000 14.479342
v -5.483774 0.350000 14.571658
v -5.498226 0.350000 14.650342
v -6.414774 0.350000 14.400658
v -6.429226 0.350000 14.479342
v -6.449056 0.000000 14.410539
v -6.394944 0.000000 14.469461
v -7.380056 0.000000 15.265539
v -7.325944 0.000000 15.324461
v -6.449056 0.350000 14.410539
v -6.394944 0.350000 14.469461
v -7.380056 0.350000 15.265539
v -7.325944 0.350000 15.324461
v -7.354767 0.000000 15.255039
v -7.351233 0.000000 15.334961
v -16.379767 0.000000 15.654039
v -16.376233 0.000000 15.733961
v -7.354767 0.350000 15.255039
v -7.351233 0.350000 15.334961
v -16.379767 0.350000 15.654039
v -16.376233 0.350000 15.733961
v -16.358574 0.000000 15.659034
v -16.397426 0.000000 15.728966
v -17.726574 0.000000 14.899034
v -17.765426 0.000000 14.968966
v -16.358574 0.350000 15.659034
v -16.397426 0.350000 15.728966
v -17.726574 0.350000 14.899034
v -17.765426 0.350000 14.968966
v -17.711353 0.000000 14.914011
v -17.780647 0.000000 14.953989
v -17.996353 0.000000 14.420011
v -18.065647 0.000000 14.459989
v -17.711353 0.350000 14.914011
v -17.780647 0.350000 14.953989
v -17.996353 0.350000 14.420011
v -18.065647 0.350000 14.459989
v 16.628523 0.000000 11.265719
v 16.697477 0.000000 11.306281
v 15.678523 0.000000 12.880719
v 15.747477 0.000000 12.921281
v 16.628523 0.350000 11.265719
v 16.697477 0.350000 11.306281
v 15.678523 0.350000 12.880719
v 15.747477 0.350000 12.921281
v 15.695320 0.000000 12.865120
v 15.730680 0.000000 12.936880
v 14.384320 0.000000 13.511120
v 14.419680 0.000000 13.582880
v 15.695320 0.350000 12.865120
v 15.730680 0.350000 12.936880
v 14.384320 0.350000 13.511120
v 14.419680 0.350000 13.582880
v 14.409619 0.000000 13.507732
v 14.394381 0.000000 13.586268
v 13.136619 0.000000 13.260732
v 13.121381 0.000000 13.339268
v 14.409619 0.350000 13.507732
v 14.394381 0.350000 13.586268
v 13.136619 0.350000 13.260732
v 13.121381 0.350000 13.339268
v 13.134934 0.000000 13.339557
v 13.123066 0.000000 13.260443
v 15.034934 0.000000 13.054557
v 15.023066 0.000000 12.975443
v 13.134934 0.350000 13.339557
v 13.123066 0.350000 13.260443
v 15.034934 0.350000 13.054557
v 15.023066 0.350000 12.975443
v 15.057284 0.000000 13.043284
v 15.000716 0.000000 12.986716
v 16.159284 0.000000 11.941284
v 16.102716 0.000000 11.884716
v 15.057284 0.350000 13.043284
v 15.000716 0.350000 12.986716
v 16.159284 0.350000 11.941284
v 16.102716 0.350000 11.884716
v 16.170927 0.000000 11.915415
v 16.091073 0.000000 11.910585
v 16.455927 0.000000 7.203415
v 16.376073 0.000000 7.198585
v 16.170927 0.350000 11.915415
v 16.091073 0.350000 11.910585
v 16.455927 0.350000 7.203415
v 16.376073 0.350000 7.198585
v 16.415907 0.000000 7.161000
v 16.416093 0.000000 7.241000
v 8.264907 0.000000 7.180000
v 8.265093 0.000000 7.260000
v 16.415907 0.350000 7.161000
v 16.416093 0.350000 7.241000
v 8.264907 0.350000 7.180000
v 8.265093 0.350000 7.260000
v 8.234680 0.000000 7.193910
v 8.295320 0.000000 7.246090
v 4.719680 0.000000 11.278910
v 4.780320 0.000000 11.331090
v 8.234680 0.350000 7.193910
v 8.295320 0.350000 7.246090
v 4.719680 0.350000 11.278910
v 4.780320 0.350000 11.331090
v 4.778776 0.000000 11.277216
v 4.721224 0.000000 11.332784
v 4.246776 0.000000 10.726216
v 4.189224 0.000000 10.781784
v 4.778776 0.350000 11.277216
v 4.721224 0.350000 11.332784
v 4.246776 0.350000 10.726216
v 4.189224 0.350000 10.781784
v 4.257537 0.000000 10.760067
v 4.178463 0.000000 10.747933
v 4.808537 0.000000 7.169067
v 4.729463 0.000000 7.156933
v 4.257537 0.350000 10.760067
v 4.178463 0.350000 10.747933
v 4.808537 0.350000 7.169067
v 4.729463 0.350000 7.156933
v 4.731369 0.000000 7.149438
v 4.806631 0.000000 7.176562
v 3.382369 0.000000 10.892438
v 3.457631 0.000000 10.919562
v 4.731369 0.350000 7.149438
v 4.806631 0.350000 7.176562
v 3.382369 0.350000 10.892438
v 3.457631 0.350000 10.919562
v 3.387003 0.000000 10.928609
v 3.452997 0.000000 10.883391
v 4.090003 0.000000 11.954609
v 4.155997 0.000000 11.909391
v 3.387003 0.350000 10.928609
v 3.452997 0.350000 10.883391
v 4.090003 0.350000 11.954609
v 4.155997 0.350000 11.909391
v 4.124858 0.000000 11.971957
v 4.121142 0.000000 11.892043
v 11.477858 0.000000 11.629957
v 11.474142 0.000000 11.550043
v 4.124858 0.350000 11.971957
v 4.121142 0.350000 11.892043
v 11.477858 0.350000 11.629957
v 11.474142 0.350000 11.550043
v 11.445404 0.000000 11.564235
v 11.506596 0.000000 11.615765
v 11.141404 0.000000 11.925235
v 11.202596 0.000000 11.976765
v 11.445404 0.350000 11.564235
v 11.506596 0.350000 11.615765
v 11.141404 0.350000 11.925235
v 11.202596 0.350000 11.976765
v 11.169059 0.000000 11.911108
v 11.174941 0.000000 11.990892
v 7.046059 0.000000 12.215108
v 7.051941 0.000000 12.294892
v 11.169059 0.350000 11.911108
v 11.174941 0.350000 11.990892
v 7.046059 0.350000 12.215108
v 7.051941 0.350000 12.294892
v 7.044039 0.000000 12.215309
v 7.053961 0.000000 12.294691
v 6.740039 0.000000 12.253309
v 6.749961 0.000000 12.332691
v 7.044039 0.350000 12.215309
v 7.053961 0.350000 12.294691
v 6.740039 0.350000 12.253309
v 6.749961 0.350000 12.332691
v 6.743263 0.000000 12.253038
v 6.746737 0.000000 12.332962
v 4.558263 0.000000 12.348038
v 4.561737 0.000000 12.427962
v 6.743263 0.350000 12.253038
v 6.746737 0.350000 12.332962
v 4.558263 0.350000 12.348038
v 4.561737 0.350000 12.427962
v 4.582188 0.000000 12.354718
v 4.537812 0.000000 12.421282
v 3.385188 0.000000 11.556718
v 3.340812 0.000000 11.623282
v 4.582188 0.350000 12.354718
v 4.537812 0.350000 12.421282
v 3.385188 0.350000 11.556718
v 3.340812 0.350000 11.623282
v 3.402937 0.000000 11.587752
v 3.323063 0.000000 11.592248
v 3.155937 0.000000 7.198752
v 3.076063 0.000000 7.203248
v 3.402937 0.350000 11.587752
v 3.323063 0.350000 11.592248
v 3.155937 0.350000 7.198752
v 3.076063 0.350000 7.203248
v 3.102991 0.000000 7.163174
v 3.129009 0.000000 7.238826
v -0.488009 0.000000 8.398174
v -0.461991 0.000000 8.473826
v 3.102991 0.350000 7.163174
v 3.129009 0.350000 7.238826
v -0.488009 0.350000 8.398174
v -0.461991 0.350000 8.473826
v -0.464709 0.000000 8.474654
v -0.485291 0.000000 8.397346
v 5.387291 0.000000 6.916654
v 5.366709 0.000000 6.839346
v -0.464709 0.350000 8.474654
v -0.485291 0.350000 8.397346
v 5.387291 0.350000 6.916654
v 5.366709 0.350000 6.839346
v 5.346271 0.000000 6.852393
v 5.407729 0.000000 6.903607
v 4.491271 0.000000 7.878393
v 4.552729 0.000000 7.929607
v 5.346271 0.350000 6.852393
v 5.407729 0.350000 6.903607
v 4.491271 0.350000 7.878393
v 4.552729 0.350000 7.929607
v 4.482166 0.000000 7.907643
v 4.561834 0.000000 7.900357
v 4.767166 0.000000 11.023643
v 4.846834 0.000000 11.016357
v 4.482166 0.350000 7.907643
v 4.561834 0.350000 7.900357
v 4.767166 0.350000 11.023643
v 4.846834 0.350000 11.016357
v 4.837792 0.000000 11.045531
v 4.776208 0.000000 10.994469
v 7.972792 0.000000 7.264531
v 7.911208 0.000000 7.213469
v 4.837792 0.350000 11.045531
v 4.776208 0.350000 10.994469
v 7.972792 0.350000 7.264531
v 7.911208 0.350000 7.213469
v 7.926214 0.000000 7.275753
v 7.957786 0.000000 7.202247
v 16.685214 0.000000 11.037753
v 16.716786 0.000000 10.964247
v 7.926214 0.350000 7.275753
v 7.957786 0.350000 7.202247
v 16.685214 0.350000 11.037753
v 16.716786 0.350000 10.964247
v 16.661351 0.000000 10.995713
v 16.740649 0.000000 11.006287
v 16.623351 0.000000 11.280713
v 16.702649 0.000000 11.291287
v 16.661351 0.350000 10.995713
v 16.740649 0.350000 11.006287
v 16.623351 0.350000 11.280713
v 16.702649 0.350000 11.291287
v 5.352217 0.000000 5.687603
v 5.401783 0.000000 5.750397
v -2.494783 0.000000 11.881603
v -2.445217 0.000000 11.944397
v 5.352217 0.350000 5.687603
v 5.401783 0.350000 5.750397
v -2.494783 0.350000 11.881603
v -2.445217 0.350000 11.944397
v -2.504192 0.000000 11.892241
v -2.435808 0.000000 11.933759
v -2.827192 0.000000 12.424241
v -2.758808 0.000000 12.465759
v -2.504192 0.350000 11.892241
v -2.435808 0.350000 11.933759
v -2.827192 0.350000 12.424241
v -2.758808 0.350000 12.465759
v -2.824896 0.000000 12.420862
v -2.761104 0.000000 12.469138
v -3.356896 0.000000 13.123862
v -3.293104 0.000000 13.172138
v -2.824896 0.350000 12.420862
v -2.761104 0.350000 12.469138
v -3.356896 0.350000 13.123862
v -3.293104 0.350000 13.172138
v -3.288753 0.000000 13.131085
v -3.361247 0.000000 13.164915
v -3.687753 0.000000 12.276085
v -3.760247 0.000000 12.309915
v -3.288753 0.350000 13.131085
v -3.361247 0.350000 13.164915
v -3.687753 0.350000 12.276085
v -3.760247 0.350000 12.309915
v -3.684008 0.000000 12.292216
v -3.763992 0.000000 12.293784
v -3.855008 0.000000 3.571216
v -3.934992 0.000000 3.572784
v -3.684008 0.350000 12.292216
v -3.763992 0.350000 12.293784
v -3.855008 0.350000 3.571216
v -3.934992 0.350000 3.572784
v -3.880162 0.000000 3.534854
v -3.909838 0.000000 3.609146
v -10.777162 0.000000 0.779854
v -10.806838 0.000000 0.854146
v -3.880162 0.350000 3.534854
v -3.909838 0.350000 3.609146
v -10.777162 0.350000 0.779854
v -10.806838 0.350000 0.854146
v -10.793323 0.000000 0.856978
v -10.790677 0.000000 0.777022
v -2.756323 0.000000 1.122978
v -2.753677 0.000000 1.043022
v -10.793323 0.350000 0.856978
v -10.790677 0.350000 0.777022
v -2.756323 0.350000 1.122978
v -2.753677 0.350000 1.043022
v -2.759615 0.000000 1.122733
v -2.750385 0.000000 1.043267
v 3.947385 0.000000 1.901733
v 3.956615 0.000000 1.822267
v -2.759615 0.350000 1.122733
v -2.750385 0.350000 1.043267
v 3.947385 0.350000 1.901733
v 3.956615 0.350000 1.822267
v 3.924743 0.000000 1.891276
v 3.979257 0.000000 1.832724
v 4.475743 0.000000 2.404276
v 4.530257 0.000000 2.345724
v 3.924743 0.350000 1.891276
v 3.979257 0.350000 1.832724
v 4.475743 0.350000 2.404276
v 4.530257 0.350000 2.345724
v 4.464300 0.000000 2.385115
v 4.541700 0.000000 2.364885
v 5.338300 0.000000 5.729115
v 5.415700 0.000000 5.708885
v 4.464300 0.350000 2.385115
v 4.541700 0.350000 2.364885
v 5.338300 0.350000 5.729115
v 5.415700 0.350000 5.708885
v -3.415884 0.000000 12.218788
v -3.424116 0.000000 12.139212
v -2.864884 0.000000 12.161788
v -2.873116 0.000000 12.082212
v -3.415884 0.350000 12.218788
v -3.424116 0.350000 12.139212
v -2.864884 0.350000 12.161788
v -2.873116 0.350000 12.082212
v -2.843083 0.000000 12.152469
v -2.894917 0.000000 12.091531
v 5.041917 0.000000 5.445469
v 4.990083 0.000000 5.384531
v -2.843083 0.350000 12.152469
v -2.894917 0.350000 12.091531
v 5.041917 0.350000 5.445469
v 4.990083 0.350000 5.384531
v 5.054608 0.000000 5.404539
v 4.977392 0.000000 5.425461
v 4.256608 0.000000 2.459539
v 4.179392 0.000000 2.480461
v 5.054608 0.350000 5.404539
v 4.977392 0.350000 5.425461
v 4.256608 0.350000 2.459539
v 4.179392 0.350000 2.480461
v 4.246284 0.000000 2.441716
v 4.189716 0.000000 2.498284
v 3.923284 0.000000 2.118716
v 3.866716 0.000000 2.175284
v 4.246284 0.350000 2.441716
v 4.189716 0.350000 2.498284
v 3.923284 0.350000 2.118716
v 3.866716 0.350000 2.175284
v 3.899555 0.000000 2.107260
v 3.890445 0.000000 2.186740
v -2.731445 0.000000 1.347260
v -2.740555 0.000000 1.426740
v 3.899555 0.350000 2.107260
v 3.890445 0.350000 2.186740
v -2.731445 0.350000 1.347260
v -2.740555 0.350000 1.426740
v -2.773317 0.000000 1.372597
v -2.698683 0.000000 1.401403
v -3.609317 0.000000 3.538597
v -3.534683 0.000000 3.567403
v -2.773317 0.350000 1.372597
v -2.698683 0.350000 1.401403
v -3.609317 0.350000 3.538597
v -3.534683 0.350000 3.567403
v -3.611994 0.000000 3.553705
v -3.532006 0.000000 3.552295
v -3.459994 0.000000 12.179705
v -3.380006 0.000000 12.178295
v -3.611994 0.350000 3.553705
v -3.532006 0.350000 3.552295
v -3.459994 0.350000 12.179705
v -3.380006 0.350000 12.178295
v -8.864414 0.000000 12.626893
v -8.805586 0.000000 12.681107
v -9.757414 0.000000 13.595893
v -9.698586 0.000000 13.650107
v -8.864414 0.350000 12.626893
v -8.805586 0.350000 12.681107
v -9.757414 0.350000 13.595893
v -9.698586 0.350000 13.650107
v -9.731516 0.000000 13.583155
v -9.724484 0.000000 13.662845
v -12.315516 0.000000 13.811155
v -12.308484 0.000000 13.890845
v -9.731516 0.350000 13.583155
v -9.724484 0.350000 13.662845
v -12.315516 0.350000 13.811155
v -12.308484 0.350000 13.890845
v -12.305367 0.000000 13.890446
v -12.318633 0.000000 13.811554
v -10.158367 0.000000 13.529446
v -10.171633 0.000000 13.450554
v -12.305367 0.350000 13.890446
v -12.318633 0.350000 13.811554
v -10.158367 0.350000 13.529446
v -10.171633 0.350000 13.450554
v -10.138699 0.000000 13.520137
v -10.191301 0.000000 13.459863
v -9.093699 0.000000 12.608137
v -9.146301 0.000000 12.547863
v -10.138699 0.350000 13.520137
v -10.191301 0.350000 13.459863
v -9.093699 0.350000 12.608137
v -9.146301 0.350000 12.547863
v -9.080073 0.000000 12.580420
v -9.159927 0.000000 12.575580
v -9.004073 0.000000 11.326420
v -9.083927 0.000000 11.321580
v -9.080073 0.350000 12.580420
v -9.159927 0.350000 12.575580
v -9.004073 0.350000 11.326420
v -9.083927 0.350000 11.321580
v -9.011084 0.000000 11.301272
v -9.076916 0.000000 11.346728
v -9.562084 0.000000 10.503272
v -9.627916 0.000000 10.548728
v -9.011084 0.350000 11.301272
v -9.076916 0.350000 11.346728
v -9.562084 0.350000 10.503272
v -9.627916 0.350000 10.548728
v -9.592616 0.000000 10.486071
v -9.597384 0.000000 10.565929
v -15.957616 0.000000 10.106071
v -15.962384 0.000000 10.185929
v -9.592616 0.350000 10.486071
v -9.597384 0.350000 10.565929
v -15.957616 0.350000 10.106071
v -15.962384 0.350000 10.185929
v -15.921719 0.000000 10.157600
v -15.998281 0.000000 10.134400
v -15.731719 0.000000 9.530600
v -15.808281 0.000000 9.507400
v -15.921719 0.350000 10.157600
v -15.998281 0.350000 10.134400
v -15.731719 0.350000 9.530600
v -15.808281 0.350000 9.507400
v -15.772459 0.000000 9.558924
v -15.767541 0.000000 9.479076
v -10.528459 0.000000 9.881924
v -10.523541 0.000000 9.802076
v -15.772459 0.350000 9.558924
v -15.767541 0.350000 9.479076
v -10.528459 0.350000 9.881924
v -10.523541 0.350000 9.802076
v -10.542298 0.000000 9.878529
v -10.509702 0.000000 9.805471
v -9.307298 0.000000 10.429529
v -9.274702 0.000000 10.356471
v -10.542298 0.350000 9.878529
v -10.509702 0.350000 9.805471
v -9.307298 0.350000 10.429529
v -9.274702 0.350000 10.356471
v -9.326777 0.000000 10.410889
v -9.255223 0.000000 10.375111
v -8.718777 0.000000 11.626889
v -8.647223 0.000000 11.591111
v -9.326777 0.350000 10.410889
v -9.255223 0.350000 10.375111
v -8.718777 0.350000 11.626889
v -8.647223 0.350000 11.591111
v -8.722583 0.000000 11.603242
v -8.643417 0.000000 11.614758
v -8.874583 0.000000 12.648242
v -8.795417 0.000000 12.659758
v -8.722583 0.350000 11.603242
v -8.643417 0.350000 11.614758
v -8.874583 0.350000 12.648242
v -8.795417 0.350000 12.659758
v 7.961123 0.000000 5.731108
v 7.884877 0.000000 5.706892
v 9.367123 0.000000 1.304108
v 9.290877 0.000000 1.279892
v 7.961123 0.350000 5.731108
v 7.884877 0.350000 5.706892
v 9.367123 0.350000 1.304108
v 9.290877 0.350000 1.279892
v 9.289824 0.000000 1.300078
v 9.368176 0.000000 1.283922
v 9.669824 0.000000 3.143078
v 9.748176 0.000000 3.126922
v 9.289824 0.350000 1.300078
v 9.368176 0.350000 1.283922
v 9.669824 0.350000 3.143078
v 9.748176 0.350000 3.126922
v 9.677268 0.000000 3.159353
v 9.740732 0.000000 3.110647
v 10.304268 0.000000 3.976353
v 10.367732 0.000000 3.927647
v 9.677268 0.350000 3.159353
v 9.740732 0.350000 3.110647
v 10.304268 0.350000 3.976353
v 10.367732 0.350000 3.927647
v 10.332399 0.000000 3.991838
v 10.339601 0.000000 3.912162
v 13.695399 0.000000 4.295838
v 13.702601 0.000000 4.216162
v 10.332399 0.350000 3.991838
v 10.339601 0.350000 3.912162
v 13.695399 0.350000 4.295838
v 13.702601 0.350000 4.216162
v 13.731289 0.000000 4.279609
v 13.666711 0.000000 4.232391
v 15.023289 0.000000 2.512609
v 14.958711 0.000000 2.465391
v 13.731289 0.350000 4.279609
v 13.666711 0.350000 4.232391
v 15.023289 0.350000 2.512609
v 14.958711 0.350000 2.465391
v 14.955148 0.000000 2.471263
v 15.026852 0.000000 2.506737
v 14.062148 0.000000 4.276263
v 14.133852 0.000000 4.311737
v 14.955148 0.350000 2.471263
v 15.026852 0.350000 2.506737
v 14.062148 0.350000 4.276263
v 14.133852 0.350000 4.311737
v 14.068316 0.000000 4.320811
v 14.127684 0.000000 4.267189
v 14.600316 0.000000 4.909811
v 14.659684 0.000000 4.856189
v 14.068316 0.350000 4.320811
v 14.127684 0.350000 4.267189
v 14.600316 0.350000 4.909811
v 14.659684 0.350000 4.856189
v 14.594584 0.000000 4.864407
v 14.665416 0.000000 4.901593
v 14.195584 0.000000 5.624407
v 14.266416 0.000000 5.661593
v 14.594584 0.350000 4.864407
v 14.665416 0.350000 4.901593
v 14.195584 0.350000 5.624407
v 14.266416 0.350000 5.661593
v 14.230518 0.000000 5.603003
v 14.231482 0.000000 5.682997
v 7.922518 0.000000 5.679003
v 7.923482 0.000000 5.758997
v 14.230518 0.350000 5.603003
v 14.231482 0.350000 5.682997
v 7.922518 0.350000 5.679003
v 7.923482 0.350000 5.758997
v -5.851668 0.000000 8.519568
v -5.928332 0.000000 8.542432
v -6.174668 0.000000 7.436568
v -6.251332 0.000000 7.459432
v -5.851668 0.350000 8.519568
v -5.928332 0.350000 8.542432
v -6.174668 0.350000 7.436568
v -6.251332 0.350000 7.459432
v -6.208404 0.000000 7.408265
v -6.217596 0.000000 7.487735
v -14.093404 0.000000 6.496265
v -14.102596 0.000000 6.575735
v -6.208404 0.350000 7.408265
v -6.217596 0.350000 7.487735
v -14.093404 0.350000 6.496265
v -14.102596 0.350000 6.575735
v -14.058015 0.000000 6.537103
v -14.137985 0.000000 6.534897
v -13.982015 0.000000 3.782103
v -14.061985 0.000000 3.779897
v -14.058015 0.350000 6.537103
v -14.137985 0.350000 6.534897
v -13.982015 0.350000 3.782103
v -14.061985 0.350000 3.779897
v -14.032420 0.000000 3.819619
v -14.011580 0.000000 3.742381
v -6.356420 0.000000 5.890619
v -6.335580 0.000000 5.813381
v -14.032420 0.350000 3.819619
v -14.011580 0.350000 3.742381
v -6.356420 0.350000 5.890619
v -6.335580 0.350000 5.813381
v -6.385433 0.000000 5.858712
v -6.306567 0.000000 5.845288
v -5.929433 0.000000 8.537712
v -5.850567 0.000000 8.524288
v -6.385433 0.350000 5.858712
v -6.306567 0.350000 5.845288
v -5.929433 0.350000 8.537712
v -5.850567 0.350000 8.524288
v -6.157915 0.000000 6.898742
v -6.230085 0.000000 6.933258
v -6.575915 0.000000 6.024742
v -6.648085 0.000000 6.059258
v -6.157915 0.350000 6.898742
v -6.230085 0.350000 6.933258
v -6.575915 0.350000 6.024742
v -6.648085 0.350000 6.059258
v -6.602060 0.000000 6.003255
v -6.621940 0.000000 6.080745
v -13.860060 0.000000 4.141255
v -13.879940 0.000000 4.218745
v -6.602060 0.350000 6.003255
v -6.621940 0.350000 6.080745
v -13.860060 0.350000 4.141255
v -13.879940 0.350000 4.218745
v -13.886850 0.000000 4.216278
v -13.853150 0.000000 4.143722
v -6.932850 0.000000 7.446278
v -6.899150 0.000000 7.373722
v -13.886850 0.350000 4.216278
v -13.853150 0.350000 4.143722
v -6.932850 0.350000 7.446278
v -6.899150 0.350000 7.373722
v -6.896916 0.000000 7.445154
v -6.935084 0.000000 7.374846
v -6.231916 0.000000 7.084154
v -6.270084 0.000000 7.013846
v -6.896916 0.350000 7.445154
v -6.935084 0.350000 7.374846
v -6.231916 0.350000 7.084154
v -6.270084 0.350000 7.013846
v -6.214234 0.000000 7.064757
v -6.287766 0.000000 7.033243
v -6.157234 0.000000 6.931757
v -6.230766 0.000000 6.900243
v -6.214234 0.350000 7.064757
v -6.287766 0.350000 7.033243
v -6.157234 0.350000 6.931757
v -6.230766 0.350000 6.900243
v -16.015137 0.000000 7.204309
v -16.094863 0.000000 7.197691
v -15.597137 0.000000 2.169309
v -15.676863 0.000000 2.162691
v -16.015137 0.350000 7.204309
v -16.094863 0.350000 7.197691
v -15.597137 0.350000 2.169309
v -15.676863 0.350000 2.162691
v -15.611182 0.000000 2.196552
v -15.662818 0.000000 2.135448
v -14.262182 0.000000 1.056552
v -14.313818 0.000000 0.995448
v -15.611182 0.350000 2.196552
v -15.662818 0.350000 2.135448
v -14.262182 0.350000 1.056552
v -14.313818 0.350000 0.995448
v -14.290535 0.000000 1.065920
v -14.285465 0.000000 0.986080
v -13.093535 0.000000 1.141920
v -13.088465 0.000000 1.062080
v -14.290535 0.350000 1.065920
v -14.285465 0.350000 0.986080
v -13.093535 0.350000 1.141920
v -13.088465 0.350000 1.062080
v -13.100576 0.000000 1.063163
v -13.081424 0.000000 1.140837
v -14.487576 0.000000 1.405163
v -14.468424 0.000000 1.482837
v -13.100576 0.350000 1.063163
v -13.081424 0.350000 1.140837
v -14.487576 0.350000 1.405163
v -14.468424 0.350000 1.482837
v -14.505293 0.000000 1.414758
v -14.450707 0.000000 1.473242
v -15.360293 0.000000 2.212758
v -15.305707 0.000000 2.271242
v -14.505293 0.350000 1.414758
v -14.450707 0.350000 1.473242
v -15.360293 0.350000 2.212758
v -15.305707 0.350000 2.271242
v -15.372846 0.000000 2.238489
v -15.293154 0.000000 2.245511
v -15.809846 0.000000 7.197489
v -15.730154 0.000000 7.204511
v -15.372846 0.350000 2.238489
v -15.293154 0.350000 2.245511
v -15.809846 0.350000 7.197489
v -15.730154 0.350000 7.204511
v -15.770000 0.000000 7.161000
v -15.770000 0.000000 7.241000
v -16.055000 0.000000 7.161000
v -16.055000 0.000000 7.241000
v -15.770000 0.350000 7.161000
v -15.770000 0.350000 7.241000
v -16.055000 0.350000 7.161000
v -16.055000 0.350000 7.241000
v 8.265130 0.000000 5.417000
v 8.264870 0.000000 5.337000
v 14.117130 0.000000 5.398000
v 14.116870 0.000000 5.318000
v 8.265130 0.350000 5.417000
v 8.264870 0.350000 5.337000
v 14.117130 0.350000 5.398000
v 14.116870 0.350000 5.318000
v 14.153085 0.000000 5.375258
v 14.080915 0.000000 5.340742
v 14.362085 0.000000 4.938258
v 14.289915 0.000000 4.903742
v 14.153085 0.350000 5.375258
v 14.080915 0.350000 5.340742
v 14.362085 0.350000 4.938258
v 14.289915 0.350000 4.903742
v 14.354284 0.000000 4.892716
v 14.297716 0.000000 4.949284
v 13.993284 0.000000 4.531716
v 13.936716 0.000000 4.588284
v 14.354284 0.350000 4.892716
v 14.297716 0.350000 4.949284
v 13.993284 0.350000 4.531716
v 13.936716 0.350000 4.588284
v 13.968621 0.000000 4.520164
v 13.961379 0.000000 4.599836
v 10.206621 0.000000 4.178164
v 10.199379 0.000000 4.257836
v 13.968621 0.350000 4.520164
v 13.961379 0.350000 4.599836
v 10.206621 0.350000 4.178164
v 10.199379 0.350000 4.257836
v 10.234574 0.000000 4.193442
v 10.171426 0.000000 4.242558
v 9.436574 0.000000 3.167442
v 9.373426 0.000000 3.216558
v 10.234574 0.350000 4.193442
v 10.171426 0.350000 4.242558
v 9.436574 0.350000 3.167442
v 9.373426 0.350000 3.216558
v 9.369537 0.000000 3.173497
v 9.440463 0.000000 3.210503
v 8.229537 0.000000 5.358497
v 8.300463 0.000000 5.395503
v 9.369537 0.350000 3.173497
v 9.440463 0.350000 3.210503
v 8.229537 0.350000 5.358497
v 8.300463 0.350000 5.395503
v -6.175000 0.000000 9.217000
v -6.175000 0.000000 9.137000
v -5.263000 0.000000 9.217000
v -5.263000 0.000000 9.137000
v -6.175000 0.350000 9.217000
v -6.175000 0.350000 9.137000
v -5.263000 0.350000 9.217000
v -5.263000 0.350000 9.137000
v -5.263000 0.000000 9.137000
v -5.263000 0.000000 9.217000
v -6.175000 0.000000 9.137000
v -6.175000 0.000000 9.217000
v -5.263000 0.350000 9.137000
v -5.263000 0.350000 9.217000
v -6.175000 0.350000 9.137000
v -6.175000 0.350000 9.217000
v 6.709000 0.000000 7.752000
v 6.629000 0.000000 7.752000
v 6.709000 0.000000 7.182000
v 6.629000 0.000000 7.182000
v 6.709000 0.350000 7.752000
v 6.629000 0.350000 7.752000
v 6.709000 0.350000 7.182000
v 6.629000 0.350000 7.182000
v 6.629000 0.000000 7.182000
v 6.709000 0.000000 7.182000
v 6.629000 0.000000 7.752000
v 6.709000 0.000000 7.752000
v 6.629000 0.350000 7.182000
v 6.709000 0.350000 7.182000
v 6.629000 0.350000 7.752000
v 6.709000 0.350000 7.752000
v 6.709000 0.000000 5.396000
v 6.629000 0.000000 5.396000
v 6.709000 0.000000 4.826000
v 6.629000 0.000000 4.826000
v 6.709000 0.350000 5.396000
v 6.629000 0.350000 5.396000
v 6.709000 0.350000 4.826000
v 6.629000 0.350000 4.826000
v 6.629000 0.000000 4.826000
v 6.709000 0.000000 4.826000
v 6.629000 0.000000 5.396000
v 6.709000 0.000000 5.396000
v 6.629000 0.350000 4.826000
v 6.709000 0.350000 4.826000
v 6.629000 0.350000 5.396000
v 6.709000 0.350000 5.396000
v -10.982000 0.000000 12.048000
v -10.982000 0.000000 11.968000
v -10.678000 0.000000 12.048000
v -10.678000 0.000000 11.968000
v -10.982000 0.350000 12.048000
v -10.982000 0.350000 11.968000
v -10.678000 0.350000 12.048000
v -10.678000 0.350000 11.968000
v -10.678000 0.000000 11.968000
v -10.678000 0.000000 12.048000
v -10.982000 0.000000 11.968000
v -10.982000 0.000000 12.048000
v -10.678000 0.350000 11.968000
v -10.678000 0.350000 12.048000
v -10.982000 0.350000 11.968000
v -10.982000 0.350000 12.048000
v -15.542000 0.000000 12.048000
v -15.542000 0.000000 11.968000
v -15.238000 0.000000 12.048000
v -15.238000 0.000000 11.968000
v -15.542000 0.350000 12.048000
v -15.542000 0.350000 11.968000
v -15.238000 0.350000 12.048000
v -15.238000 0.350000 11.968000
v -15.238000 0.000000 11.968000
v -15.238000 0.000000 12.048000
v -15.542000 0.000000 11.968000
v -15.542000 0.000000 12.048000
v -15.238000 0.350000 11.968000
v -15.238000 0.350000 12.048000
v -15.542000 0.350000 11.968000
v -15.542000 0.350000 12.048000
v -11.628000 0.000000 12.048000
v -11.628000 0.000000 11.968000
v -11.324000 0.000000 12.048000
v -11.324000 0.000000 11.968000
v -11.628000 0.350000 12.048000
v -11.628000 0.350000 11.968000
v -11.324000 0.350000 12.048000
v -11.324000 0.350000 11.968000
v -11.324000 0.000000 11.968000
v -11.324000 0.000000 12.048000
v -11.628000 0.000000 11.968000
v -11.628000 0.000000 12.048000
v -11.324000 0.350000 11.968000
v -11.324000 0.350000 12.048000
v -11.628000 0.350000 11.968000
v -11.628000 0.350000 12.048000
v -13.585000 0.000000 12.048000
v -13.585000 0.000000 11.968000
v -13.281000 0.000000 12.048000
v -13.281000 0.000000 11.968000
v -13.585000 0.350000 12.048000
v -13.585000 0.350000 11.968000
v -13.281000 0.350000 12.048000
v -13.281000 0.350000 11.968000
v -13.281000 0.000000 11.968000
v -13.281000 0.000000 12.048000
v -13.585000 0.000000 11.968000
v -13.585000 0.000000 12.048000
v -13.281000 0.350000 11.968000
v -13.281000 0.350000 12.048000
v -13.585000 0.350000 11.968000
v -13.585000 0.350000 12.048000
v 11.818000 0.000000 13.644000
v 11.818000 0.000000 13.564000
v 12.122000 0.000000 13.644000
v 12.122000 0.000000 13.564000
v 11.818000 0.350000 13.644000
v 11.818000 0.350000 13.564000
v 12.122000 0.350000 13.644000
v 12.122000 0.350000 13.564000
v 12.122000 0.000000 13.564000
v 12.122000 0.000000 13.644000
v 11.818000 0.000000 13.564000
v 11.818000 0.000000 13.644000
v 12.122000 0.350000 13.564000
v 12.122000 0.350000 13.644000
v 11.818000 0.350000 13.564000
v 11.818000 0.350000 13.644000
v -12.749000 0.000000 1.142000
v -12.749000 0.000000 1.062000
v -12.445000 0.000000 1.142000
v -12.445000 0.000000 1.062000
v -12.749000 0.350000 1.142000
v -12.749000 0.350000 1.062000
v -12.445000 0.350000 1.142000
v -12.445000 0.350000 1.062000
v -12.445000 0.000000 1.062000
v -12.445000 0.000000 1.142000
v -12.749000 0.000000 1.062000
v -12.749000 0.000000 1.142000
v -12.445000 0.350000 1.062000
v -12.445000 0.350000 1.142000
v -12.749000 0.350000 1.062000
v -12.749000 0.350000 1.142000
v -16.055000 0.000000 7.906000
v -16.055000 0.000000 7.826000
v -15.770000 0.000000 7.906000
v -15.770000 0.000000 7.826000
v -16.055000 0.350000 7.906000
v -16.055000 0.350000 7.826000
v -15.770000 0.350000 7.906000
v -15.770000 0.350000 7.826000
v -15.770000 0.000000 7.826000
v -15.770000 0.000000 7.906000
v -16.055000 0.000000 7.826000
v -16.055000 0.000000 7.906000
v -15.770000 0.350000 7.826000
v -15.770000 0.350000 7.906000
v -16.055000 0.350000 7.826000
v -16.055000 0.350000 7.906000
v -12.274000 0.000000 12.048000
v -12.274000 0.000000 11.968000
v -11.989000 0.000000 12.048000
v -11.989000 0.000000 11.968000
v -12.274000 0.350000 12.048000
v -12.274000 0.350000 11.968000
v -11.989000 0.350000 12.048000
v -11.989000 0.350000 11.968000
v -11.989000 0.000000 11.968000
v -11.989000 0.000000 12.048000
v -12.274000 0.000000 11.968000
v -12.274000 0.000000 12.048000
v -11.989000 0.350000 11.968000
v -11.989000 0.350000 12.048000
v -12.274000 0.350000 11.968000
v -12.274000 0.350000 12.048000
v -12.920000 0.000000 12.048000
v -12.920000 0.000000 11.968000
v -12.635000 0.000000 12.048000
v -12.635000 0.000000 11.968000
v -12.920000 0.350000 12.048000
v -12.920000 0.350000 11.968000
v -12.635000 0.350000 12.048000
v -12.635000 0.350000 11.968000
v -12.635000 0.000000 11.968000
v -12.635000 0.000000 12.048000
v -12.920000 0.000000 11.968000
v -12.920000 0.000000 12.048000
v -12.635000 0.350000 11.968000
v -12.635000 0.350000 12.048000
v -12.920000 0.350000 11.968000
v -12.920000 0.350000 12.048000
v -14.231000 0.000000 12.048000
v -14.231000 0.000000 11.968000
v -13.946000 0.000000 12.048000
v -13.946000 0.000000 11.968000
v -14.231000 0.350000 12.048000
v -14.231000 0.350000 11.968000
v -13.946000 0.350000 12.048000
v -13.946000 0.350000 11.968000
v -13.946000 0.000000 11.968000
v -13.946000 0.000000 12.048000
v -14.231000 0.000000 11.968000
v -14.231000 0.000000 12.048000
v -13.946000 0.350000 11.968000
v -13.946000 0.350000 12.048000
v -14.231000 0.350000 11.968000
v -14.231000 0.350000 12.048000
f 1 3 7
f 1 7 5
f 2 6 8
f 2 8 4
f 5 7 8
f 5 8 6
f 9 11 15
f 9 15 13
f 10 14 16
f 10 16 12
f 13 15 16
f 13 16 14
f 17 19 23
f 17 23 21
f 18 22 24
f 18 24 20
f 21 23 24
f 21 24 22
f 25 27 31
f 25 31 29
f 26 30 32
f 26 32 28
f 29 31 32
f 29 32 30
f 33 35 39
f 33 39 37
f 34 38 40
f 34 40 36
f 37 39 40
f 37 40 38
f 41 43 47
f 41 47 45
f 42 46 48
f 42 48 44
f 45 47 48
f 45 48 46
f 49 51 55
f 49 55 53
f 50 54 56
f 50 56 52
f 53 55 56
f 53 56 54
f 57 59 63
f 57 63 61
f 58 62 64
f 58 64 60
f 61 63 64
f 61 64 62
f 65 67 71
f 65 71 69
f 66 70 72
f 66 72 68
f 69 71 72
f 69 72 70
f 73 75 79
f 73 79 77
f 74 78 80
f 74 80 76
f 77 79 80
f 77 80 78
f 81 83 87
f 81 87 85
f 82 86 88
f 82 88 84
f 85 87 88
f 85 88 86
f 89 91 95
f 89 95 93
f 90 94 96
f 90 96 92
f 93 95 96
f 93 96 94
f 97 99 103
f 97 103 101
f 98 102 104
f 98 104 100
f 101 103 104
f 101 104 102
f 105 107 111
f 105 111 109
f 106 110 112
f 106 112 108
f 109 111 112
f 109 112 110
f 113 115 119
f 113 119 117
f 114 118 120
f 114 120 116
f 117 119 120
f 117 120 118
f 121 123 127
f 121 127 125
f 122 126 128
f 122 128 124
f 125 127 128
f 125 128 126
f 129 131 135
f 129 135 133
f 130 134 136
f 130 136 132
f 133 135 136
f 133 136 134
f 137 139 143
f 137 143 141
f 138 142 144
f 138 144 140
f 141 143 144
f 141 144 142
f 145 147 151
f 145 151 149
f 146 150 152
f 146 152 148
f 149 151 152
f 149 152 150
f 153 155 159
f 153 159 157
f 154 158 160
f 154 160 156
f 157 159 160
f 157 160 158
f 161 163 167
f 161 167 165
f 162 166 168
f 162 168 164
f 165 167 168
f 165 168 166
f 169 171 175
f 169 175 173
f 170 174 176
f 170 176 172
f 173 175 176
f 173 176 174
f 177 179 183
f 177 183 181
f 178 182 184
f 178 184 180
f 181 183 184
f 181 184 182
f 185 187 191
f 185 191 189
f 186 190 192
f 186 192 188
f 189 191 192
f 189 192 190
f 193 195 199
f 193 199 197
f 194 198 200
f 194 200 196
f 197 199 200
f 197 200 198
f 201 203 207
f 201 207 205
f 202 206 208
f 202 208 204
f 205 207 208
f 205 208 206
f 209 211 215
f 209 215 213
f 210 214 216
f 210 216 212
f 213 215 216
f 213 216 214
f 217 219 223
f 217 223 221
f 218 222 224
f 218 224 220
f 221 223 224
f 221 224 222
f 225 227 231
f 225 231 229
f 226 230 232
f 226 232 228
f 229 231 232
f 229 232 230
f 233 235 239
f 233 239 237
f 234 238 240
f 234 240 236
f 237 239 240
f 237 240 238
f 241 243 247
f 241 247 245
f 242 246 248
f 242 248 244
f 245 247 248
f 245 248 246
f 249 251 255
f 249 255 253
f 250 254 256
f 250 256 252
f 253 255 256
f 253 256 254
f 257 259 263
f 257 263 261
f 258 262 264
f 258 264 260
f 261 263 264
f 261 264 262
f 265 267 271
f 265 271 269
f 266 270 272
f 266 272 268
f 269 271 272
f 269 272 270
f 273 275 279
f 273 279 277
f 274 278 280
f 274 280 276
f 277 279 280
f 277 280 278
f 281 283 287
f 281 287 285
f 282 286 288
f 282 288 284
f 285 287 288
f 285 288 286
f 289 291 295
f 289 295 293
f 290 294 296
f 290 296 292
f 293 295 296
f 293 296 294
f 297 299 303
f 297 303 301
f 298 302 304
f 298 304 300
f 301 303 304
f 301 304 302
f 305 307 311
f 305 311 309
f 306 310 312
f 306 312 308
f 309 311 312
f 309 312 310
f 313 315 319
f 313 319 317
f 314 318 320
f 314 320 316
f 317 319 320
f 317 320 318
f 321 323 327
f 321 327 325
f 322 326 328
f 322 328 324
f 325 327 328
f 325 328 326
f 329 331 335
f 329 335 333
f 330 334 336
f 330 336 332
f 333 335 336
f 333 336 334
f 337 339 343
f 337 343 341
f 338 342 344
f 338 344 340
f 341 343 344
f 341 344 342
f 345 347 351
f 345 351 349
f 346 350 352
f 346 352 348
f 349 351 352
f 349 352 350
f 353 355 359
f 353 359 357
f 354 358 360
f 354 360 356
f 357 359 360
f 357 360 358
f 361 363 367
f 361 367 365
f 362 366 368
f 362 368 364
f 365 367 368
f 365 368 366
f 369 371 375
f 369 375 373
f 370 374 376
f 370 376 372
f 373 375 376
f 373 376 374
f 377 379 383
f 377 383 381
f 378 382 384
f 378 384 380
f 381 383 384
f 381 384 382
f 385 387 391
f 385 391 389
f 386 390 392
f 386 392 388
f 389 391 392
f 389 392 390
f 393 395 399
f 393 399 397
f 394 398 400
f 394 400 396
f 397 399 400
f 397 400 398
f 401 403 407
f 401 407 405
f 402 406 408
f 402 408 404
f 405 407 408
f 405 408 406
f 409 411 415
f 409 415 413
f 410 414 416
f 410 416 412
f 413 415 416
f 413 416 414
f 417 419 423
f 417 423 421
f 418 422 424
f 418 424 420
f 421 423 424
f 421 424 422
f 425 427 431
f 425 431 429
f 426 430 432
f 426 432 428
f 429 431 432
f 429 432 430
f 433 435 439
f 433 439 437
f 434 438 440
f 434 440 436
f 437 439 440
f 437 440 438
f 441 443 447
f 441 447 445
f 442 446 448
f 442 448 444
f 445 447 448
f 445 448 446
f 449 451 455
f 449 455 453
f 450 454 456
f 450 456 452
f 453 455 456
f 453 456 454
f 457 459 463
f 457 463 461
f 458 462 464
f 458 464 460
f 461 463 464
f 461 464 462
f 465 467 471
f 465 471 469
f 466 470 472
f 466 472 468
f 469 471 472
f 469 472 470
f 473 475 479
f 473 479 477
f 474 478 480
f 474 480 476
f 477 479 480
f 477 480 478
f 481 483 487
f 481 487 485
f 482 486 488
f 482 488 484
f 485 487 488
f 485 488 486
f 489 491 495
f 489 495 493
f 490 494 496
f 490 496 492
f 493 495 496
f 493 496 494
f 497 499 503
f 497 503 501
f 498 502 504
f 498 504 500
f 501 503 504
f 501 504 502
f 505 507 511
f 505 511 509
f 506 510 512
f 506 512 508
f 509 511 512
f 509 512 510
f 513 515 519
f 513 519 517
f 514 518 520
f 514 520 516
f 517 519 520
f 517 520 518
f 521 523 527
f 521 527 525
f 522 526 528
f 522 528 524
f 525 527 528
f 525 528 526
f 529 531 535
f 529 535 533
f 530 534 536
f 530 536 532
f 533 535 536
f 533 536 534
f 537 539 543
f 537 543 541
f 538 542 544
f 538 544 540
f 541 543 544
f 541 544 542
f 545 547 551
f 545 551 549
f 546 550 552
f 546 552 548
f 549 551 552
f 549 552 550
f 553 555 559
f 553 559 557
f 554 558 560
f 554 560 556
f 557 559 560
f 557 560 558
f 561 563 567
f 561 567 565
f 562 566 568
f 562 568 564
f 565 567 568
f 565 568 566
f 569 571 575
f 569 575 573
f 570 574 576
f 570 576 572
f 573 575 576
f 573 576 574
f 577 579 583
f 577 583 581
f 578 582 584
f 578 584 580
f 581 583 584
f 581 584 582
f 585 587 591
f 585 591 589
f 586 590 592
f 586 592 588
f 589 591 592
f 589 592 590
f 593 595 599
f 593 599 597
f 594 598 600
f 594 600 596
f 597 599 600
f 597 600 598
f 601 603 607
f 601 607 605
f 602 606 608
f 602 608 604
f 605 607 608
f 605 608 606
f 609 611 615
f 609 615 613
f 610 614 616
f 610 616 612
f 613 615 616
f 613 616 614
f 617 619 623
f 617 623 621
f 618 622 624
f 618 624 620
f 621 623 624
f 621 624 622
f 625 627 631
f 625 631 629
f 626 630 632
f 626 632 628
f 629 631 632
f 629 632 630
f 633 635 639
f 633 639 637
f 634 638 640
f 634 640 636
f 637 639 640
f 637 640 638
f 641 643 647
f 641 647 645
f 642 646 648
f 642 648 644
f 645 647 648
f 645 648 646
f 649 651 655
f 649 655 653
f 650 654 656
f 650 656 652
f 653 655 656
f 653 656 654
f 657 659 663
f 657 663 661
f 658 662 664
f 658 664 660
f 661 663 664
f 661 664 662
f 665 667 671
f 665 671 669
f 666 670 672
f 666 672 668
f 669 671 672
f 669 672 670
f 673 675 679
f 673 679 677
f 674 678 680
f 674 680 676
f 677 679 680
f 677 680 678
f 681 683 687
f 681 687 685
f 682 686 688
f 682 688 684
f 685 687 688
f 685 688 686
f 689 691 695
f 689 695 693
f 690 694 696
f 690 696 692
f 693 695 696
f 693 696 694
f 697 699 703
f 697 703 701
f 698 702 704
f 698 704 700
f 701 703 704
f 701 704 702
f 705 707 711
f 705 711 709
f 706 710 712
f 706 712 708
f 709 711 712
f 709 712 710
f 713 715 719
f 713 719 717
f 714 718 720
f 714 720 716
f 717 719 720
f 717 720 718
f 721 723 727
f 721 727 725
f 722 726 728
f 722 728 724
f 725 727 728
f 725 728 726
f 729 731 735
f 729 735 733
f 730 734 736
f 730 736 732
f 733 735 736
f 733 736 734
f 737 739 743
f 737 743 741
f 738 742 744
f 738 744 740
f 741 743 744
f 741 744 742
f 745 747 751
f 745 751 749
f 746 750 752
f 746 752 748
f 749 751 752
f 749 752 750
f 753 755 759
f 753 759 757
f 754 758 760
f 754 760 756
f 757 759 760
f 757 760 758
f 761 763 767
f 761 767 765
f 762 766 768
f 762 768 764
f 765 767 768
f 765 768 766
f 769 771 775
f 769 775 773
f 770 774 776
f 770 776 772
f 773 775 776
f 773 776 774
f 777 779 783
f 777 783 781
f 778 782 784
f 778 784 780
f 781 783 784
f 781 784 782
f 785 787 791
f 785 791 789
f 786 790 792
f 786 792 788
f 789 791 792
f 789 792 790
f 793 795 799
f 793 799 797
f 794 798 800
f 794 800 796
f 797 799 800
f 797 800 798
f 801 803 807
f 801 807 805
f 802 806 808
f 802 808 804
f 805 807 808
f 805 808 806
f 809 811 815
f 809 815 813
f 810 814 816
f 810 816 812
f 813 815 816
f 813 816 814
f 817 819 823
f 817 823 821
f 818 822 824
f 818 824 820
f 821 823 824
f 821 824 822
f 825 827 831
f 825 831 829
f 826 830 832
f 826 832 828
f 829 831 832
f 829 832 830
f 833 835 839
f 833 839 837
f 834 838 840
f 834 840 836
f 837 839 840
f 837 840 838
f 841 843 847
f 841 847 845
f 842 846 848
f 842 848 844
f 845 847 848
f 845 848 846
f 849 851 855
f 849 855 853
f 850 854 856
f 850 856 852
f 853 855 856
f 853 856 854
f 857 859 863
f 857 863 861
f 858 862 864
f 858 864 860
f 861 863 864
f 861 864 862
f 865 867 871
f 865 871 869
f 866 870 872
f 866 872 868
f 869 871 872
f 869 872 870
f 873 875 879
f 873 879 877
f 874 878 880
f 874 880 876
f 877 879 880
f 877 880 878
f 881 883 887
f 881 887 885
f 882 886 888
f 882 888 884
f 885 887 888
f 885 888 886
f 889 891 895
f 889 895 893
f 890 894 896
f 890 896 892
f 893 895 896
f 893 896 894
f 897 899 903
f 897 903 901
f 898 902 904
f 898 904 900
f 901 903 904
f 901 904 902
f 905 907 911
f 905 911 909
f 906 910 912
f 906 912 908
f 909 911 912
f 909 912 910
f 913 915 919
f 913 919 917
f 914 918 920
f 914 920 916
f 917 919 920
f 917 920 918
f 921 923 927
f 921 927 925
f 922 926 928
f 922 928 924
f 925 927 928
f 925 928 926
f 929 931 935
f 929 935 933
f 930 934 936
f 930 936 932
f 933 935 936
f 933 936 934
f 937 939 943
f 937 943 941
f 938 942 944
f 938 944 940
f 941 943 944
f 941 944 942
f 945 947 951
f 945 951 949
f 946 950 952
f 946 952 948
f 949 951 952
f 949 952 950
f 953 955 959
f 953 959 957
f 954 958 960
f 954 960 956
f 957 959 960
f 957 960 958
f 961 963 967
f 961 967 965
f 962 966 968
f 962 968 964
f 965 967 968
f 965 968 966
f 969 971 975
f 969 975 973
f 970 974 976
f 970 976 972
f 973 975 976
f 973 976 974
f 977 979 983
f 977 983 981
f 978 982 984
f 978 984 980
f 981 983 984
f 981 984 982
f 985 987 991
f 985 991 989
f 986 990 992
f 986 992 988
f 989 991 992
f 989 992 990
f 993 995 999
f 993 999 997
f 994 998 1000
f 994 1000 996
f 997 999 1000
f 997 1000 998
f 1001 1003 1007
f 1001 1007 1005
f 1002 1006 1008
f 1002 1008 1004
f 1005 1007 1008
f 1005 1008 1006
f 1009 1011 1015
f 1009 1015 1013
f 1010 1014 1016
f 1010 1016 1012
f 1013 1015 1016
f 1013 1016 1014
f 1017 1019 1023
f 1017 1023 1021
f 1018 1022 1024
f 1018 1024 1020
f 1021 1023 1024
f 1021 1024 1022
f 1025 1027 1031
f 1025 1031 1029
f 1026 1030 1032
f 1026 1032 1028
f 1029 1031 1032
f 1029 1032 1030
f 1033 1035 1039
f 1033 1039 1037
f 1034 1038 1040
f 1034 1040 1036
f 1037 1039 1040
f 1037 1040 1038
f 1041 1043 1047
f 1041 1047 1045
f 1042 1046 1048
f 1042 1048 1044
f 1045 1047 1048
f 1045 1048 1046
f 1049 1051 1055
f 1049 1055 1053
f 1050 1054 1056
f 1050 1056 1052
f 1053 1055 1056
f 1053 1056 1054
f 1057 1059 1063
f 1057 1063 1061
f 1058 1062 1064
f 1058 1064 1060
f 1061 1063 1064
f 1061 1064 1062
f 1065 1067 1071
f 1065 1071 1069
f 1066 1070 1072
f 1066 1072 1068
f 1069 1071 1072
f 1069 1072 1070
f 1073 1075 1079
f 1073 1079 1077
f 1074 1078 1080
f 1074 1080 1076
f 1077 1079 1080
f 1077 1080 1078
f 1081 1083 1087
f 1081 1087 1085
f 1082 1086 1088
f 1082 1088 1084
f 1085 1087 1088
f 1085 1088 1086
f 1089 1091 1095
f 1089 1095 1093
f 1090 1094 1096
f 1090 1096 1092
f 1093 1095 1096
f 1093 1096 1094
f 1097 1099 1103
f 1097 1103 1101
f 1098 1102 1104
f 1098 1104 1100
f 1101 1103 1104
f 1101 1104 1102
f 1105 1107 1111
f 1105 1111 1109
f 1106 1110 1112
f 1106 1112 1108
f 1109 1111 1112
f 1109 1112 1110
f 1113 1115 1119
f 1113 1119 1117
f 1114 1118 1120
f 1114 1120 1116
f 1117 1119 1120
f 1117 1120 1118
f 1121 1123 1127
f 1121 1127 1125
f 1122 1126 1128
f 1122 1128 1124
f 1125 1127 1128
f 1125 1128 1126
f 1129 1131 1135
f 1129 1135 1133
f 1130 1134 1136
f 1130 1136 1132
f 1133 1135 1136
f 1133 1136 1134
f 1137 1139 1143
f 1137 1143 1141
f 1138 1142 1144
f 1138 1144 1140
f 1141 1143 1144
f 1141 1144 1142
f 1145 1147 1151
f 1145 1151 1149
f 1146 1150 1152
f 1146 1152 1148
f 1149 1151 1152
f 1149 1152 1150
f 1153 1155 1159
f 1153 1159 1157
f 1154 1158 1160
f 1154 1160 1156
f 1157 1159 1160
f 1157 1160 1158
f 1161 1163 1167
f 1161 1167 1165
f 1162 1166 1168
f 1162 1168 1164
f 1165 1167 1168
f 1165 1168 1166
f 1169 1171 1175
f 1169 1175 1173
f 1170 1174 1176
f 1170 1176 1172
f 1173 1175 1176
f 1173 1176 1174
f 1177 1179 1183
f 1177 1183 1181
f 1178 1182 1184
f 1178 1184 1180
f 1181 1183 1184
f 1181 1184 1182
f 1185 1187 1191
f 1185 1191 1189
f 1186 1190 1192
f 1186 1192 1188
f 1189 1191 1192
f 1189 1192 1190
f 1193 1195 1199
f 1193 1199 1197
f 1194 1198 1200
f 1194 1200 1196
f 1197 1199 1200
f 1197 1200 1198
f 1201 1203 1207
f 1201 1207 1205
f 1202 1206 1208
f 1202 1208 1204
f 1205 1207 1208
f 1205 1208 1206
f 1209 1211 1215
f 1209 1215 1213
f 1210 1214 1216
f 1210 1216 1212
f 1213 1215 1216
f 1213 1216 1214
f 1217 1219 1223
f 1217 1223 1221
f 1218 1222 1224
f 1218 1224 1220
f 1221 1223 1224
f 1221 1224 1222
f 1225 1227 1231
f 1225 1231 1229
f 1226 1230 1232
f 1226 1232 1228
f 1229 1231 1232
f 1229 1232 1230
f 1233 1235 1239
f 1233 1239 1237
f 1234 1238 1240
f 1234 1240 1236
f 1237 1239 1240
f 1237 1240 1238
f 1241 1243 1247
f 1241 1247 1245
f 1242 1246 1248
f 1242 1248 1244
f 1245 1247 1248
f 1245 1248 1246
f 1249 1251 1255
f 1249 1255 1253
f 1250 1254 1256
f 1250 1256 1252
f 1253 1255 1256
f 1253 1256 1254
f 1257 1259 1263
f 1257 1263 1261
f 1258 1262 1264
f 1258 1264 1260
f 1261 1263 1264
f 1261 1264 1262
f 1265 1267 1271
f 1265 1271 1269
f 1266 1270 1272
f 1266 1272 1268
f 1269 1271 1272
f 1269 1272 1270
f 1273 1275 1279
f 1273 1279 1277
f 1274 1278 1280
f 1274 1280 1276
f 1277 1279 1280
f 1277 1280 1278
f 1281 1283 1287
f 1281 1287 1285
f 1282 1286 1288
f 1282 1288 1284
f 1285 1287 1288
f 1285 1288 1286
f 1289 1291 1295
f 1289 1295 1293
f 1290 1294 1296
f 1290 1296 1292
f 1293 1295 1296
f 1293 1296 1294
f 1297 1299 1303
f 1297 1303 1301
f 1298 1302 1304
f 1298 1304 1300
f 1301 1303 1304
f 1301 1304 1302
f 1305 1307 1311
f 1305 1311 1309
f 1306 1310 1312
f 1306 1312 1308
f 1309 1311 1312
f 1309 1312 1310
f 1313 1315 1319
f 1313 1319 1317
f 1314 1318 1320
f 1314 1320 1316
f 1317 1319 1320
f 1317 1320 1318
f 1321 1323 1327
f 1321 1327 1325
f 1322 1326 1328
f 1322 1328 1324
f 1325 1327 1328
f 1325 1328 1326
f 1329 1331 1335
f 1329 1335 1333
f 1330 1334 1336
f 1330 1336 1332
f 1333 1335 1336
f 1333 1336 1334
f 1337 1339 1343
f 1337 1343 1341
f 1338 1342 1344
f 1338 1344 1340
f 1341 1343 1344
f 1341 1344 1342
f 1345 1347 1351
f 1345 1351 1349
f 1346 1350 1352
f 1346 1352 1348
f 1349 1351 1352
f 1349 1352 1350
f 1353 1355 1359
f 1353 1359 1357
f 1354 1358 1360
f 1354 1360 1356
f 1357 1359 1360
f 1357 1360 1358
f 1361 1363 1367
f 1361 1367 1365
f 1362 1366 1368
f 1362 1368 1364
f 1365 1367 1368
f 1365 1368 1366
f 1369 1371 1375
f 1369 1375 1373
f 1370 1374 1376
f 1370 1376 1372
f 1373 1375 1376
f 1373 1376 1374
f 1377 1379 1383
f 1377 1383 1381
f 1378 1382 1384
f 1378 1384 1380
f 1381 1383 1384
f 1381 1384 1382
f 1385 1387 1391
f 1385 1391 1389
f 1386 1390 1392
f 1386 1392 1388
f 1389 1391 1392
f 1389 1392 1390
f 1393 1395 1399
f 1393 1399 1397
f 1394 1398 1400
f 1394 1400 1396
f 1397 1399 1400
f 1397 1400 1398
f 1401 1403 1407
f 1401 1407 1405
f 1402 1406 1408
f 1402 1408 1404
f 1405 1407 1408
f 1405 1408 1406
f 1409 1411 1415
f 1409 1415 1413
f 1410 1414 1416
f 1410 1416 1412
f 1413 1415 1416
f 1413 1416 1414
f 1417 1419 1423
f 1417 1423 1421
f 1418 1422 1424
f 1418 1424 1420
f 1421 1423 1424
f 1421 1424 1422
f 1425 1427 1431
f 1425 1431 1429
f 1426 1430 1432
f 1426 1432 1428
f 1429 1431 1432
f 1429 1432 1430
f 1433 1435 1439
f 1433 1439 1437
f 1434 1438 1440
f 1434 1440 1436
f 1437 1439 1440
f 1437 1440 1438
f 1441 1443 1447
f 1441 1447 1445
f 1442 1446 1448
f 1442 1448 1444
f 1445 1447 1448
f 1445 1448 1446
f 1449 1451 1455
f 1449 1455 1453
f 1450 1454 1456
f 1450 1456 1452
f 1453 1455 1456
f 1453 1456 1454
f 1457 1459 1463
f 1457 1463 1461
f 1458 1462 1464
f 1458 1464 1460
f 1461 1463 1464
f 1461 1464 1462
f 1465 1467 1471
f 1465 1471 1469
f 1466 1470 1472
f 1466 1472 1468
f 1469 1471 1472
f 1469 1472 1470
f 1473 1475 1479
f 1473 1479 1477
f 1474 1478 1480
f 1474 1480 1476
f 1477 1479 1480
f 1477 1480 1478
f 1481 1483 1487
f 1481 1487 1485
f 1482 1486 1488
f 1482 1488 1484
f 1485 1487 1488
f 1485 1488 1486
f 1489 1491 1495
f 1489 1495 1493
f 1490 1494 1496
f 1490 1496 1492
f 1493 1495 1496
f 1493 1496 1494
f 1497 1499 1503
f 1497 1503 1501
f 1498 1502 1504
f 1498 1504 1500
f 1501 1503 1504
f 1501 1504 1502
f 1505 1507 1511
f 1505 1511 1509
f 1506 1510 1512
f 1506 1512 1508
f 1509 1511 1512
f 1509 1512 1510
f 1513 1515 1519
f 1513 1519 1517
f 1514 1518 1520
f 1514 1520 1516
f 1517 1519 1520
f 1517 1520 1518
f 1521 1523 1527
f 1521 1527 1525
f 1522 1526 1528
f 1522 1528 1524
f 1525 1527 1528
f 1525 1528 1526
f 1529 1531 1535
f 1529 1535 1533
f 1530 1534 1536
f 1530 1536 1532
f 1533 1535 1536
f 1533 1536 1534
