# AiCar meshgen
# verts=880 faces=660
# map=porto visual
v 5.768080 0.000000 0.256027
v 5.881922 0.000000 0.293975
v 5.218080 0.000000 1.906027
v 5.331922 0.000000 1.943975
v 5.768080 0.350000 0.256027
v 5.881922 0.350000 0.293975
v 5.218080 0.350000 1.906027
v 5.331922 0.350000 1.943975
v 5.237519 0.000000 1.878149
v 5.312483 0.000000 1.971853
v 4.737519 0.000000 2.278149
v 4.812483 0.000000 2.371853
v 5.237519 0.350000 1.878149
v 5.312483 0.350000 1.971853
v 4.737519 0.350000 2.278149
v 4.812483 0.350000 2.371853
v 4.758518 0.000000 2.267310
v 4.791484 0.000000 2.382692
v 4.058518 0.000000 2.467310
v 4.091484 0.000000 2.582692
v 4.758518 0.350000 2.267310
v 4.791484 0.350000 2.382692
v 4.058518 0.350000 2.467310
v 4.091484 0.350000 2.582692
v 4.073127 0.000000 2.465030
v 4.076875 0.000000 2.584972
v 2.473127 0.000000 2.515030
v 2.476875 0.000000 2.634972
v 4.073127 0.350000 2.465030
v 4.076875 0.350000 2.584972
v 2.473127 0.350000 2.515030
v 2.476875 0.350000 2.634972
v 2.465643 0.000000 2.515735
v 2.484359 0.000000 2.634267
v 1.515643 0.000000 2.665735
v 1.534359 0.000000 2.784267
v 2.465643 0.350000 2.515735
v 2.484359 0.350000 2.634267
v 1.515643 0.350000 2.665735
v 1.534359 0.350000 2.784267
v 1.491719 0.000000 2.675078
v 1.558283 0.000000 2.774924
v 1.191719 0.000000 2.875078
v 1.258283 0.000000 2.974924
v 1.491719 0.350000 2.675078
v 1.558283 0.350000 2.774924
v 1.191719 0.350000 2.875078
v 1.258283 0.350000 2.974924
v 1.267427 0.000000 2.967427
v 1.182575 0.000000 2.882575
v 1.367427 0.000000 2.867427
v 1.282575 0.000000 2.782575
v 1.267427 0.350000 2.967427
v 1.182575 0.350000 2.882575
v 1.367427 0.350000 2.867427
v 1.282575 0.350000 2.782575
v 1.361001 0.000000 2.777001
v 1.289001 0.000000 2.873001
v 1.161001 0.000000 2.627001
v 1.089001 0.000000 2.723001
v 1.361001 0.350000 2.777001
v 1.289001 0.350000 2.873001
v 1.161001 0.350000 2.627001
v 1.089001 0.350000 2.723001
v 1.125001 0.000000 2.615001
v 1.125001 0.000000 2.735001
v -1.974999 0.000000 2.615001
v -1.974999 0.000000 2.735001
v 1.125001 0.350000 2.615001
v 1.125001 0.350000 2.735001
v -1.974999 0.350000 2.615001
v -1.974999 0.350000 2.735001
v -1.960447 0.000000 2.616792
v -1.989551 0.000000 2.733210
v -2.360447 0.000000 2.516792
v -2.389551 0.000000 2.633210
v -1.960447 0.350000 2.616792
v -1.989551 0.350000 2.733210
v -2.360447 0.350000 2.516792
v -2.389551 0.350000 2.633210
v -2.379543 0.000000 2.515173
v -2.370455 0.000000 2.634829
v -6.329543 0.000000 2.815173
v -6.320455 0.000000 2.934829
v -2.379543 0.350000 2.515173
v -2.370455 0.350000 2.634829
v -6.329543 0.350000 2.815173
v -6.320455 0.350000 2.934829
v -6.323695 0.000000 2.815015
v -6.326303 0.000000 2.934987
v -8.623695 0.000000 2.765015
v -8.626303 0.000000 2.884987
v -6.323695 0.350000 2.815015
v -6.326303 0.350000 2.934987
v -8.623695 0.350000 2.765015
v -8.626303 0.350000 2.884987
v -8.564999 0.000000 2.825001
v -8.684999 0.000000 2.825001
v -8.564999 0.000000 2.675001
v -8.684999 0.000000 2.675001
v -8.564999 0.350000 2.825001
v -8.684999 0.350000 2.825001
v -8.564999 0.350000 2.675001
v -8.684999 0.350000 2.675001
v -8.588999 0.000000 2.627001
v -8.660999 0.000000 2.723001
v -9.188999 0.000000 2.177001
v -9.260999 0.000000 2.273001
v -8.588999 0.350000 2.627001
v -8.660999 0.350000 2.723001
v -9.188999 0.350000 2.177001
v -9.260999 0.350000 2.273001
v -9.258281 0.000000 2.175078
v -9.191717 0.000000 2.274924
v -9.408281 0.000000 2.275078
v -9.341717 0.000000 2.374924
v -9.258281 0.350000 2.175078
v -9.191717 0.350000 2.274924
v -9.408281 0.350000 2.275078
v -9.341717 0.350000 2.374924
v -9.434999 0.000000 2.325001
v -9.314999 0.000000 2.325001
v -9.434999 0.000000 2.475001
v -9.314999 0.000000 2.475001
v -9.434999 0.350000 2.325001
v -9.314999 0.350000 2.325001
v -9.434999 0.350000 2.475001
v -9.314999 0.350000 2.475001
v -9.417425 0.000000 2.517427
v -9.332573 0.000000 2.432575
v -9.067425 0.000000 2.867427
v -8.982573 0.000000 2.782575
v -9.417425 0.350000 2.517427
v -9.332573 0.350000 2.432575
v -9.067425 0.350000 2.867427
v -8.982573 0.350000 2.782575
v -8.990125 0.000000 2.776177
v -9.059873 0.000000 2.873825
v -9.340125 0.000000 2.526177
v -9.409873 0.000000 2.623825
v -8.990125 0.350000 2.776177
v -9.059873 0.350000 2.873825
v -9.340125 0.350000 2.526177
v -9.409873 0.350000 2.623825
v -9.315206 0.000000 2.570018
v -9.434792 0.000000 2.579984
v -9.365206 0.000000 1.970018
v -9.484792 0.000000 1.979984
v -9.315206 0.350000 2.570018
v -9.434792 0.350000 2.579984
v -9.365206 0.350000 1.970018
v -9.484792 0.350000 1.979984
v -9.370248 0.000000 1.950458
v -9.479750 0.000000 1.999544
v -10.020248 0.000000 0.500458
v -10.129750 0.000000 0.549544
v -9.370248 0.350000 1.950458
v -9.479750 0.350000 1.999544
v -10.020248 0.350000 0.500458
v -10.129750 0.350000 0.549544
v -10.014999 0.000000 0.525001
v -10.134999 0.000000 0.525001
v -10.014999 0.000000 -0.024999
v -10.134999 0.000000 -0.024999
v -10.014999 0.350000 0.525001
v -10.134999 0.350000 0.525001
v -10.014999 0.350000 -0.024999
v -10.134999 0.350000 -0.024999
v -10.018611 0.000000 -0.004494
v -10.131387 0.000000 -0.045504
v -9.418611 0.000000 -1.654494
v -9.531387 0.000000 -1.695504
v -10.018611 0.350000 -0.004494
v -10.131387 0.350000 -0.045504
v -9.418611 0.350000 -1.654494
v -9.531387 0.350000 -1.695504
v -9.451143 0.000000 -1.619946
v -9.498855 0.000000 -1.730052
v -7.951143 0.000000 -2.269946
v -7.998855 0.000000 -2.380052
v -9.451143 0.350000 -1.619946
v -9.498855 0.350000 -1.730052
v -7.951143 0.350000 -2.269946
v -7.998855 0.350000 -2.380052
v -7.971671 0.000000 -2.265091
v -7.978327 0.000000 -2.384907
v -7.071671 0.000000 -2.315091
v -7.078327 0.000000 -2.434907
v -7.971671 0.350000 -2.265091
v -7.978327 0.350000 -2.384907
v -7.071671 0.350000 -2.315091
v -7.078327 0.350000 -2.434907
v -7.083197 0.000000 -2.315562
v -7.066801 0.000000 -2.434436
v -5.633197 0.000000 -2.115562
v -5.616801 0.000000 -2.234436
v -7.083197 0.350000 -2.315562
v -7.066801 0.350000 -2.434436
v -5.633197 0.350000 -2.115562
v -5.616801 0.350000 -2.234436
v -5.646216 0.000000 -2.118876
v -5.603782 0.000000 -2.231122
v -1.546216 0.000000 -0.568876
v -1.503782 0.000000 -0.681122
v -5.646216 0.350000 -2.118876
v -5.603782 0.350000 -2.231122
v -1.546216 0.350000 -0.568876
v -1.503782 0.350000 -0.681122
v -1.513232 0.000000 -0.566164
v -1.536766 0.000000 -0.683834
v -1.013232 0.000000 -0.666164
v -1.036766 0.000000 -0.783834
v -1.513232 0.350000 -0.566164
v -1.536766 0.350000 -0.683834
v -1.013232 0.350000 -0.666164
v -1.036766 0.350000 -0.783834
v -0.998166 0.000000 -0.671333
v -1.051832 0.000000 -0.778665
v -0.398166 0.000000 -0.971333
v -0.451832 0.000000 -1.078665
v -0.998166 0.350000 -0.671333
v -1.051832 0.350000 -0.778665
v -0.398166 0.350000 -0.971333
v -0.451832 0.350000 -1.078665
v -0.392348 0.000000 -0.974661
v -0.457650 0.000000 -1.075337
v 1.457652 0.000000 -2.174661
v 1.392350 0.000000 -2.275337
v -0.392348 0.350000 -0.974661
v -0.457650 0.350000 -1.075337
v 1.457652 0.350000 -2.174661
v 1.392350 0.350000 -2.275337
v 1.477096 0.000000 -2.195231
v 1.372906 0.000000 -2.254767
v 1.677096 0.000000 -2.545231
v 1.572906 0.000000 -2.604767
v 1.477096 0.350000 -2.195231
v 1.372906 0.350000 -2.254767
v 1.677096 0.350000 -2.545231
v 1.572906 0.350000 -2.604767
v 1.643975 0.000000 -2.518078
v 1.606027 0.000000 -2.631920
v 2.093975 0.000000 -2.668078
v 2.056027 0.000000 -2.781920
v 1.643975 0.350000 -2.518078
v 1.606027 0.350000 -2.631920
v 2.093975 0.350000 -2.668078
v 2.056027 0.350000 -2.781920
v 2.018080 0.000000 -2.706025
v 2.131922 0.000000 -2.743973
v 2.068080 0.000000 -2.556025
v 2.181922 0.000000 -2.593973
v 2.018080 0.350000 -2.706025
v 2.131922 0.350000 -2.743973
v 2.068080 0.350000 -2.556025
v 2.181922 0.350000 -2.593973
v 2.128329 0.000000 -2.515091
v 2.121673 0.000000 -2.634907
v 3.028329 0.000000 -2.565091
v 3.021673 0.000000 -2.684907
v 2.128329 0.350000 -2.515091
v 2.121673 0.350000 -2.634907
v 3.028329 0.350000 -2.565091
v 3.021673 0.350000 -2.684907
v 3.015878 0.000000 -2.565697
v 3.034124 0.000000 -2.684301
v 3.665878 0.000000 -2.465697
v 3.684124 0.000000 -2.584301
v 3.015878 0.350000 -2.565697
v 3.034124 0.350000 -2.684301
v 3.665878 0.350000 -2.465697
v 3.684124 0.350000 -2.584301
v 3.648168 0.000000 -2.471333
v 3.701834 0.000000 -2.578665
v 4.448168 0.000000 -2.071333
v 4.501834 0.000000 -2.178665
v 3.648168 0.350000 -2.471333
v 3.701834 0.350000 -2.578665
v 4.448168 0.350000 -2.071333
v 4.501834 0.350000 -2.178665
v 4.427444 0.000000 -2.088416
v 4.522558 0.000000 -2.161582
v 5.427444 0.000000 -0.788416
v 5.522558 0.000000 -0.861582
v 4.427444 0.350000 -2.088416
v 4.522558 0.350000 -2.161582
v 5.427444 0.350000 -0.788416
v 5.522558 0.350000 -0.861582
v 5.417825 0.000000 -0.806807
v 5.532177 0.000000 -0.843191
v 5.767825 0.000000 0.293193
v 5.882177 0.000000 0.256809
v 5.417825 0.350000 -0.806807
v 5.532177 0.350000 -0.843191
v 5.767825 0.350000 0.293193
v 5.882177 0.350000 0.256809
v -10.080052 0.000000 0.548857
v -9.969946 0.000000 0.501145
v -9.430052 0.000000 2.048857
v -9.319946 0.000000 2.001145
v -10.080052 0.350000 0.548857
v -9.969946 0.350000 0.501145
v -9.430052 0.350000 2.048857
v -9.319946 0.350000 2.001145
v -9.414509 0.000000 2.070156
v -9.335489 0.000000 1.979846
v -9.014509 0.000000 2.420156
v -8.935489 0.000000 2.329846
v -9.414509 0.350000 2.070156
v -9.335489 0.350000 1.979846
v -9.014509 0.350000 2.420156
v -8.935489 0.350000 2.329846
v -8.997282 0.000000 2.430710
v -8.952716 0.000000 2.319292
v -8.247282 0.000000 2.730710
v -8.202716 0.000000 2.619292
v -8.997282 0.350000 2.430710
v -8.952716 0.350000 2.319292
v -8.247282 0.350000 2.730710
v -8.202716 0.350000 2.619292
v -8.226998 0.000000 2.734968
v -8.223000 0.000000 2.615034
v -5.226998 0.000000 2.834968
v -5.223000 0.000000 2.715034
v -8.226998 0.350000 2.734968
v -8.223000 0.350000 2.615034
v -5.226998 0.350000 2.834968
v -5.223000 0.350000 2.715034
v -5.218515 0.000000 2.834650
v -5.231483 0.000000 2.715352
v -2.918515 0.000000 2.584650
v -2.931483 0.000000 2.465352
v -5.218515 0.350000 2.834650
v -5.231483 0.350000 2.715352
v -2.918515 0.350000 2.584650
v -2.931483 0.350000 2.465352
v -2.926893 0.000000 2.584971
v -2.923105 0.000000 2.465031
v 1.823107 0.000000 2.734971
v 1.826895 0.000000 2.615031
v -2.926893 0.350000 2.584971
v -2.923105 0.350000 2.465031
v 1.823107 0.350000 2.734971
v 1.826895 0.350000 2.615031
v 1.831485 0.000000 2.734650
v 1.818517 0.000000 2.615352
v 4.131485 0.000000 2.484650
v 4.118517 0.000000 2.365352
v 1.831485 0.350000 2.734650
v 1.818517 0.350000 2.615352
v 4.131485 0.350000 2.484650
v 4.118517 0.350000 2.365352
v 4.147846 0.000000 2.480482
v 4.102156 0.000000 2.369520
v 4.997846 0.000000 2.130482
v 4.952156 0.000000 2.019520
v 4.147846 0.350000 2.480482
v 4.102156 0.350000 2.369520
v 4.997846 0.350000 2.130482
v 4.952156 0.350000 2.019520
v 5.025375 0.000000 2.107596
v 4.924627 0.000000 2.042406
v 5.575375 0.000000 1.257596
v 5.474627 0.000000 1.192406
v 5.025375 0.350000 2.107596
v 4.924627 0.350000 2.042406
v 5.575375 0.350000 1.257596
v 5.474627 0.350000 1.192406
v 5.584033 0.000000 1.235734
v 5.465969 0.000000 1.214268
v 5.784033 0.000000 0.135734
v 5.665969 0.000000 0.114268
v 5.584033 0.350000 1.235734
v 5.465969 0.350000 1.214268
v 5.784033 0.350000 0.135734
v 5.665969 0.350000 0.114268
v 5.782270 0.000000 0.107105
v 5.667732 0.000000 0.142897
v 5.532270 0.000000 -0.692895
v 5.417732 0.000000 -0.657103
v 5.782270 0.350000 0.107105
v 5.667732 0.350000 0.142897
v 5.532270 0.350000 -0.692895
v 5.417732 0.350000 -0.657103
v 5.522802 0.000000 -0.711262
v 5.427200 0.000000 -0.638736
v 4.422802 0.000000 -2.161262
v 4.327200 0.000000 -2.088736
v 5.522802 0.350000 -0.711262
v 5.427200 0.350000 -0.638736
v 4.422802 0.350000 -2.161262
v 4.327200 0.350000 -2.088736
v 4.403447 0.000000 -2.177827
v 4.346555 0.000000 -2.072171
v 3.753447 0.000000 -2.527827
v 3.696555 0.000000 -2.422171
v 4.403447 0.350000 -2.177827
v 4.346555 0.350000 -2.072171
v 3.753447 0.350000 -2.527827
v 3.696555 0.350000 -2.422171
v 3.733486 0.000000 -2.534396
v 3.716516 0.000000 -2.415602
v 2.683486 0.000000 -2.684396
v 2.666516 0.000000 -2.565602
v 3.733486 0.350000 -2.534396
v 3.716516 0.350000 -2.415602
v 2.683486 0.350000 -2.684396
v 2.666516 0.350000 -2.565602
v 2.671673 0.000000 -2.684907
v 2.678329 0.000000 -2.565091
v 1.771673 0.000000 -2.634907
v 1.778329 0.000000 -2.515091
v 2.671673 0.350000 -2.684907
v 2.678329 0.350000 -2.565091
v 1.771673 0.350000 -2.634907
v 1.778329 0.350000 -2.515091
v 1.732575 0.000000 -2.617425
v 1.817427 0.000000 -2.532573
v 1.282575 0.000000 -2.167425
v 1.367427 0.000000 -2.082573
v 1.732575 0.350000 -2.617425
v 1.817427 0.350000 -2.532573
v 1.282575 0.350000 -2.167425
v 1.367427 0.350000 -2.082573
v 1.291201 0.000000 -2.174573
v 1.358801 0.000000 -2.075425
v 0.191201 0.000000 -1.424573
v 0.258801 0.000000 -1.325425
v 1.291201 0.350000 -2.174573
v 1.358801 0.350000 -2.075425
v 0.191201 0.350000 -1.424573
v 0.258801 0.350000 -1.325425
v 0.197436 0.000000 -1.428292
v 0.252566 0.000000 -1.321706
v -1.252564 0.000000 -0.678292
v -1.197434 0.000000 -0.571706
v 0.197436 0.350000 -1.428292
v 0.252566 0.350000 -1.321706
v -1.252564 0.350000 -0.678292
v -1.197434 0.350000 -0.571706
v -1.224999 0.000000 -0.684999
v -1.224999 0.000000 -0.564999
v -1.724999 0.000000 -0.684999
v -1.724999 0.000000 -0.564999
v -1.224999 0.350000 -0.684999
v -1.224999 0.350000 -0.564999
v -1.724999 0.350000 -0.684999
v -1.724999 0.350000 -0.564999
v -1.706025 0.000000 -0.681920
v -1.743973 0.000000 -0.568078
v -2.906025 0.000000 -1.081920
v -2.943973 0.000000 -0.968078
v -1.706025 0.350000 -0.681920
v -1.743973 0.350000 -0.568078
v -2.906025 0.350000 -1.081920
v -2.943973 0.350000 -0.968078
v -2.899626 0.000000 -1.079370
v -2.950372 0.000000 -0.970628
v -4.399626 0.000000 -1.779370
v -4.450372 0.000000 -1.670628
v -2.899626 0.350000 -1.079370
v -2.950372 0.350000 -0.970628
v -4.399626 0.350000 -1.779370
v -4.450372 0.350000 -1.670628
v -4.406025 0.000000 -1.781920
v -4.443973 0.000000 -1.668078
v -5.756025 0.000000 -2.231920
v -5.793973 0.000000 -2.118078
v -4.406025 0.350000 -1.781920
v -4.443973 0.350000 -1.668078
v -5.756025 0.350000 -2.231920
v -5.793973 0.350000 -2.118078
v -5.770512 0.000000 -2.234831
v -5.779486 0.000000 -2.115167
v -7.770512 0.000000 -2.384831
v -7.779486 0.000000 -2.265167
v -5.770512 0.350000 -2.234831
v -5.779486 0.350000 -2.115167
v -7.770512 0.350000 -2.384831
v -7.779486 0.350000 -2.265167
v -7.794626 0.000000 -2.381698
v -7.755372 0.000000 -2.268300
v -9.094626 0.000000 -1.931698
v -9.055372 0.000000 -1.818300
v -7.794626 0.350000 -2.381698
v -7.755372 0.350000 -2.268300
v -9.094626 0.350000 -1.931698
v -9.055372 0.350000 -1.818300
v -9.115137 0.000000 -1.919597
v -9.034861 0.000000 -1.830401
v -9.615137 0.000000 -1.469597
v -9.534861 0.000000 -1.380401
v -9.115137 0.350000 -1.919597
v -9.034861 0.350000 -1.830401
v -9.615137 0.350000 -1.469597
v -9.534861 0.350000 -1.380401
v -9.633834 0.000000 -1.436766
v -9.516164 0.000000 -1.413232
v -9.783834 0.000000 -0.686766
v -9.666164 0.000000 -0.663232
v -9.633834 0.350000 -1.436766
v -9.516164 0.350000 -1.413232
v -9.783834 0.350000 -0.686766
v -9.666164 0.350000 -0.663232
v -9.778665 0.000000 -0.701832
v -9.671333 0.000000 -0.648166
v -10.078665 0.000000 -0.101832
v -9.971333 0.000000 -0.048166
v -9.778665 0.350000 -0.701832
v -9.671333 0.350000 -0.648166
v -10.078665 0.350000 -0.101832
v -9.971333 0.350000 -0.048166
v -10.084999 0.000000 -0.074999
v -9.964999 0.000000 -0.074999
v -10.084999 0.000000 0.525001
v -9.964999 0.000000 0.525001
v -10.084999 0.350000 -0.074999
v -9.964999 0.350000 -0.074999
v -10.084999 0.350000 0.525001
v -9.964999 0.350000 0.525001
v -7.465206 0.000000 0.629984
v -7.584792 0.000000 0.620018
v -7.415206 0.000000 0.029984
v -7.534792 0.000000 0.020018
v -7.465206 0.350000 0.629984
v -7.584792 0.350000 0.620018
v -7.415206 0.350000 0.029984
v -7.534792 0.350000 0.020018
v -7.434639 0.000000 0.069397
v -7.515359 0.000000 -0.019395
v -6.884639 0.000000 -0.430603
v -6.965359 0.000000 -0.519395
v -7.434639 0.350000 0.069397
v -7.515359 0.350000 -0.019395
v -6.884639 0.350000 -0.430603
v -6.965359 0.350000 -0.519395
v -6.911983 0.000000 -0.416428
v -6.938015 0.000000 -0.533570
v -6.461983 0.000000 -0.516428
v -6.488015 0.000000 -0.633570
v -6.911983 0.350000 -0.416428
v -6.938015 0.350000 -0.533570
v -6.461983 0.350000 -0.516428
v -6.488015 0.350000 -0.633570
v -6.480969 0.000000 -0.515297
v -6.469029 0.000000 -0.634701
v -4.980969 0.000000 -0.365297
v -4.969029 0.000000 -0.484701
v -6.480969 0.350000 -0.515297
v -6.469029 0.350000 -0.634701
v -4.980969 0.350000 -0.365297
v -4.969029 0.350000 -0.484701
v -4.999367 0.000000 -0.370170
v -4.950631 0.000000 -0.479828
v -2.299367 0.000000 0.829830
v -2.250631 0.000000 0.720172
v -4.999367 0.350000 -0.370170
v -4.950631 0.350000 -0.479828
v -2.299367 0.350000 0.829830
v -2.250631 0.350000 0.720172
v -2.272601 0.000000 0.834953
v -2.277397 0.000000 0.715049
v -1.022601 0.000000 0.784953
v -1.027397 0.000000 0.665049
v -2.272601 0.350000 0.834953
v -2.277397 0.350000 0.715049
v -1.022601 0.350000 0.784953
v -1.027397 0.350000 0.665049
v -1.012319 0.000000 0.783646
v -1.037679 0.000000 0.666356
v 0.837681 0.000000 0.383646
v 0.812321 0.000000 0.266356
v -1.012319 0.350000 0.783646
v -1.037679 0.350000 0.666356
v 0.837681 0.350000 0.383646
v 0.812321 0.350000 0.266356
v 0.851834 0.000000 0.378667
v 0.798168 0.000000 0.271335
v 1.251834 0.000000 0.178667
v 1.198168 0.000000 0.071335
v 0.851834 0.350000 0.378667
v 0.798168 0.350000 0.271335
v 1.251834 0.350000 0.178667
v 1.198168 0.350000 0.071335
v 1.271853 0.000000 0.162483
v 1.178149 0.000000 0.087519
v 2.071853 0.000000 -0.837517
v 1.978149 0.000000 -0.912481
v 1.271853 0.350000 0.162483
v 1.178149 0.350000 0.087519
v 2.071853 0.350000 -0.837517
v 1.978149 0.350000 -0.912481
v 2.045181 0.000000 -0.818494
v 2.004821 0.000000 -0.931504
v 2.745181 0.000000 -1.068494
v 2.704821 0.000000 -1.181504
v 2.045181 0.350000 -0.818494
v 2.004821 0.350000 -0.931504
v 2.745181 0.350000 -1.068494
v 2.704821 0.350000 -1.181504
v 2.687932 0.000000 -1.077820
v 2.762070 0.000000 -1.172178
v 3.387932 0.000000 -0.527820
v 3.462070 0.000000 -0.622178
v 2.687932 0.350000 -1.077820
v 2.762070 0.350000 -1.172178
v 3.387932 0.350000 -0.527820
v 3.462070 0.350000 -0.622178
v 3.369292 0.000000 -0.597282
v 3.480710 0.000000 -0.552716
v 3.069292 0.000000 0.152718
v 3.180710 0.000000 0.197284
v 3.369292 0.350000 -0.597282
v 3.480710 0.350000 -0.552716
v 3.069292 0.350000 0.152718
v 3.180710 0.350000 0.197284
v 3.096270 0.000000 0.122327
v 3.153732 0.000000 0.227675
v 2.546270 0.000000 0.422327
v 2.603732 0.000000 0.527675
v 3.096270 0.350000 0.122327
v 3.153732 0.350000 0.227675
v 2.546270 0.350000 0.422327
v 2.603732 0.350000 0.527675
v 2.564499 0.000000 0.415927
v 2.585503 0.000000 0.534075
v 0.314499 0.000000 0.815927
v 0.335503 0.000000 0.934075
v 2.564499 0.350000 0.415927
v 2.585503 0.350000 0.534075
v 0.314499 0.350000 0.815927
v 0.335503 0.350000 0.934075
v 0.336768 0.000000 0.816166
v 0.313234 0.000000 0.933836
v -0.163232 0.000000 0.716166
v -0.186766 0.000000 0.833836
v 0.336768 0.350000 0.816166
v 0.313234 0.350000 0.933836
v -0.163232 0.350000 0.716166
v -0.186766 0.350000 0.833836
v -0.193973 0.000000 0.718080
v -0.156025 0.000000 0.831922
v -0.943973 0.000000 0.968080
v -0.906025 0.000000 1.081922
v -0.193973 0.350000 0.718080
v -0.156025 0.350000 0.831922
v -0.943973 0.350000 0.968080
v -0.906025 0.350000 1.081922
v -0.932759 0.000000 0.965505
v -0.917239 0.000000 1.084497
v -2.082759 0.000000 1.115505
v -2.067239 0.000000 1.234497
v -0.932759 0.350000 0.965505
v -0.917239 0.350000 1.084497
v -2.082759 0.350000 1.115505
v -2.067239 0.350000 1.234497
v -2.073499 0.000000 1.115020
v -2.076499 0.000000 1.234982
v -4.073499 0.000000 1.065020
v -4.076499 0.000000 1.184982
v -2.073499 0.350000 1.115020
v -2.076499 0.350000 1.234982
v -4.073499 0.350000 1.065020
v -4.076499 0.350000 1.184982
v -4.079601 0.000000 1.065178
v -4.070397 0.000000 1.184824
v -6.679601 0.000000 1.265178
v -6.670397 0.000000 1.384824
v -4.079601 0.350000 1.065178
v -4.070397 0.350000 1.184824
v -6.679601 0.350000 1.265178
v -6.670397 0.350000 1.384824
v -6.644129 0.000000 1.273551
v -6.705869 0.000000 1.376451
v -7.144129 0.000000 0.973551
v -7.205869 0.000000 1.076451
v -6.644129 0.350000 1.273551
v -6.705869 0.350000 1.376451
v -7.144129 0.350000 0.973551
v -7.205869 0.350000 1.076451
v -7.129844 0.000000 0.985491
v -7.220154 0.000000 1.064511
v -7.479844 0.000000 0.585491
v -7.570154 0.000000 0.664511
v -7.129844 0.350000 0.985491
v -7.220154 0.350000 1.064511
v -7.479844 0.350000 0.585491
v -7.570154 0.350000 0.664511
v -7.534792 0.000000 0.129984
v -7.415206 0.000000 0.120018
v -7.484792 0.000000 0.729984
v -7.365206 0.000000 0.720018
v -7.534792 0.350000 0.129984
v -7.415206 0.350000 0.120018
v -7.484792 0.350000 0.729984
v -7.365206 0.350000 0.720018
v -7.462993 0.000000 0.771438
v -7.387005 0.000000 0.678564
v -6.912993 0.000000 1.221438
v -6.837005 0.000000 1.128564
v -7.462993 0.350000 0.771438
v -7.387005 0.350000 0.678564
v -6.912993 0.350000 1.221438
v -6.837005 0.350000 1.128564
v -6.891482 0.000000 1.232692
v -6.858516 0.000000 1.117310
v -6.541482 0.000000 1.332692
v -6.508516 0.000000 1.217310
v -6.891482 0.350000 1.232692
v -6.858516 0.350000 1.117310
v -6.541482 0.350000 1.332692
v -6.508516 0.350000 1.217310
v -6.520308 0.000000 1.334817
v -6.529690 0.000000 1.215185
v -3.970308 0.000000 1.134817
v -3.979690 0.000000 1.015185
v -6.520308 0.350000 1.334817
v -6.529690 0.350000 1.215185
v -3.970308 0.350000 1.134817
v -3.979690 0.350000 1.015185
v -3.978742 0.000000 1.134884
v -3.971256 0.000000 1.015118
v -2.378742 0.000000 1.234884
v -2.371256 0.000000 1.115118
v -3.978742 0.350000 1.134884
v -3.971256 0.350000 1.015118
v -2.378742 0.350000 1.234884
v -2.371256 0.350000 1.115118
v -2.366801 0.000000 1.234438
v -2.383197 0.000000 1.115564
v -0.916801 0.000000 1.034438
v -0.933197 0.000000 0.915564
v -2.366801 0.350000 1.234438
v -2.383197 0.350000 1.115564
v -0.916801 0.350000 1.034438
v -0.933197 0.350000 0.915564
v -0.904819 0.000000 1.031506
v -0.945179 0.000000 0.918496
v -0.204819 0.000000 0.781506
v -0.245179 0.000000 0.668496
v -0.904819 0.350000 1.031506
v -0.945179 0.350000 0.918496
v -0.204819 0.350000 0.781506
v -0.245179 0.350000 0.668496
v -0.202716 0.000000 0.669292
v -0.247282 0.000000 0.780710
v -0.452716 0.000000 0.569292
v -0.497282 0.000000 0.680710
v -0.202716 0.350000 0.669292
v -0.247282 0.350000 0.780710
v -0.452716 0.350000 0.569292
v -0.497282 0.350000 0.680710
v -0.487360 0.000000 0.566288
v -0.462638 0.000000 0.683714
v -1.437360 0.000000 0.766288
v -1.412638 0.000000 0.883714
v -0.487360 0.350000 0.566288
v -0.462638 0.350000 0.683714
v -1.437360 0.350000 0.766288
v -1.412638 0.350000 0.883714
v -1.422145 0.000000 0.765069
v -1.427853 0.000000 0.884933
v -2.472145 0.000000 0.715069
v -2.477853 0.000000 0.834933
v -1.422145 0.350000 0.765069
v -1.427853 0.350000 0.884933
v -2.472145 0.350000 0.715069
v -2.477853 0.350000 0.834933
v -2.446268 0.000000 0.722327
v -2.503730 0.000000 0.827675
v -3.546268 0.000000 0.122327
v -3.603730 0.000000 0.227675
v -2.446268 0.350000 0.722327
v -2.503730 0.350000 0.827675
v -3.546268 0.350000 0.122327
v -3.603730 0.350000 0.227675
v -3.553571 0.000000 0.118958
v -3.596427 0.000000 0.231044
v -5.253571 0.000000 -0.531042
v -5.296427 0.000000 -0.418956
v -3.553571 0.350000 0.118958
v -3.596427 0.350000 0.231044
v -5.253571 0.350000 -0.531042
v -5.296427 0.350000 -0.418956
v -5.274999 0.000000 -0.534999
v -5.274999 0.000000 -0.414999
v -6.824999 0.000000 -0.534999
v -6.824999 0.000000 -0.414999
v -5.274999 0.350000 -0.534999
v -5.274999 0.350000 -0.414999
v -6.824999 0.350000 -0.534999
v -6.824999 0.350000 -0.414999
v -6.847282 0.000000 -0.530708
v -6.802716 0.000000 -0.419290
v -7.097282 0.000000 -0.430708
v -7.052716 0.000000 -0.319290
v -6.847282 0.350000 -0.530708
v -6.802716 0.350000 -0.419290
v -7.097282 0.350000 -0.430708
v -7.052716 0.350000 -0.319290
v -7.121851 0.000000 -0.412481
v -7.028147 0.000000 -0.337517
v -7.521851 0.000000 0.087519
v -7.428147 0.000000 0.162483
v -7.121851 0.350000 -0.412481
v -7.028147 0.350000 -0.337517
v -7.521851 0.350000 0.087519
v -7.428147 0.350000 0.162483
v -0.054767 0.000000 0.677096
v 0.004769 0.000000 0.572906
v 0.295233 0.000000 0.877096
v 0.354769 0.000000 0.772906
v -0.054767 0.350000 0.677096
v 0.004769 0.350000 0.572906
v 0.295233 0.350000 0.877096
v 0.354769 0.350000 0.772906
v 0.335281 0.000000 0.884114
v 0.314721 0.000000 0.765888
v 2.635281 0.000000 0.484114
v 2.614721 0.000000 0.365888
v 0.335281 0.350000 0.884114
v 0.314721 0.350000 0.765888
v 2.635281 0.350000 0.484114
v 2.614721 0.350000 0.365888
v 2.660291 0.000000 0.473525
v 2.589711 0.000000 0.376477
v 3.210291 0.000000 0.073525
v 3.139711 0.000000 -0.023523
v 2.660291 0.350000 0.473525
v 2.589711 0.350000 0.376477
v 3.210291 0.350000 0.073525
v 3.139711 0.350000 -0.023523
v 3.231389 0.000000 0.045506
v 3.118613 0.000000 0.004496
v 3.431389 0.000000 -0.504494
v 3.318613 0.000000 -0.545504
v 3.231389 0.350000 0.045506
v 3.118613 0.350000 0.004496
v 3.431389 0.350000 -0.504494
v 3.318613 0.350000 -0.545504
v 3.420156 0.000000 -0.564509
v 3.329846 0.000000 -0.485489
v 3.070156 0.000000 -0.964509
v 2.979846 0.000000 -0.885489
v 3.420156 0.350000 -0.564509
v 3.329846 0.350000 -0.485489
v 3.070156 0.350000 -0.964509
v 2.979846 0.350000 -0.885489
v 3.043975 0.000000 -0.981920
v 3.006027 0.000000 -0.868078
v 2.593975 0.000000 -1.131920
v 2.556027 0.000000 -1.018078
v 3.043975 0.350000 -0.981920
v 3.006027 0.350000 -0.868078
v 2.593975 0.350000 -1.131920
v 2.556027 0.350000 -1.018078
v 2.541719 0.000000 -1.124922
v 2.608283 0.000000 -1.025076
v 2.091719 0.000000 -0.824922
v 2.158283 0.000000 -0.725076
v 2.541719 0.350000 -1.124922
v 2.608283 0.350000 -1.025076
v 2.091719 0.350000 -0.824922
v 2.158283 0.350000 -0.725076
v 2.080287 0.000000 -0.815007
v 2.169715 0.000000 -0.734991
v 1.230287 0.000000 0.134993
v 1.319715 0.000000 0.215009
v 2.080287 0.350000 -0.815007
v 2.169715 0.350000 -0.734991
v 1.230287 0.350000 0.134993
v 1.319715 0.350000 0.215009
v 1.255374 0.000000 0.118302
v 1.294628 0.000000 0.231700
v -0.044626 0.000000 0.568302
v -0.005372 0.000000 0.681700
v 1.255374 0.350000 0.118302
v 1.294628 0.350000 0.231700
v -0.044626 0.350000 0.568302
v -0.005372 0.350000 0.681700
vt 0.000000 0.000000
vt 0.000000 0.000000
vt 1.739253 0.000000
vt 1.739253 0.000000
vt 0.000000 0.350000
vt 0.000000 0.350000
vt 1.739253 0.350000
vt 1.739253 0.350000
vt 1.739253 0.000000
vt 1.739253 0.000000
vt 2.379565 0.000000
vt 2.379565 0.000000
vt 1.739253 0.350000
vt 1.739253 0.350000
vt 2.379565 0.350000
vt 2.379565 0.350000
vt 2.379565 0.000000
vt 2.379565 0.000000
vt 3.107576 0.000000
vt 3.107576 0.000000
vt 2.379565 0.350000
vt 2.379565 0.350000
vt 3.107576 0.350000
vt 3.107576 0.350000
vt 3.107576 0.000000
vt 3.107576 0.000000
vt 4.708357 0.000000
vt 4.708357 0.000000
vt 3.107576 0.350000
vt 3.107576 0.350000
vt 4.708357 0.350000
vt 4.708357 0.350000
vt 4.708357 0.000000
vt 4.708357 0.000000
vt 5.670126 0.000000
vt 5.670126 0.000000
vt 4.708357 0.350000
vt 4.708357 0.350000
vt 5.670126 0.350000
vt 5.670126 0.350000
vt 5.670126 0.000000
vt 5.670126 0.000000
vt 6.030682 0.000000
vt 6.030682 0.000000
vt 5.670126 0.350000
vt 5.670126 0.350000
vt 6.030682 0.350000
vt 6.030682 0.350000
vt 6.030682 0.000000
vt 6.030682 0.000000
vt 6.172103 0.000000
vt 6.172103 0.000000
vt 6.030682 0.350000
vt 6.030682 0.350000
vt 6.172103 0.350000
vt 6.172103 0.350000
vt 6.172103 0.000000
vt 6.172103 0.000000
vt 6.422103 0.000000
vt 6.422103 0.000000
vt 6.172103 0.350000
vt 6.172103 0.350000
vt 6.422103 0.350000
vt 6.422103 0.350000
vt 6.422103 0.000000
vt 6.422103 0.000000
vt 9.522103 0.000000
vt 9.522103 0.000000
vt 6.422103 0.350000
vt 6.422103 0.350000
vt 9.522103 0.350000
vt 9.522103 0.350000
vt 9.522103 0.000000
vt 9.522103 0.000000
vt 9.934413 0.000000
vt 9.934413 0.000000
vt 9.522103 0.350000
vt 9.522103 0.350000
vt 9.934413 0.350000
vt 9.934413 0.350000
vt 9.934413 0.000000
vt 9.934413 0.000000
vt 13.895789 0.000000
vt 13.895789 0.000000
vt 9.934413 0.350000
vt 9.934413 0.350000
vt 13.895789 0.350000
vt 13.895789 0.350000
vt 13.895789 0.000000
vt 13.895789 0.000000
vt 16.196333 0.000000
vt 16.196333 0.000000
vt 13.895789 0.350000
vt 13.895789 0.350000
vt 16.196333 0.350000
vt 16.196333 0.350000
vt 16.196333 0.000000
vt 16.196333 0.000000
vt 16.346333 0.000000
vt 16.346333 0.000000
vt 16.196333 0.350000
vt 16.196333 0.350000
vt 16.346333 0.350000
vt 16.346333 0.350000
vt 16.346333 0.000000
vt 16.346333 0.000000
vt 17.096333 0.000000
vt 17.096333 0.000000
vt 16.346333 0.350000
vt 16.346333 0.350000
vt 17.096333 0.350000
vt 17.096333 0.350000
vt 17.096333 0.000000
vt 17.096333 0.000000
vt 17.276610 0.000000
vt 17.276610 0.000000
vt 17.096333 0.350000
vt 17.096333 0.350000
vt 17.276610 0.350000
vt 17.276610 0.350000
vt 17.276610 0.000000
vt 17.276610 0.000000
vt 17.426610 0.000000
vt 17.426610 0.000000
vt 17.276610 0.350000
vt 17.276610 0.350000
vt 17.426610 0.350000
vt 17.426610 0.350000
vt 17.426610 0.000000
vt 17.426610 0.000000
vt 17.921585 0.000000
vt 17.921585 0.000000
vt 17.426610 0.350000
vt 17.426610 0.350000
vt 17.921585 0.350000
vt 17.921585 0.350000
vt 17.921585 0.000000
vt 17.921585 0.000000
vt 18.351701 0.000000
vt 18.351701 0.000000
vt 17.921585 0.350000
vt 17.921585 0.350000
vt 18.351701 0.350000
vt 18.351701 0.350000
vt 18.351701 0.000000
vt 18.351701 0.000000
vt 18.953781 0.000000
vt 18.953781 0.000000
vt 18.351701 0.350000
vt 18.351701 0.350000
vt 18.953781 0.350000
vt 18.953781 0.350000
vt 18.953781 0.000000
vt 18.953781 0.000000
vt 20.542806 0.000000
vt 20.542806 0.000000
vt 18.953781 0.350000
vt 18.953781 0.350000
vt 20.542806 0.350000
vt 20.542806 0.350000
vt 20.542806 0.000000
vt 20.542806 0.000000
vt 21.092806 0.000000
vt 21.092806 0.000000
vt 20.542806 0.350000
vt 20.542806 0.350000
vt 21.092806 0.350000
vt 21.092806 0.350000
vt 21.092806 0.000000
vt 21.092806 0.000000
vt 22.848511 0.000000
vt 22.848511 0.000000
vt 21.092806 0.350000
vt 21.092806 0.350000
vt 22.848511 0.350000
vt 22.848511 0.350000
vt 22.848511 0.000000
vt 22.848511 0.000000
vt 24.483289 0.000000
vt 24.483289 0.000000
vt 22.848511 0.350000
vt 22.848511 0.350000
vt 24.483289 0.350000
vt 24.483289 0.350000
vt 24.483289 0.000000
vt 24.483289 0.000000
vt 25.384677 0.000000
vt 25.384677 0.000000
vt 24.483289 0.350000
vt 24.483289 0.350000
vt 25.384677 0.350000
vt 25.384677 0.350000
vt 25.384677 0.000000
vt 25.384677 0.000000
vt 26.848405 0.000000
vt 26.848405 0.000000
vt 25.384677 0.350000
vt 25.384677 0.350000
vt 26.848405 0.350000
vt 26.848405 0.350000
vt 26.848405 0.000000
vt 26.848405 0.000000
vt 31.231612 0.000000
vt 31.231612 0.000000
vt 26.848405 0.350000
vt 26.848405 0.350000
vt 31.231612 0.350000
vt 31.231612 0.350000
vt 31.231612 0.000000
vt 31.231612 0.000000
vt 31.741514 0.000000
vt 31.741514 0.000000
vt 31.231612 0.350000
vt 31.231612 0.350000
vt 31.741514 0.350000
vt 31.741514 0.350000
vt 31.741514 0.000000
vt 31.741514 0.000000
vt 32.412334 0.000000
vt 32.412334 0.000000
vt 31.741514 0.350000
vt 31.741514 0.350000
vt 32.412334 0.350000
vt 32.412334 0.350000
vt 32.412334 0.000000
vt 32.412334 0.000000
vt 34.617442 0.000000
vt 34.617442 0.000000
vt 32.412334 0.350000
vt 32.412334 0.350000
vt 34.617442 0.350000
vt 34.617442 0.350000
vt 34.617442 0.000000
vt 34.617442 0.000000
vt 35.020555 0.000000
vt 35.020555 0.000000
vt 34.617442 0.350000
vt 34.617442 0.350000
vt 35.020555 0.350000
vt 35.020555 0.350000
vt 35.020555 0.000000
vt 35.020555 0.000000
vt 35.494896 0.000000
vt 35.494896 0.000000
vt 35.020555 0.350000
vt 35.020555 0.350000
vt 35.494896 0.350000
vt 35.494896 0.350000
vt 35.494896 0.000000
vt 35.494896 0.000000
vt 35.653010 0.000000
vt 35.653010 0.000000
vt 35.494896 0.350000
vt 35.494896 0.350000
vt 35.653010 0.350000
vt 35.653010 0.350000
vt 35.653010 0.000000
vt 35.653010 0.000000
vt 36.554398 0.000000
vt 36.554398 0.000000
vt 35.653010 0.350000
vt 35.653010 0.350000
vt 36.554398 0.350000
vt 36.554398 0.350000
vt 36.554398 0.000000
vt 36.554398 0.000000
vt 37.212045 0.000000
vt 37.212045 0.000000
vt 36.554398 0.350000
vt 36.554398 0.350000
vt 37.212045 0.350000
vt 37.212045 0.350000
vt 37.212045 0.000000
vt 37.212045 0.000000
vt 38.106473 0.000000
vt 38.106473 0.000000
vt 37.212045 0.350000
vt 37.212045 0.350000
vt 38.106473 0.350000
vt 38.106473 0.350000
vt 38.106473 0.000000
vt 38.106473 0.000000
vt 39.746595 0.000000
vt 39.746595 0.000000
vt 38.106473 0.350000
vt 38.106473 0.350000
vt 39.746595 0.350000
vt 39.746595 0.350000
vt 39.746595 0.000000
vt 39.746595 0.000000
vt 40.900934 0.000000
vt 40.900934 0.000000
vt 39.746595 0.350000
vt 39.746595 0.350000
vt 40.900934 0.350000
vt 40.900934 0.350000
vt 0.000000 0.000000
vt 0.000000 0.000000
vt 1.634778 0.000000
vt 1.634778 0.000000
vt 0.000000 0.350000
vt 0.000000 0.350000
vt 1.634778 0.350000
vt 1.634778 0.350000
vt 1.634778 0.000000
vt 1.634778 0.000000
vt 2.166286 0.000000
vt 2.166286 0.000000
vt 1.634778 0.350000
vt 1.634778 0.350000
vt 2.166286 0.350000
vt 2.166286 0.350000
vt 2.166286 0.000000
vt 2.166286 0.000000
vt 2.974060 0.000000
vt 2.974060 0.000000
vt 2.166286 0.350000
vt 2.166286 0.350000
vt 2.974060 0.350000
vt 2.974060 0.350000
vt 2.974060 0.000000
vt 2.974060 0.000000
vt 5.975726 0.000000
vt 5.975726 0.000000
vt 2.974060 0.350000
vt 2.974060 0.350000
vt 5.975726 0.350000
vt 5.975726 0.350000
vt 5.975726 0.000000
vt 5.975726 0.000000
vt 8.289274 0.000000
vt 8.289274 0.000000
vt 5.975726 0.350000
vt 5.975726 0.350000
vt 8.289274 0.350000
vt 8.289274 0.350000
vt 8.289274 0.000000
vt 8.289274 0.000000
vt 13.041641 0.000000
vt 13.041641 0.000000
vt 8.289274 0.350000
vt 8.289274 0.350000
vt 13.041641 0.350000
vt 13.041641 0.350000
vt 13.041641 0.000000
vt 13.041641 0.000000
vt 15.355188 0.000000
vt 15.355188 0.000000
vt 13.041641 0.350000
vt 13.041641 0.350000
vt 15.355188 0.350000
vt 15.355188 0.350000
vt 15.355188 0.000000
vt 15.355188 0.000000
vt 16.274427 0.000000
vt 16.274427 0.000000
vt 15.355188 0.350000
vt 15.355188 0.350000
vt 16.274427 0.350000
vt 16.274427 0.350000
vt 16.274427 0.000000
vt 16.274427 0.000000
vt 17.286850 0.000000
vt 17.286850 0.000000
vt 16.274427 0.350000
vt 16.274427 0.350000
vt 17.286850 0.350000
vt 17.286850 0.350000
vt 17.286850 0.000000
vt 17.286850 0.000000
vt 18.404884 0.000000
vt 18.404884 0.000000
vt 17.286850 0.350000
vt 17.286850 0.350000
vt 18.404884 0.350000
vt 18.404884 0.350000
vt 18.404884 0.000000
vt 18.404884 0.000000
vt 19.243037 0.000000
vt 19.243037 0.000000
vt 18.404884 0.350000
vt 18.404884 0.350000
vt 19.243037 0.350000
vt 19.243037 0.350000
vt 19.243037 0.000000
vt 19.243037 0.000000
vt 21.063064 0.000000
vt 21.063064 0.000000
vt 19.243037 0.350000
vt 19.243037 0.350000
vt 21.063064 0.350000
vt 21.063064 0.350000
vt 21.063064 0.000000
vt 21.063064 0.000000
vt 21.801305 0.000000
vt 21.801305 0.000000
vt 21.063064 0.350000
vt 21.063064 0.350000
vt 21.801305 0.350000
vt 21.801305 0.350000
vt 21.801305 0.000000
vt 21.801305 0.000000
vt 22.861966 0.000000
vt 22.861966 0.000000
vt 21.801305 0.350000
vt 21.801305 0.350000
vt 22.861966 0.350000
vt 22.861966 0.350000
vt 22.861966 0.000000
vt 22.861966 0.000000
vt 23.763353 0.000000
vt 23.763353 0.000000
vt 22.861966 0.350000
vt 22.861966 0.350000
vt 23.763353 0.350000
vt 23.763353 0.350000
vt 23.763353 0.000000
vt 23.763353 0.000000
vt 24.399750 0.000000
vt 24.399750 0.000000
vt 23.763353 0.350000
vt 23.763353 0.350000
vt 24.399750 0.350000
vt 24.399750 0.350000
vt 24.399750 0.000000
vt 24.399750 0.000000
vt 25.731102 0.000000
vt 25.731102 0.000000
vt 24.399750 0.350000
vt 24.399750 0.350000
vt 25.731102 0.350000
vt 25.731102 0.350000
vt 25.731102 0.000000
vt 25.731102 0.000000
vt 27.363585 0.000000
vt 27.363585 0.000000
vt 25.731102 0.350000
vt 25.731102 0.350000
vt 27.363585 0.350000
vt 27.363585 0.350000
vt 27.363585 0.000000
vt 27.363585 0.000000
vt 27.863585 0.000000
vt 27.863585 0.000000
vt 27.363585 0.350000
vt 27.363585 0.350000
vt 27.863585 0.350000
vt 27.863585 0.350000
vt 27.863585 0.000000
vt 27.863585 0.000000
vt 29.128496 0.000000
vt 29.128496 0.000000
vt 27.863585 0.350000
vt 27.863585 0.350000
vt 29.128496 0.350000
vt 29.128496 0.350000
vt 29.128496 0.000000
vt 29.128496 0.000000
vt 30.783791 0.000000
vt 30.783791 0.000000
vt 29.128496 0.350000
vt 29.128496 0.350000
vt 30.783791 0.350000
vt 30.783791 0.350000
vt 30.783791 0.000000
vt 30.783791 0.000000
vt 32.206816 0.000000
vt 32.206816 0.000000
vt 30.783791 0.350000
vt 30.783791 0.350000
vt 32.206816 0.350000
vt 32.206816 0.350000
vt 32.206816 0.000000
vt 32.206816 0.000000
vt 34.212433 0.000000
vt 34.212433 0.000000
vt 32.206816 0.350000
vt 32.206816 0.350000
vt 34.212433 0.350000
vt 34.212433 0.350000
vt 34.212433 0.000000
vt 34.212433 0.000000
vt 35.588114 0.000000
vt 35.588114 0.000000
vt 34.212433 0.350000
vt 34.212433 0.350000
vt 35.588114 0.350000
vt 35.588114 0.350000
vt 35.588114 0.000000
vt 35.588114 0.000000
vt 36.260796 0.000000
vt 36.260796 0.000000
vt 35.588114 0.350000
vt 35.588114 0.350000
vt 36.260796 0.350000
vt 36.260796 0.350000
vt 36.260796 0.000000
vt 36.260796 0.000000
vt 37.025648 0.000000
vt 37.025648 0.000000
vt 36.260796 0.350000
vt 36.260796 0.350000
vt 37.025648 0.350000
vt 37.025648 0.350000
vt 37.025648 0.000000
vt 37.025648 0.000000
vt 37.696469 0.000000
vt 37.696469 0.000000
vt 37.025648 0.350000
vt 37.025648 0.350000
vt 37.696469 0.350000
vt 37.696469 0.350000
vt 37.696469 0.000000
vt 37.696469 0.000000
vt 38.296469 0.000000
vt 38.296469 0.000000
vt 37.696469 0.350000
vt 37.696469 0.350000
vt 38.296469 0.350000
vt 38.296469 0.350000
vt 0.000000 0.000000
vt 0.000000 0.000000
vt 0.602080 0.000000
vt 0.602080 0.000000
vt 0.000000 0.350000
vt 0.000000 0.350000
vt 0.602080 0.350000
vt 0.602080 0.350000
vt 0.602080 0.000000
vt 0.602080 0.000000
vt 1.345383 0.000000
vt 1.345383 0.000000
vt 0.602080 0.350000
vt 0.602080 0.350000
vt 1.345383 0.350000
vt 1.345383 0.350000
vt 1.345383 0.000000
vt 1.345383 0.000000
vt 1.806360 0.000000
vt 1.806360 0.000000
vt 1.345383 0.350000
vt 1.345383 0.350000
vt 1.806360 0.350000
vt 1.806360 0.350000
vt 1.806360 0.000000
vt 1.806360 0.000000
vt 3.313842 0.000000
vt 3.313842 0.000000
vt 1.806360 0.350000
vt 1.806360 0.350000
vt 3.313842 0.350000
vt 3.313842 0.350000
vt 3.313842 0.000000
vt 3.313842 0.000000
vt 6.268499 0.000000
vt 6.268499 0.000000
vt 3.313842 0.350000
vt 3.313842 0.350000
vt 6.268499 0.350000
vt 6.268499 0.350000
vt 6.268499 0.000000
vt 6.268499 0.000000
vt 7.519499 0.000000
vt 7.519499 0.000000
vt 6.268499 0.350000
vt 6.268499 0.350000
vt 7.519499 0.350000
vt 7.519499 0.350000
vt 7.519499 0.000000
vt 7.519499 0.000000
vt 9.412248 0.000000
vt 9.412248 0.000000
vt 7.519499 0.350000
vt 7.519499 0.350000
vt 9.412248 0.350000
vt 9.412248 0.350000
vt 9.412248 0.000000
vt 9.412248 0.000000
vt 9.859462 0.000000
vt 9.859462 0.000000
vt 9.412248 0.350000
vt 9.412248 0.350000
vt 9.859462 0.350000
vt 9.859462 0.350000
vt 9.859462 0.000000
vt 9.859462 0.000000
vt 11.140086 0.000000
vt 11.140086 0.000000
vt 9.859462 0.350000
vt 9.859462 0.350000
vt 11.140086 0.350000
vt 11.140086 0.350000
vt 11.140086 0.000000
vt 11.140086 0.000000
vt 11.883390 0.000000
vt 11.883390 0.000000
vt 11.140086 0.350000
vt 11.140086 0.350000
vt 11.883390 0.350000
vt 11.883390 0.350000
vt 11.883390 0.000000
vt 11.883390 0.000000
vt 12.773615 0.000000
vt 12.773615 0.000000
vt 11.883390 0.350000
vt 11.883390 0.350000
vt 12.773615 0.350000
vt 12.773615 0.350000
vt 12.773615 0.000000
vt 12.773615 0.000000
vt 13.581389 0.000000
vt 13.581389 0.000000
vt 12.773615 0.350000
vt 12.773615 0.350000
vt 13.581389 0.350000
vt 13.581389 0.350000
vt 13.581389 0.000000
vt 13.581389 0.000000
vt 14.207887 0.000000
vt 14.207887 0.000000
vt 13.581389 0.350000
vt 13.581389 0.350000
vt 14.207887 0.350000
vt 14.207887 0.350000
vt 14.207887 0.000000
vt 14.207887 0.000000
vt 16.493166 0.000000
vt 16.493166 0.000000
vt 14.207887 0.350000
vt 14.207887 0.350000
vt 16.493166 0.350000
vt 16.493166 0.350000
vt 16.493166 0.000000
vt 16.493166 0.000000
vt 17.003068 0.000000
vt 17.003068 0.000000
vt 16.493166 0.350000
vt 16.493166 0.350000
vt 17.003068 0.350000
vt 17.003068 0.350000
vt 17.003068 0.000000
vt 17.003068 0.000000
vt 17.793638 0.000000
vt 17.793638 0.000000
vt 17.003068 0.350000
vt 17.003068 0.350000
vt 17.793638 0.350000
vt 17.793638 0.350000
vt 17.793638 0.000000
vt 17.793638 0.000000
vt 18.953379 0.000000
vt 18.953379 0.000000
vt 17.793638 0.350000
vt 17.793638 0.350000
vt 18.953379 0.350000
vt 18.953379 0.350000
vt 18.953379 0.000000
vt 18.953379 0.000000
vt 20.954004 0.000000
vt 20.954004 0.000000
vt 18.953379 0.350000
vt 18.953379 0.350000
vt 20.954004 0.350000
vt 20.954004 0.350000
vt 20.954004 0.000000
vt 20.954004 0.000000
vt 23.561685 0.000000
vt 23.561685 0.000000
vt 20.954004 0.350000
vt 20.954004 0.350000
vt 23.561685 0.350000
vt 23.561685 0.350000
vt 23.561685 0.000000
vt 23.561685 0.000000
vt 24.144780 0.000000
vt 24.144780 0.000000
vt 23.561685 0.350000
vt 23.561685 0.350000
vt 24.144780 0.350000
vt 24.144780 0.350000
vt 24.144780 0.000000
vt 24.144780 0.000000
vt 24.676288 0.000000
vt 24.676288 0.000000
vt 24.144780 0.350000
vt 24.144780 0.350000
vt 24.676288 0.350000
vt 24.676288 0.350000
vt 0.000000 0.000000
vt 0.000000 0.000000
vt 0.602080 0.000000
vt 0.602080 0.000000
vt 0.000000 0.350000
vt 0.000000 0.350000
vt 0.602080 0.350000
vt 0.602080 0.350000
vt 0.602080 0.000000
vt 0.602080 0.000000
vt 1.312713 0.000000
vt 1.312713 0.000000
vt 0.602080 0.350000
vt 0.602080 0.350000
vt 1.312713 0.350000
vt 1.312713 0.350000
vt 1.312713 0.000000
vt 1.312713 0.000000
vt 1.676719 0.000000
vt 1.676719 0.000000
vt 1.312713 0.350000
vt 1.312713 0.350000
vt 1.676719 0.350000
vt 1.676719 0.350000
vt 1.676719 0.000000
vt 1.676719 0.000000
vt 4.234550 0.000000
vt 4.234550 0.000000
vt 1.676719 0.350000
vt 1.676719 0.350000
vt 4.234550 0.350000
vt 4.234550 0.350000
vt 4.234550 0.000000
vt 4.234550 0.000000
vt 5.837672 0.000000
vt 5.837672 0.000000
vt 4.234550 0.350000
vt 4.234550 0.350000
vt 5.837672 0.350000
vt 5.837672 0.350000
vt 5.837672 0.000000
vt 5.837672 0.000000
vt 7.301400 0.000000
vt 7.301400 0.000000
vt 5.837672 0.350000
vt 5.837672 0.350000
vt 7.301400 0.350000
vt 7.301400 0.350000
vt 7.301400 0.000000
vt 7.301400 0.000000
vt 8.044703 0.000000
vt 8.044703 0.000000
vt 7.301400 0.350000
vt 7.301400 0.350000
vt 8.044703 0.350000
vt 8.044703 0.350000
vt 8.044703 0.000000
vt 8.044703 0.000000
vt 8.313962 0.000000
vt 8.313962 0.000000
vt 8.044703 0.350000
vt 8.044703 0.350000
vt 8.313962 0.350000
vt 8.313962 0.350000
vt 8.313962 0.000000
vt 8.313962 0.000000
vt 9.284786 0.000000
vt 9.284786 0.000000
vt 8.313962 0.350000
vt 8.313962 0.350000
vt 9.284786 0.350000
vt 9.284786 0.350000
vt 9.284786 0.000000
vt 9.284786 0.000000
vt 10.335976 0.000000
vt 10.335976 0.000000
vt 9.284786 0.350000
vt 9.284786 0.350000
vt 10.335976 0.350000
vt 10.335976 0.350000
vt 10.335976 0.000000
vt 10.335976 0.000000
vt 11.588972 0.000000
vt 11.588972 0.000000
vt 10.335976 0.350000
vt 10.335976 0.350000
vt 11.588972 0.350000
vt 11.588972 0.350000
vt 11.588972 0.000000
vt 11.588972 0.000000
vt 13.409000 0.000000
vt 13.409000 0.000000
vt 11.588972 0.350000
vt 11.588972 0.350000
vt 13.409000 0.350000
vt 13.409000 0.350000
vt 13.409000 0.000000
vt 13.409000 0.000000
vt 14.959000 0.000000
vt 14.959000 0.000000
vt 13.409000 0.350000
vt 13.409000 0.350000
vt 14.959000 0.350000
vt 14.959000 0.350000
vt 14.959000 0.000000
vt 14.959000 0.000000
vt 15.228258 0.000000
vt 15.228258 0.000000
vt 14.959000 0.350000
vt 14.959000 0.350000
vt 15.228258 0.350000
vt 15.228258 0.350000
vt 15.228258 0.000000
vt 15.228258 0.000000
vt 15.868570 0.000000
vt 15.868570 0.000000
vt 15.228258 0.350000
vt 15.228258 0.350000
vt 15.868570 0.350000
vt 15.868570 0.350000
vt 0.000000 0.000000
vt 0.000000 0.000000
vt 0.403113 0.000000
vt 0.403113 0.000000
vt 0.000000 0.350000
vt 0.000000 0.350000
vt 0.403113 0.350000
vt 0.403113 0.350000
vt 0.403113 0.000000
vt 0.403113 0.000000
vt 2.737636 0.000000
vt 2.737636 0.000000
vt 0.403113 0.350000
vt 0.403113 0.350000
vt 2.737636 0.350000
vt 2.737636 0.350000
vt 2.737636 0.000000
vt 2.737636 0.000000
vt 3.417710 0.000000
vt 3.417710 0.000000
vt 2.737636 0.350000
vt 2.737636 0.350000
vt 3.417710 0.350000
vt 3.417710 0.350000
vt 3.417710 0.000000
vt 3.417710 0.000000
vt 4.002945 0.000000
vt 4.002945 0.000000
vt 3.417710 0.350000
vt 3.417710 0.350000
vt 4.002945 0.350000
vt 4.002945 0.350000
vt 4.002945 0.000000
vt 4.002945 0.000000
vt 4.534452 0.000000
vt 4.534452 0.000000
vt 4.002945 0.350000
vt 4.002945 0.350000
vt 4.534452 0.350000
vt 4.534452 0.350000
vt 4.534452 0.000000
vt 4.534452 0.000000
vt 5.008794 0.000000
vt 5.008794 0.000000
vt 4.534452 0.350000
vt 4.534452 0.350000
vt 5.008794 0.350000
vt 5.008794 0.350000
vt 5.008794 0.000000
vt 5.008794 0.000000
vt 5.549627 0.000000
vt 5.549627 0.000000
vt 5.008794 0.350000
vt 5.008794 0.350000
vt 5.549627 0.350000
vt 5.549627 0.350000
vt 5.549627 0.000000
vt 5.549627 0.000000
vt 6.824381 0.000000
vt 6.824381 0.000000
vt 5.549627 0.350000
vt 5.549627 0.350000
vt 6.824381 0.350000
vt 6.824381 0.350000
vt 6.824381 0.000000
vt 6.824381 0.000000
vt 8.200063 0.000000
vt 8.200063 0.000000
vt 6.824381 0.350000
vt 6.824381 0.350000
vt 8.200063 0.350000
vt 8.200063 0.350000
f 1/1 3/3 7/7
f 1/1 7/7 5/5
f 2/2 6/6 8/8
f 2/2 8/8 4/4
f 5/5 7/7 8/8
f 5/5 8/8 6/6
f 9/9 11/11 15/15
f 9/9 15/15 13/13
f 10/10 14/14 16/16
f 10/10 16/16 12/12
f 13/13 15/15 16/16
f 13/13 16/16 14/14
f 17/17 19/19 23/23
f 17/17 23/23 21/21
f 18/18 22/22 24/24
f 18/18 24/24 20/20
f 21/21 23/23 24/24
f 21/21 24/24 22/22
f 25/25 27/27 31/31
f 25/25 31/31 29/29
f 26/26 30/30 32/32
f 26/26 32/32 28/28
f 29/29 31/31 32/32
f 29/29 32/32 30/30
f 33/33 35/35 39/39
f 33/33 39/39 37/37
f 34/34 38/38 40/40
f 34/34 40/40 36/36
f 37/37 39/39 40/40
f 37/37 40/40 38/38
f 41/41 43/43 47/47
f 41/41 47/47 45/45
f 42/42 46/46 48/48
f 42/42 48/48 44/44
f 45/45 47/47 48/48
f 45/45 48/48 46/46
f 49/49 51/51 55/55
f 49/49 55/55 53/53
f 50/50 54/54 56/56
f 50/50 56/56 52/52
f 53/53 55/55 56/56
f 53/53 56/56 54/54
f 57/57 59/59 63/63
f 57/57 63/63 61/61
f 58/58 62/62 64/64
f 58/58 64/64 60/60
f 61/61 63/63 64/64
f 61/61 64/64 62/62
f 65/65 67/67 71/71
f 65/65 71/71 69/69
f 66/66 70/70 72/72
f 66/66 72/72 68/68
f 69/69 71/71 72/72
f 69/69 72/72 70/70
f 73/73 75/75 79/79
f 73/73 79/79 77/77
f 74/74 78/78 80/80
f 74/74 80/80 76/76
f 77/77 79/79 80/80
f 77/77 80/80 78/78
f 81/81 83/83 87/87
f 81/81 87/87 85/85
f 82/82 86/86 88/88
f 82/82 88/88 84/84
f 85/85 87/87 88/88
f 85/85 88/88 86/86
f 89/89 91/91 95/95
f 89/89 95/95 93/93
f 90/90 94/94 96/96
f 90/90 96/96 92/92
f 93/93 95/95 96/96
f 93/93 96/96 94/94
f 97/97 99/99 103/103
f 97/97 103/103 101/101
f 98/98 102/102 104/104
f 98/98 104/104 100/100
f 101/101 103/103 104/104
f 101/101 104/104 102/102
f 105/105 107/107 111/111
f 105/105 111/111 109/109
f 106/106 110/110 112/112
f 106/106 112/112 108/108
f 109/109 111/111 112/112
f 109/109 112/112 110/110
f 113/113 115/115 119/119
f 113/113 119/119 117/117
f 114/114 118/118 120/120
f 114/114 120/120 116/116
f 117/117 119/119 120/120
f 117/117 120/120 118/118
f 121/121 123/123 127/127
f 121/121 127/127 125/125
f 122/122 126/126 128/128
f 122/122 128/128 124/124
f 125/125 127/127 128/128
f 125/125 128/128 126/126
f 129/129 131/131 135/135
f 129/129 135/135 133/133
f 130/130 134/134 136/136
f 130/130 136/136 132/132
f 133/133 135/135 136/136
f 133/133 136/136 134/134
f 137/137 139/139 143/143
f 137/137 143/143 141/141
f 138/138 142/142 144/144
f 138/138 144/144 140/140
f 141/141 143/143 144/144
f 141/141 144/144 142/142
f 145/145 147/147 151/151
f 145/145 151/151 149/149
f 146/146 150/150 152/152
f 146/146 152/152 148/148
f 149/149 151/151 152/152
f 149/149 152/152 150/150
f 153/153 155/155 159/159
f 153/153 159/159 157/157
f 154/154 158/158 160/160
f 154/154 160/160 156/156
f 157/157 159/159 160/160
f 157/157 160/160 158/158
f 161/161 163/163 167/167
f 161/161 167/167 165/165
f 162/162 166/166 168/168
f 162/162 168/168 164/164
f 165/165 167/167 168/168
f 165/165 168/168 166/166
f 169/169 171/171 175/175
f 169/169 175/175 173/173
f 170/170 174/174 176/176
f 170/170 176/176 172/172
f 173/173 175/175 176/176
f 173/173 176/176 174/174
f 177/177 179/179 183/183
f 177/177 183/183 181/181
f 178/178 182/182 184/184
f 178/178 184/184 180/180
f 181/181 183/183 184/184
f 181/181 184/184 182/182
f 185/185 187/187 191/191
f 185/185 191/191 189/189
f 186/186 190/190 192/192
f 186/186 192/192 188/188
f 189/189 191/191 192/192
f 189/189 192/192 190/190
f 193/193 195/195 199/199
f 193/193 199/199 197/197
f 194/194 198/198 200/200
f 194/194 200/200 196/196
f 197/197 199/199 200/200
f 197/197 200/200 198/198
f 201/201 203/203 207/207
f 201/201 207/207 205/205
f 202/202 206/206 208/208
f 202/202 208/208 204/204
f 205/205 207/207 208/208
f 205/205 208/208 206/206
f 209/209 211/211 215/215
f 209/209 215/215 213/213
f 210/210 214/214 216/216
f 210/210 216/216 212/212
f 213/213 215/215 216/216
f 213/213 216/216 214/214
f 217/217 219/219 223/223
f 217/217 223/223 221/221
f 218/218 222/222 224/224
f 218/218 224/224 220/220
f 221/221 223/223 224/224
f 221/221 224/224 222/222
f 225/225 227/227 231/231
f 225/225 231/231 229/229
f 226/226 230/230 232/232
f 226/226 232/232 228/228
f 229/229 231/231 232/232
f 229/229 232/232 230/230
f 233/233 235/235 239/239
f 233/233 239/239 237/237
f 234/234 238/238 240/240
f 234/234 240/240 236/236
f 237/237 239/239 240/240
f 237/237 240/240 238/238
f 241/241 243/243 247/247
f 241/241 247/247 245/245
f 242/242 246/246 248/248
f 242/242 248/248 244/244
f 245/245 247/247 248/248
f 245/245 248/248 246/246
f 249/249 251/251 255/255
f 249/249 255/255 253/253
f 250/250 254/254 256/256
f 250/250 256/256 252/252
f 253/253 255/255 256/256
f 253/253 256/256 254/254
f 257/257 259/259 263/263
f 257/257 263/263 261/261
f 258/258 262/262 264/264
f 258/258 264/264 260/260
f 261/261 263/263 264/264
f 261/261 264/264 262/262
f 265/265 267/267 271/271
f 265/265 271/271 269/269
f 266/266 270/270 272/272
f 266/266 272/272 268/268
f 269/269 271/271 272/272
f 269/269 272/272 270/270
f 273/273 275/275 279/279
f 273/273 279/279 277/277
f 274/274 278/278 280/280
f 274/274 280/280 276/276
f 277/277 279/279 280/280
f 277/277 280/280 278/278
f 281/281 283/283 287/287
f 281/281 287/287 285/285
f 282/282 286/286 288/288
f 282/282 288/288 284/284
f 285/285 287/287 288/288
f 285/285 288/288 286/286
f 289/289 291/291 295/295
f 289/289 295/295 293/293
f 290/290 294/294 296/296
f 290/290 296/296 292/292
f 293/293 295/295 296/296
f 293/293 296/296 294/294
f 297/297 299/299 303/303
f 297/297 303/303 301/301
f 298/298 302/302 304/304
f 298/298 304/304 300/300
f 301/301 303/303 304/304
f 301/301 304/304 302/302
f 305/305 307/307 311/311
f 305/305 311/311 309/309
f 306/306 310/310 312/312
f 306/306 312/312 308/308
f 309/309 311/311 312/312
f 309/309 312/312 310/310
f 313/313 315/315 319/319
f 313/313 319/319 317/317
f 314/314 318/318 320/320
f 314/314 320/320 316/316
f 317/317 319/319 320/320
f 317/317 320/320 318/318
f 321/321 323/323 327/327
f 321/321 327/327 325/325
f 322/322 326/326 328/328
f 322/322 328/328 324/324
f 325/325 327/327 328/328
f 325/325 328/328 326/326
f 329/329 331/331 335/335
f 329/329 335/335 333/333
f 330/330 334/334 336/336
f 330/330 336/336 332/332
f 333/333 335/335 336/336
f 333/333 336/336 334/334
f 337/337 339/339 343/343
f 337/337 343/343 341/341
f 338/338 342/342 344/344
f 338/338 344/344 340/340
f 341/341 343/343 344/344
f 341/341 344/344 342/342
f 345/345 347/347 351/351
f 345/345 351/351 349/349
f 346/346 350/350 352/352
f 346/346 352/352 348/348
f 349/349 351/351 352/352
f 349/349 352/352 350/350
f 353/353 355/355 359/359
f 353/353 359/359 357/357
f 354/354 358/358 360/360
f 354/354 360/360 356/356
f 357/357 359/359 360/360
f 357/357 360/360 358/358
f 361/361 363/363 367/367
f 361/361 367/367 365/365
f 362/362 366/366 368/368
f 362/362 368/368 364/364
f 365/365 367/367 368/368
f 365/365 368/368 366/366
f 369/369 371/371 375/375
f 369/369 375/375 373/373
f 370/370 374/374 376/376
f 370/370 376/376 372/372
f 373/373 375/375 376/376
f 373/373 376/376 374/374
f 377/377 379/379 383/383
f 377/377 383/383 381/381
f 378/378 382/382 384/384
f 378/378 384/384 380/380
f 381/381 383/383 384/384
f 381/381 384/384 382/382
f 385/385 387/387 391/391
f 385/385 391/391 389/389
f 386/386 390/390 392/392
f 386/386 392/392 388/388
f 389/389 391/391 392/392
f 389/389 392/392 390/390
f 393/393 395/395 399/399
f 393/393 399/399 397/397
f 394/394 398/398 400/400
f 394/394 400/400 396/396
f 397/397 399/399 400/400
f 397/397 400/400 398/398
f 401/401 403/403 407/407
f 401/401 407/407 405/405
f 402/402 406/406 408/408
f 402/402 408/408 404/404
f 405/405 407/407 408/408
f 405/405 408/408 406/406
f 409/409 411/411 415/415
f 409/409 415/415 413/413
f 410/410 414/414 416/416
f 410/410 416/416 412/412
f 413/413 415/415 416/416
f 413/413 416/416 414/414
f 417/417 419/419 423/423
f 417/417 423/423 421/421
f 418/418 422/422 424/424
f 418/418 424/424 420/420
f 421/421 423/423 424/424
f 421/421 424/424 422/422
f 425/425 427/427 431/431
f 425/425 431/431 429/429
f 426/426 430/430 432/432
f 426/426 432/432 428/428
f 429/429 431/431 432/432
f 429/429 432/432 430/430
f 433/433 435/435 439/439
f 433/433 439/439 437/437
f 434/434 438/438 440/440
f 434/434 440/440 436/436
f 437/437 439/439 440/440
f 437/437 440/440 438/438
f 441/441 443/443 447/447
f 441/441 447/447 445/445
f 442/442 446/446 448/448
f 442/442 448/448 444/444
f 445/445 447/447 448/448
f 445/445 448/448 446/446
f 449/449 451/451 455/455
f 449/449 455/455 453/453
f 450/450 454/454 456/456
f 450/450 456/456 452/452
f 453/453 455/455 456/456
f 453/453 456/456 454/454
f 457/457 459/459 463/463
f 457/457 463/463 461/461
f 458/458 462/462 464/464
f 458/458 464/464 460/460
f 461/461 463/463 464/464
f 461/461 464/464 462/462
f 465/465 467/467 471/471
f 465/465 471/471 469/469
f 466/466 470/470 472/472
f 466/466 472/472 468/468
f 469/469 471/471 472/472
f 469/469 472/472 470/470
f 473/473 475/475 479/479
f 473/473 479/479 477/477
f 474/474 478/478 480/480
f 474/474 480/480 476/476
f 477/477 479/479 480/480
f 477/477 480/480 478/478
f 481/481 483/483 487/487
f 481/481 487/487 485/485
f 482/482 486/486 488/488
f 482/482 488/488 484/484
f 485/485 487/487 488/488
f 485/485 488/488 486/486
f 489/489 491/491 495/495
f 489/489 495/495 493/493
f 490/490 494/494 496/496
f 490/490 496/496 492/492
f 493/493 495/495 496/496
f 493/493 496/496 494/494
f 497/497 499/499 503/503
f 497/497 503/503 501/501
f 498/498 502/502 504/504
f 498/498 504/504 500/500
f 501/501 503/503 504/504
f 501/501 504/504 502/502
f 505/505 507/507 511/511
f 505/505 511/511 509/509
f 506/506 510/510 512/512
f 506/506 512/512 508/508
f 509/509 511/511 512/512
f 509/509 512/512 510/510
f 513/513 515/515 519/519
f 513/513 519/519 517/517
f 514/514 518/518 520/520
f 514/514 520/520 516/516
f 517/517 519/519 520/520
f 517/517 520/520 518/518
f 521/521 523/523 527/527
f 521/521 527/527 525/525
f 522/522 526/526 528/528
f 522/522 528/528 524/524
f 525/525 527/527 528/528
f 525/525 528/528 526/526
f 529/529 531/531 535/535
f 529/529 535/535 533/533
f 530/530 534/534 536/536
f 530/530 536/536 532/532
f 533/533 535/535 536/536
f 533/533 536/536 534/534
f 537/537 539/539 543/543
f 537/537 543/543 541/541
f 538/538 542/542 544/544
f 538/538 544/544 540/540
f 541/541 543/543 544/544
f 541/541 544/544 542/542
f 545/545 547/547 551/551
f 545/545 551/551 549/549
f 546/546 550/550 552/552
f 546/546 552/552 548/548
f 549/549 551/551 552/552
f 549/549 552/552 550/550
f 553/553 555/555 559/559
f 553/553 559/559 557/557
f 554/554 558/558 560/560
f 554/554 560/560 556/556
f 557/557 559/559 560/560
f 557/557 560/560 558/558
f 561/561 563/563 567/567
f 561/561 567/567 565/565
f 562/562 566/566 568/568
f 562/562 568/568 564/564
f 565/565 567/567 568/568
f 565/565 568/568 566/566
f 569/569 571/571 575/575
f 569/569 575/575 573/573
f 570/570 574/574 576/576
f 570/570 576/576 572/572
f 573/573 575/575 576/576
f 573/573 576/576 574/574
f 577/577 579/579 583/583
f 577/577 583/583 581/581
f 578/578 582/582 584/584
f 578/578 584/584 580/580
f 581/581 583/583 584/584
f 581/581 584/584 582/582
f 585/585 587/587 591/591
f 585/585 591/591 589/589
f 586/586 590/590 592/592
f 586/586 592/592 588/588
f 589/589 591/591 592/592
f 589/589 592/592 590/590
f 593/593 595/595 599/599
f 593/593 599/599 597/597
f 594/594 598/598 600/600
f 594/594 600/600 596/596
f 597/597 599/599 600/600
f 597/597 600/600 598/598
f 601/601 603/603 607/607
f 601/601 607/607 605/605
f 602/602 606/606 608/608
f 602/602 608/608 604/604
f 605/605 607/607 608/608
f 605/605 608/608 606/606
f 609/609 611/611 615/615
f 609/609 615/615 613/613
f 610/610 614/614 616/616
f 610/610 616/616 612/612
f 613/613 615/615 616/616
f 613/613 616/616 614/614
f 617/617 619/619 623/623
f 617/617 623/623 621/621
f 618/618 622/622 624/624
f 618/618 624/624 620/620
f 621/621 623/623 624/624
f 621/621 624/624 622/622
f 625/625 627/627 631/631
f 625/625 631/631 629/629
f 626/626 630/630 632/632
f 626/626 632/632 628/628
f 629/629 631/631 632/632
f 629/629 632/632 630/630
f 633/633 635/635 639/639
f 633/633 639/639 637/637
f 634/634 638/638 640/640
f 634/634 640/640 636/636
f 637/637 639/639 640/640
f 637/637 640/640 638/638
f 641/641 643/643 647/647
f 641/641 647/647 645/645
f 642/642 646/646 648/648
f 642/642 648/648 644/644
f 645/645 647/647 648/648
f 645/645 648/648 646/646
f 649/649 651/651 655/655
f 649/649 655/655 653/653
f 650/650 654/654 656/656
f 650/650 656/656 652/652
f 653/653 655/655 656/656
f 653/653 656/656 654/654
f 657/657 659/659 663/663
f 657/657 663/663 661/661
f 658/658 662/662 664/664
f 658/658 664/664 660/660
f 661/661 663/663 664/664
f 661/661 664/664 662/662
f 665/665 667/667 671/671
f 665/665 671/671 669/669
f 666/666 670/670 672/672
f 666/666 672/672 668/668
f 669/669 671/671 672/672
f 669/669 672/672 670/670
f 673/673 675/675 679/679
f 673/673 679/679 677/677
f 674/674 678/678 680/680
f 674/674 680/680 676/676
f 677/677 679/679 680/680
f 677/677 680/680 678/678
f 681/681 683/683 687/687
f 681/681 687/687 685/685
f 682/682 686/686 688/688
f 682/682 688/688 684/684
f 685/685 687/687 688/688
f 685/685 688/688 686/686
f 689/689 691/691 695/695
f 689/689 695/695 693/693
f 690/690 694/694 696/696
f 690/690 696/696 692/692
f 693/693 695/695 696/696
f 693/693 696/696 694/694
f 697/697 699/699 703/703
f 697/697 703/703 701/701
f 698/698 702/702 704/704
f 698/698 704/704 700/700
f 701/701 703/703 704/704
f 701/701 704/704 702/702
f 705/705 707/707 711/711
f 705/705 711/711 709/709
f 706/706 710/710 712/712
f 706/706 712/712 708/708
f 709/709 711/711 712/712
f 709/709 712/712 710/710
f 713/713 715/715 719/719
f 713/713 719/719 717/717
f 714/714 718/718 720/720
f 714/714 720/720 716/716
f 717/717 719/719 720/720
f 717/717 720/720 718/718
f 721/721 723/723 727/727
f 721/721 727/727 725/725
f 722/722 726/726 728/728
f 722/722 728/728 724/724
f 725/725 727/727 728/728
f 725/725 728/728 726/726
f 729/729 731/731 735/735
f 729/729 735/735 733/733
f 730/730 734/734 736/736
f 730/730 736/736 732/732
f 733/733 735/735 736/736
f 733/733 736/736 734/734
f 737/737 739/739 743/743
f 737/737 743/743 741/741
f 738/738 742/742 744/744
f 738/738 744/744 740/740
f 741/741 743/743 744/744
f 741/741 744/744 742/742
f 745/745 747/747 751/751
f 745/745 751/751 749/749
f 746/746 750/750 752/752
f 746/746 752/752 748/748
f 749/749 751/751 752/752
f 749/749 752/752 750/750
f 753/753 755/755 759/759
f 753/753 759/759 757/757
f 754/754 758/758 760/760
f 754/754 760/760 756/756
f 757/757 759/759 760/760
f 757/757 760/760 758/758
f 761/761 763/763 767/767
f 761/761 767/767 765/765
f 762/762 766/766 768/768
f 762/762 768/768 764/764
f 765/765 767/767 768/768
f 765/765 768/768 766/766
f 769/769 771/771 775/775
f 769/769 775/775 773/773
f 770/770 774/774 776/776
f 770/770 776/776 772/772
f 773/773 775/775 776/776
f 773/773 776/776 774/774
f 777/777 779/779 783/783
f 777/777 783/783 781/781
f 778/778 782/782 784/784
f 778/778 784/784 780/780
f 781/781 783/783 784/784
f 781/781 784/784 782/782
f 785/785 787/787 791/791
f 785/785 791/791 789/789
f 786/786 790/790 792/792
f 786/786 792/792 788/788
f 789/789 791/791 792/792
f 789/789 792/792 790/790
f 793/793 795/795 799/799
f 793/793 799/799 797/797
f 794/794 798/798 800/800
f 794/794 800/800 796/796
f 797/797 799/799 800/800
f 797/797 800/800 798/798
f 801/801 803/803 807/807
f 801/801 807/807 805/805
f 802/802 806/806 808/808
f 802/802 808/808 804/804
f 805/805 807/807 808/808
f 805/805 808/808 806/806
f 809/809 811/811 815/815
f 809/809 815/815 813/813
f 810/810 814/814 816/816
f 810/810 816/816 812/812
f 813/813 815/815 816/816
f 813/813 816/816 814/814
f 817/817 819/819 823/823
f 817/817 823/823 821/821
f 818/818 822/822 824/824
f 818/818 824/824 820/820
f 821/821 823/823 824/824
f 821/821 824/824 822/822
f 825/825 827/827 831/831
f 825/825 831/831 829/829
f 826/826 830/830 832/832
f 826/826 832/832 828/828
f 829/829 831/831 832/832
f 829/829 832/832 830/830
f 833/833 835/835 839/839
f 833/833 839/839 837/837
f 834/834 838/838 840/840
f 834/834 840/840 836/836
f 837/837 839/839 840/840
f 837/837 840/840 838/838
f 841/841 843/843 847/847
f 841/841 847/847 845/845
f 842/842 846/846 848/848
f 842/842 848/848 844/844
f 845/845 847/847 848/848
f 845/845 848/848 846/846
f 849/849 851/851 855/855
f 849/849 855/855 853/853
f 850/850 854/854 856/856
f 850/850 856/856 852/852
f 853/853 855/855 856/856
f 853/853 856/856 854/854
f 857/857 859/859 863/863
f 857/857 863/863 861/861
f 858/858 862/862 864/864
f 858/858 864/864 860/860
f 861/861 863/863 864/864
f 861/861 864/864 862/862
f 865/865 867/867 871/871
f 865/865 871/871 869/869
f 866/866 870/870 872/872
f 866/866 872/872 868/868
f 869/869 871/871 872/872
f 869/869 872/872 870/870
f 873/873 875/875 879/879
f 873/873 879/879 877/877
f 874/874 878/878 880/880
f 874/874 880/880 876/876
f 877/877 879/879 880/880
f 877/877 880/880 878/878
