# AiCar meshgen
# verts=960 faces=720
# map=icra2026_classic collider
v -10.708651 0.000000 6.271319
v -10.723349 0.000000 6.192681
v -8.675651 0.000000 5.891319
v -8.690349 0.000000 5.812681
v -10.708651 0.350000 6.271319
v -10.723349 0.350000 6.192681
v -8.675651 0.350000 5.891319
v -8.690349 0.350000 5.812681
v -8.655535 0.000000 5.881081
v -8.710465 0.000000 5.822919
v -7.629535 0.000000 4.912081
v -7.684465 0.000000 4.853919
v -8.655535 0.350000 5.881081
v -8.710465 0.350000 5.822919
v -7.629535 0.350000 4.912081
v -7.684465 0.350000 4.853919
v -7.617000 0.000000 4.883000
v -7.697000 0.000000 4.883000
v -7.617000 0.000000 3.572000
v -7.697000 0.000000 3.572000
v -7.617000 0.350000 4.883000
v -7.697000 0.350000 4.883000
v -7.617000 0.350000 3.572000
v -7.697000 0.350000 3.572000
v -7.629802 0.000000 3.542669
v -7.684198 0.000000 3.601331
v -8.674802 0.000000 2.573669
v -8.729198 0.000000 2.632331
v -7.629802 0.350000 3.542669
v -7.684198 0.350000 3.601331
v -8.674802 0.350000 2.573669
v -8.729198 0.350000 2.632331
v -8.699270 0.000000 2.563093
v -8.704730 0.000000 2.642907
v -12.309270 0.000000 2.316093
v -12.314730 0.000000 2.395907
v -8.699270 0.350000 2.563093
v -8.704730 0.350000 2.642907
v -12.309270 0.350000 2.316093
v -12.314730 0.350000 2.395907
v -12.272084 0.000000 2.353402
v -12.351916 0.000000 2.358598
v -12.690084 0.000000 -4.068598
v -12.769916 0.000000 -4.063402
v -12.272084 0.350000 2.353402
v -12.351916 0.350000 2.358598
v -12.690084 0.350000 -4.068598
v -12.769916 0.350000 -4.063402
v -12.701066 0.000000 -4.038381
v -12.758934 0.000000 -4.093619
v -11.903066 0.000000 -4.874381
v -11.960934 0.000000 -4.929619
v -12.701066 0.350000 -4.038381
v -12.758934 0.350000 -4.093619
v -11.903066 0.350000 -4.874381
v -11.960934 0.350000 -4.929619
v -11.929519 0.000000 -4.862077
v -11.934481 0.000000 -4.941923
v -2.144519 0.000000 -5.470077
v -2.149481 0.000000 -5.549923
v -11.929519 0.350000 -4.862077
v -11.934481 0.350000 -4.941923
v -2.144519 0.350000 -5.470077
v -2.149481 0.350000 -5.549923
v -2.173725 0.000000 -5.480238
v -2.120275 0.000000 -5.539762
v -1.242725 0.000000 -4.644238
v -1.189275 0.000000 -4.703762
v -2.173725 0.350000 -5.480238
v -2.120275 0.350000 -5.539762
v -1.242725 0.350000 -4.644238
v -1.189275 0.350000 -4.703762
v -1.255999 0.000000 -4.673672
v -1.176001 0.000000 -4.674328
v -1.179999 0.000000 4.598328
v -1.100001 0.000000 4.597672
v -1.255999 0.350000 -4.673672
v -1.176001 0.350000 -4.674328
v -1.179999 0.350000 4.598328
v -1.100001 0.350000 4.597672
v -1.155983 0.000000 4.561332
v -1.124017 0.000000 4.634668
v -1.896983 0.000000 4.884332
v -1.865017 0.000000 4.957668
v -1.155983 0.350000 4.561332
v -1.124017 0.350000 4.634668
v -1.896983 0.350000 4.884332
v -1.865017 0.350000 4.957668
v -1.852716 0.000000 4.892716
v -1.909284 0.000000 4.949284
v -2.403716 0.000000 4.341716
v -2.460284 0.000000 4.398284
v -1.852716 0.350000 4.892716
v -1.909284 0.350000 4.949284
v -2.403716 0.350000 4.341716
v -2.460284 0.350000 4.398284
v -2.392014 0.000000 4.368938
v -2.471986 0.000000 4.371062
v -2.620014 0.000000 -4.219062
v -2.699986 0.000000 -4.216938
v -2.392014 0.350000 4.368938
v -2.471986 0.350000 4.371062
v -2.620014 0.350000 -4.219062
v -2.699986 0.350000 -4.216938
v -2.688242 0.000000 -4.246326
v -2.631758 0.000000 -4.189674
v -9.129242 0.000000 2.175674
v -9.072758 0.000000 2.232326
v -2.688242 0.350000 -4.246326
v -2.631758 0.350000 -4.189674
v -9.129242 0.350000 2.175674
v -9.072758 0.350000 2.232326
v -9.117762 0.000000 2.240318
v -9.084238 0.000000 2.167682
v -7.882762 0.000000 2.810318
v -7.849238 0.000000 2.737682
v -9.117762 0.350000 2.240318
v -9.084238 0.350000 2.167682
v -7.882762 0.350000 2.810318
v -7.849238 0.350000 2.737682
v -7.900996 0.000000 2.793373
v -7.831004 0.000000 2.754627
v -7.311996 0.000000 3.857373
v -7.242004 0.000000 3.818627
v -7.900996 0.350000 2.793373
v -7.831004 0.350000 2.754627
v -7.311996 0.350000 3.857373
v -7.242004 0.350000 3.818627
v -7.315571 0.000000 3.827404
v -7.238429 0.000000 3.848596
v -7.790571 0.000000 5.556404
v -7.713429 0.000000 5.577596
v -7.315571 0.350000 3.827404
v -7.238429 0.350000 3.848596
v -7.790571 0.350000 5.556404
v -7.713429 0.350000 5.577596
v -7.769293 0.000000 5.530931
v -7.734707 0.000000 5.603069
v -9.156293 0.000000 6.195931
v -9.121707 0.000000 6.268069
v -7.769293 0.350000 5.530931
v -7.734707 0.350000 5.603069
v -9.156293 0.350000 6.195931
v -9.121707 0.350000 6.268069
v -9.139000 0.000000 6.192000
v -9.139000 0.000000 6.272000
v -10.716000 0.000000 6.192000
v -10.716000 0.000000 6.272000
v -9.139000 0.350000 6.192000
v -9.139000 0.350000 6.272000
v -10.716000 0.350000 6.192000
v -10.716000 0.350000 6.272000
v -16.015407 0.000000 7.275014
v -15.980593 0.000000 7.202986
v -14.875407 0.000000 7.826014
v -14.840593 0.000000 7.753986
v -16.015407 0.350000 7.275014
v -15.980593 0.350000 7.202986
v -14.875407 0.350000 7.826014
v -14.840593 0.350000 7.753986
v -14.857014 0.000000 7.829988
v -14.858986 0.000000 7.750012
v -6.383014 0.000000 7.620988
v -6.384986 0.000000 7.541012
v -14.857014 0.350000 7.829988
v -14.858986 0.350000 7.750012
v -6.383014 0.350000 7.620988
v -6.384986 0.350000 7.541012
v -6.359012 0.000000 7.612235
v -6.408988 0.000000 7.549765
v -5.219012 0.000000 6.700235
v -5.268988 0.000000 6.637765
v -6.359012 0.350000 7.612235
v -6.408988 0.350000 7.549765
v -5.219012 0.350000 6.700235
v -5.268988 0.350000 6.637765
v -5.206547 0.000000 6.683045
v -5.281453 0.000000 6.654955
v -4.693547 0.000000 5.315045
v -4.768453 0.000000 5.286955
v -5.206547 0.350000 6.683045
v -5.281453 0.350000 6.654955
v -4.693547 0.350000 5.315045
v -4.768453 0.350000 5.286955
v -4.750610 0.000000 5.335863
v -4.711390 0.000000 5.266137
v -4.446610 0.000000 5.506863
v -4.407390 0.000000 5.437137
v -4.750610 0.350000 5.335863
v -4.711390 0.350000 5.266137
v -4.446610 0.350000 5.506863
v -4.407390 0.350000 5.437137
v -4.461948 0.000000 5.491459
v -4.392052 0.000000 5.452541
v -3.530948 0.000000 7.163459
v -3.461052 0.000000 7.124541
v -4.461948 0.350000 5.491459
v -4.392052 0.350000 5.452541
v -3.530948 0.350000 7.163459
v -3.461052 0.350000 7.124541
v -3.511008 0.000000 7.181078
v -3.480992 0.000000 7.106922
v -1.915008 0.000000 7.827078
v -1.884992 0.000000 7.752922
v -3.511008 0.350000 7.181078
v -3.480992 0.350000 7.106922
v -1.915008 0.350000 7.827078
v -1.884992 0.350000 7.752922
v -1.887823 0.000000 7.828102
v -1.912177 0.000000 7.751898
v -0.044823 0.000000 7.239102
v -0.069177 0.000000 7.162898
v -1.887823 0.350000 7.828102
v -1.912177 0.350000 7.751898
v -0.044823 0.350000 7.239102
v -0.069177 0.350000 7.162898
v -0.023452 0.000000 7.222784
v -0.090548 0.000000 7.179216
v 0.926548 0.000000 5.759784
v 0.859452 0.000000 5.716216
v -0.023452 0.350000 7.222784
v -0.090548 0.350000 7.179216
v 0.926548 0.350000 5.759784
v 0.859452 0.350000 5.716216
v 0.933000 0.000000 5.738074
v 0.853000 0.000000 5.737926
v 0.952000 0.000000 -4.597926
v 0.872000 0.000000 -4.598074
v 0.933000 0.350000 5.738074
v 0.853000 0.350000 5.737926
v 0.952000 0.350000 -4.597926
v 0.872000 0.350000 -4.598074
v 0.948356 0.000000 -4.614681
v 0.875644 0.000000 -4.581319
v 0.207356 0.000000 -6.229681
v 0.134644 0.000000 -6.196319
v 0.948356 0.350000 -4.614681
v 0.875644 0.350000 -4.581319
v 0.207356 0.350000 -6.229681
v 0.134644 0.350000 -6.196319
v 0.194460 0.000000 -6.245398
v 0.147540 0.000000 -6.180602
v -1.458540 0.000000 -7.442398
v -1.505460 0.000000 -7.377602
v 0.194460 0.350000 -6.245398
v 0.147540 0.350000 -6.180602
v -1.458540 0.350000 -7.442398
v -1.505460 0.350000 -7.377602
v -1.477816 0.000000 -7.449781
v -1.486184 0.000000 -7.370219
v -12.497816 0.000000 -8.608781
v -12.506184 0.000000 -8.529219
v -1.477816 0.350000 -7.449781
v -1.486184 0.350000 -7.370219
v -12.497816 0.350000 -8.608781
v -12.506184 0.350000 -8.529219
v -12.518505 0.000000 -8.605436
v -12.485495 0.000000 -8.532564
v -14.741505 0.000000 -7.598436
v -14.708495 0.000000 -7.525564
v -12.518505 0.350000 -8.605436
v -12.485495 0.350000 -8.532564
v -14.741505 0.350000 -7.598436
v -14.708495 0.350000 -7.525564
v -14.758108 0.000000 -7.584446
v -14.691892 0.000000 -7.539554
v -16.278108 0.000000 -5.342446
v -16.211892 0.000000 -5.297554
v -14.758108 0.350000 -7.584446
v -14.691892 0.350000 -7.539554
v -16.278108 0.350000 -5.342446
v -16.211892 0.350000 -5.297554
v -16.285000 0.000000 -5.320000
v -16.205000 0.000000 -5.320000
v -16.285000 0.000000 3.211000
v -16.205000 0.000000 3.211000
v -16.285000 0.350000 -5.320000
v -16.205000 0.350000 -5.320000
v -16.285000 0.350000 3.211000
v -16.205000 0.350000 3.211000
v -16.267302 0.000000 3.244206
v -16.222698 0.000000 3.177794
v -14.994302 0.000000 4.099206
v -14.949698 0.000000 4.032794
v -16.267302 0.350000 3.244206
v -16.222698 0.350000 3.177794
v -14.994302 0.350000 4.099206
v -14.949698 0.350000 4.032794
v -14.997224 0.000000 4.034955
v -14.946776 0.000000 4.097045
v -15.909224 0.000000 4.775955
v -15.858776 0.000000 4.838045
v -14.997224 0.350000 4.034955
v -14.946776 0.350000 4.097045
v -15.909224 0.350000 4.775955
v -15.858776 0.350000 4.838045
v -15.919777 0.000000 4.789111
v -15.848223 0.000000 4.824889
v -16.489777 0.000000 5.929111
v -16.418223 0.000000 5.964889
v -15.919777 0.350000 4.789111
v -15.848223 0.350000 4.824889
v -16.489777 0.350000 5.929111
v -16.418223 0.350000 5.964889
v -16.491720 0.000000 5.960313
v -16.416280 0.000000 5.933687
v -16.035720 0.000000 7.252313
v -15.960280 0.000000 7.225687
v -16.491720 0.350000 5.960313
v -16.416280 0.350000 5.933687
v -16.035720 0.350000 7.252313
v -15.960280 0.350000 7.225687
v -16.264906 0.000000 7.319032
v -16.339094 0.000000 7.348968
v -16.701906 0.000000 6.236032
v -16.776094 0.000000 6.265968
v -16.264906 0.350000 7.319032
v -16.339094 0.350000 7.348968
v -16.701906 0.350000 6.236032
v -16.776094 0.350000 6.265968
v -16.701100 0.000000 6.263791
v -16.776900 0.000000 6.238209
v -16.188100 0.000000 4.743791
v -16.263900 0.000000 4.718209
v -16.701100 0.350000 6.263791
v -16.776900 0.350000 6.238209
v -16.188100 0.350000 4.743791
v -16.263900 0.350000 4.718209
v -16.186811 0.000000 4.739016
v -16.265189 0.000000 4.722984
v -16.015811 0.000000 3.903016
v -16.094189 0.000000 3.886984
v -16.186811 0.350000 4.739016
v -16.265189 0.350000 4.722984
v -16.015811 0.350000 3.903016
v -16.094189 0.350000 3.886984
v -16.019905 0.000000 3.875808
v -16.090095 0.000000 3.914192
v -16.684905 0.000000 2.659808
v -16.755095 0.000000 2.698192
v -16.019905 0.350000 3.875808
v -16.090095 0.350000 3.914192
v -16.684905 0.350000 2.659808
v -16.755095 0.350000 2.698192
v -16.680046 0.000000 2.680928
v -16.759954 0.000000 2.677072
v -16.262046 0.000000 -5.983072
v -16.341954 0.000000 -5.986928
v -16.680046 0.350000 2.680928
v -16.759954 0.350000 2.677072
v -16.262046 0.350000 -5.983072
v -16.341954 0.350000 -5.986928
v -16.270206 0.000000 -5.960727
v -16.333794 0.000000 -6.009273
v -14.921206 0.000000 -7.727727
v -14.984794 0.000000 -7.776273
v -16.270206 0.350000 -5.960727
v -16.333794 0.350000 -6.009273
v -14.921206 0.350000 -7.727727
v -14.984794 0.350000 -7.776273
v -14.936383 0.000000 -7.715615
v -14.969617 0.000000 -7.788385
v -12.523383 0.000000 -8.817615
v -12.556617 0.000000 -8.890385
v -14.936383 0.350000 -7.715615
v -14.969617 0.350000 -7.788385
v -12.523383 0.350000 -8.817615
v -12.556617 0.350000 -8.890385
v -12.544337 0.000000 -8.814236
v -12.535663 0.000000 -8.893764
v -1.220337 0.000000 -7.579236
v -1.211663 0.000000 -7.658764
v -12.544337 0.350000 -8.814236
v -12.535663 0.350000 -8.893764
v -1.220337 0.350000 -7.579236
v -1.211663 0.350000 -7.658764
v -1.239938 0.000000 -7.586954
v -1.192062 0.000000 -7.651046
v 0.337062 0.000000 -6.408954
v 0.384938 0.000000 -6.473046
v -1.239938 0.350000 -7.586954
v -1.192062 0.350000 -7.651046
v 0.337062 0.350000 -6.408954
v 0.384938 0.350000 -6.473046
v 0.324704 0.000000 -6.424189
v 0.397296 0.000000 -6.457811
v 1.160704 0.000000 -4.619189
v 1.233296 0.000000 -4.652811
v 0.324704 0.350000 -6.424189
v 0.397296 0.350000 -6.457811
v 1.160704 0.350000 -4.619189
v 1.233296 0.350000 -4.652811
v 1.157001 0.000000 -4.636286
v 1.236999 0.000000 -4.635714
v 1.081001 0.000000 5.984714
v 1.160999 0.000000 5.985286
v 1.157001 0.350000 -4.636286
v 1.236999 0.350000 -4.635714
v 1.081001 0.350000 5.984714
v 1.160999 0.350000 5.985286
v 1.087923 0.000000 5.962508
v 1.154077 0.000000 6.007492
v 0.118923 0.000000 7.387508
v 0.185077 0.000000 7.432492
v 1.087923 0.350000 5.962508
v 1.154077 0.350000 6.007492
v 0.118923 0.350000 7.387508
v 0.185077 0.350000 7.432492
v 0.139872 0.000000 7.371883
v 0.164128 0.000000 7.448117
v -1.950128 0.000000 8.036883
v -1.925872 0.000000 8.113117
v 0.139872 0.350000 7.371883
v 0.164128 0.350000 7.448117
v -1.950128 0.350000 8.036883
v -1.925872 0.350000 8.113117
v -1.922671 0.000000 8.038054
v -1.953329 0.000000 8.111946
v -3.708671 0.000000 7.297054
v -3.739329 0.000000 7.370946
v -1.922671 0.350000 8.038054
v -1.953329 0.350000 8.111946
v -3.708671 0.350000 7.297054
v -3.739329 0.350000 7.370946
v -3.706563 0.000000 7.298001
v -3.741437 0.000000 7.369999
v -4.922563 0.000000 6.709001
v -4.957437 0.000000 6.780999
v -3.706563 0.350000 7.298001
v -3.741437 0.350000 7.369999
v -4.922563 0.350000 6.709001
v -4.957437 0.350000 6.780999
v -4.967176 0.000000 6.715650
v -4.912824 0.000000 6.774350
v -5.993176 0.000000 7.665650
v -5.938824 0.000000 7.724350
v -4.967176 0.350000 6.715650
v -4.912824 0.350000 6.774350
v -5.993176 0.350000 7.665650
v -5.938824 0.350000 7.724350
v -5.977441 0.000000 7.656671
v -5.954559 0.000000 7.733329
v -7.250441 0.000000 8.036671
v -7.227559 0.000000 8.113329
v -5.977441 0.350000 7.656671
v -5.954559 0.350000 7.733329
v -7.250441 0.350000 8.036671
v -7.227559 0.350000 8.113329
v -7.237835 0.000000 8.035017
v -7.240165 0.000000 8.114983
v -15.711835 0.000000 7.788017
v -15.714165 0.000000 7.867983
v -7.237835 0.350000 8.035017
v -7.240165 0.350000 8.114983
v -15.711835 0.350000 7.788017
v -15.714165 0.350000 7.867983
v -15.687296 0.000000 7.797352
v -15.738704 0.000000 7.858648
v -16.276296 0.000000 7.303352
v -16.327704 0.000000 7.364648
v -15.687296 0.350000 7.797352
v -15.738704 0.350000 7.858648
v -16.276296 0.350000 7.303352
v -16.327704 0.350000 7.364648
v -1.461000 0.000000 4.560000
v -1.541000 0.000000 4.560000
v -1.461000 0.000000 -4.598000
v -1.541000 0.000000 -4.598000
v -1.461000 0.350000 4.560000
v -1.541000 0.350000 4.560000
v -1.461000 0.350000 -4.598000
v -1.541000 0.350000 -4.598000
v -1.478263 0.000000 -4.630909
v -1.523737 0.000000 -4.565091
v -2.523263 0.000000 -5.352909
v -2.568737 0.000000 -5.287091
v -1.478263 0.350000 -4.630909
v -1.523737 0.350000 -4.565091
v -2.523263 0.350000 -5.352909
v -2.568737 0.350000 -5.287091
v -2.549236 0.000000 -5.359869
v -2.542764 0.000000 -5.280131
v -9.104236 0.000000 -4.827869
v -9.097764 0.000000 -4.748131
v -2.549236 0.350000 -5.359869
v -2.542764 0.350000 -5.280131
v -9.104236 0.350000 -4.827869
v -9.097764 0.350000 -4.748131
v -9.102665 0.000000 -4.748035
v -9.099335 0.000000 -4.827965
v -2.718665 0.000000 -4.482035
v -2.715335 0.000000 -4.561965
v -9.102665 0.350000 -4.748035
v -9.099335 0.350000 -4.827965
v -2.718665 0.350000 -4.482035
v -2.715335 0.350000 -4.561965
v -2.743197 0.000000 -4.491772
v -2.690803 0.000000 -4.552228
v -2.173197 0.000000 -3.997772
v -2.120803 0.000000 -4.058228
v -2.743197 0.350000 -4.491772
v -2.690803 0.350000 -4.552228
v -2.173197 0.350000 -3.997772
v -2.120803 0.350000 -4.058228
v -2.186981 0.000000 -4.026770
v -2.107019 0.000000 -4.029230
v -1.920981 0.000000 4.618230
v -1.841019 0.000000 4.615770
v -2.186981 0.350000 -4.026770
v -2.107019 0.350000 -4.029230
v -1.920981 0.350000 4.618230
v -1.841019 0.350000 4.615770
v -1.875066 0.000000 4.656557
v -1.886934 0.000000 4.577443
v -1.495066 0.000000 4.599557
v -1.506934 0.000000 4.520443
v -1.875066 0.350000 4.656557
v -1.886934 0.350000 4.577443
v -1.495066 0.350000 4.599557
v -1.506934 0.350000 4.520443
v -11.894414 0.000000 2.236686
v -11.969586 0.000000 2.209314
v -9.348414 0.000000 -4.755314
v -9.423586 0.000000 -4.782686
v -11.894414 0.350000 2.236686
v -11.969586 0.350000 2.209314
v -9.348414 0.350000 -4.755314
v -9.423586 0.350000 -4.782686
v -9.390534 0.000000 -4.808742
v -9.381466 0.000000 -4.729258
v -12.221534 0.000000 -4.485742
v -12.212466 0.000000 -4.406258
v -9.390534 0.350000 -4.808742
v -9.381466 0.350000 -4.729258
v -12.221534 0.350000 -4.485742
v -12.212466 0.350000 -4.406258
v -12.256972 0.000000 -4.447499
v -12.177028 0.000000 -4.444501
v -12.484972 0.000000 1.632501
v -12.405028 0.000000 1.635499
v -12.256972 0.350000 -4.447499
v -12.177028 0.350000 -4.444501
v -12.484972 0.350000 1.632501
v -12.405028 0.350000 1.635499
v -12.475163 0.000000 1.660271
v -12.414837 0.000000 1.607729
v -11.962163 0.000000 2.249271
v -11.901837 0.000000 2.196729
v -12.475163 0.350000 1.660271
v -12.414837 0.350000 1.607729
v -11.962163 0.350000 2.249271
v -11.901837 0.350000 2.196729
v -14.590064 0.000000 -0.187731
v -14.669936 0.000000 -0.192269
v -14.305064 0.000000 -5.203731
v -14.384936 0.000000 -5.208269
v -14.590064 0.350000 -0.187731
v -14.669936 0.350000 -0.192269
v -14.305064 0.350000 -5.203731
v -14.384936 0.350000 -5.208269
v -14.314667 0.000000 -5.179925
v -14.375333 0.000000 -5.232075
v -13.383667 0.000000 -6.262925
v -13.444333 0.000000 -6.315075
v -14.314667 0.350000 -5.179925
v -14.375333 0.350000 -5.232075
v -13.383667 0.350000 -6.262925
v -13.444333 0.350000 -6.315075
v -13.400124 0.000000 -6.251484
v -13.427876 0.000000 -6.326516
v -12.013124 0.000000 -6.764484
v -12.040876 0.000000 -6.839516
v -13.400124 0.350000 -6.251484
v -13.427876 0.350000 -6.326516
v -12.013124 0.350000 -6.764484
v -12.040876 0.350000 -6.839516
v -12.066649 0.000000 -6.796713
v -11.987351 0.000000 -6.807287
v -12.028649 0.000000 -6.511713
v -11.949351 0.000000 -6.522287
v -12.066649 0.350000 -6.796713
v -11.987351 0.350000 -6.807287
v -12.028649 0.350000 -6.511713
v -11.949351 0.350000 -6.522287
v -12.005203 0.000000 -6.553572
v -11.972797 0.000000 -6.480428
v -13.506203 0.000000 -5.888572
v -13.473797 0.000000 -5.815428
v -12.005203 0.350000 -6.553572
v -11.972797 0.350000 -6.480428
v -13.506203 0.350000 -5.888572
v -13.473797 0.350000 -5.815428
v -13.524300 0.000000 -5.872580
v -13.455700 0.000000 -5.831420
v -14.322300 0.000000 -4.542580
v -14.253700 0.000000 -4.501420
v -13.524300 0.350000 -5.872580
v -13.455700 0.350000 -5.831420
v -14.322300 0.350000 -4.542580
v -14.253700 0.350000 -4.501420
v -14.327876 0.000000 -4.525148
v -14.248124 0.000000 -4.518852
v -14.669876 0.000000 -0.193148
v -14.590124 0.000000 -0.186852
v -14.327876 0.350000 -4.525148
v -14.248124 0.350000 -4.518852
v -14.669876 0.350000 -0.193148
v -14.590124 0.350000 -0.186852
v -4.406917 0.000000 1.283482
v -4.485083 0.000000 1.300518
v -4.729917 0.000000 -0.198518
v -4.808083 0.000000 -0.181482
v -4.406917 0.350000 1.283482
v -4.485083 0.350000 1.300518
v -4.729917 0.350000 -0.198518
v -4.808083 0.350000 -0.181482
v -4.774201 0.000000 -0.229660
v -4.763799 0.000000 -0.150340
v -5.933201 0.000000 -0.077660
v -5.922799 0.000000 0.001660
v -4.774201 0.350000 -0.229660
v -4.763799 0.350000 -0.150340
v -5.933201 0.350000 -0.077660
v -5.922799 0.350000 0.001660
v -5.890988 0.000000 -0.053169
v -5.965012 0.000000 -0.022831
v -6.365988 0.000000 -1.212169
v -6.440012 0.000000 -1.181831
v -5.890988 0.350000 -0.053169
v -5.965012 0.350000 -0.022831
v -6.365988 0.350000 -1.212169
v -6.440012 0.350000 -1.181831
v -6.378797 0.000000 -1.165154
v -6.427203 0.000000 -1.228846
v -5.428797 0.000000 -1.887154
v -5.477203 0.000000 -1.950846
v -6.378797 0.350000 -1.165154
v -6.427203 0.350000 -1.228846
v -5.428797 0.350000 -1.887154
v -5.477203 0.350000 -1.950846
v -5.470197 0.000000 -1.882886
v -5.435803 0.000000 -1.955114
v -4.672197 0.000000 -1.502886
v -4.637803 0.000000 -1.575114
v -5.470197 0.350000 -1.882886
v -5.435803 0.350000 -1.955114
v -4.672197 0.350000 -1.502886
v -4.637803 0.350000 -1.575114
v -4.694891 0.000000 -1.536055
v -4.615109 0.000000 -1.541945
v -4.485891 0.000000 1.294945
v -4.406109 0.000000 1.289055
v -4.694891 0.350000 -1.536055
v -4.615109 0.350000 -1.541945
v -4.485891 0.350000 1.294945
v -4.406109 0.350000 1.289055
v -5.690522 0.000000 -0.208139
v -5.709478 0.000000 -0.285861
v -4.911522 0.000000 -0.398139
v -4.930478 0.000000 -0.475861
v -5.690522 0.350000 -0.208139
v -5.709478 0.350000 -0.285861
v -4.911522 0.350000 -0.398139
v -4.930478 0.350000 -0.475861
v -4.881858 0.000000 -0.428760
v -4.960142 0.000000 -0.445240
v -4.729858 0.000000 -1.150760
v -4.808142 0.000000 -1.167240
v -4.881858 0.350000 -0.428760
v -4.960142 0.350000 -0.445240
v -4.729858 0.350000 -1.150760
v -4.808142 0.350000 -1.167240
v -4.741324 0.000000 -1.187880
v -4.796676 0.000000 -1.130120
v -5.197324 0.000000 -1.624880
v -5.252676 0.000000 -1.567120
v -4.741324 0.350000 -1.187880
v -4.796676 0.350000 -1.130120
v -5.197324 0.350000 -1.624880
v -5.252676 0.350000 -1.567120
v -5.237649 0.000000 -1.633947
v -5.212351 0.000000 -1.558053
v -6.035649 0.000000 -1.367947
v -6.010351 0.000000 -1.292053
v -5.237649 0.350000 -1.633947
v -5.212351 0.350000 -1.558053
v -6.035649 0.350000 -1.367947
v -6.010351 0.350000 -1.292053
v -6.062574 0.000000 -1.335820
v -5.983426 0.000000 -1.324180
v -6.157574 0.000000 -0.689820
v -6.078426 0.000000 -0.678180
v -6.062574 0.350000 -1.335820
v -5.983426 0.350000 -1.324180
v -6.157574 0.350000 -0.689820
v -6.078426 0.350000 -0.678180
v -6.146906 0.000000 -0.656351
v -6.089094 0.000000 -0.711649
v -5.728906 0.000000 -0.219351
v -5.671094 0.000000 -0.274649
v -6.146906 0.350000 -0.656351
v -6.089094 0.350000 -0.711649
v -5.728906 0.350000 -0.219351
v -5.671094 0.350000 -0.274649
v -11.818000 0.000000 4.410000
v -11.818000 0.000000 4.330000
v -11.533000 0.000000 4.410000
v -11.533000 0.000000 4.330000
v -11.818000 0.350000 4.410000
v -11.818000 0.350000 4.330000
v -11.533000 0.350000 4.410000
v -11.533000 0.350000 4.330000
v -11.533000 0.000000 4.330000
v -11.533000 0.000000 4.410000
v -11.818000 0.000000 4.330000
v -11.818000 0.000000 4.410000
v -11.533000 0.350000 4.330000
v -11.533000 0.350000 4.410000
v -11.818000 0.350000 4.330000
v -11.818000 0.350000 4.410000
v -4.731000 0.000000 3.631000
v -4.731000 0.000000 3.551000
v -4.446000 0.000000 3.631000
v -4.446000 0.000000 3.551000
v -4.731000 0.350000 3.631000
v -4.731000 0.350000 3.551000
v -4.446000 0.350000 3.631000
v -4.446000 0.350000 3.551000
v -4.446000 0.000000 3.551000
v -4.446000 0.000000 3.631000
v -4.731000 0.000000 3.551000
v -4.731000 0.000000 3.631000
v -4.446000 0.350000 3.551000
v -4.446000 0.350000 3.631000
v -4.731000 0.350000 3.551000
v -4.731000 0.350000 3.631000
v -13.015000 0.000000 6.272000
v -13.015000 0.000000 6.192000
v -12.730000 0.000000 6.272000
v -12.730000 0.000000 6.192000
v -13.015000 0.350000 6.272000
v -13.015000 0.350000 6.192000
v -12.730000 0.350000 6.272000
v -12.730000 0.350000 6.192000
v -12.730000 0.000000 6.192000
v -12.730000 0.000000 6.272000
v -13.015000 0.000000 6.192000
v -13.015000 0.000000 6.272000
v -12.730000 0.350000 6.192000
v -12.730000 0.350000 6.272000
v -13.015000 0.350000 6.192000
v -13.015000 0.350000 6.272000
v -9.519000 0.000000 -6.477000
v -9.519000 0.000000 -6.557000
v -9.253000 0.000000 -6.477000
v -9.253000 0.000000 -6.557000
v -9.519000 0.350000 -6.477000
v -9.519000 0.350000 -6.557000
v -9.253000 0.350000 -6.477000
v -9.253000 0.350000 -6.557000
v -9.253000 0.000000 -6.557000
v -9.253000 0.000000 -6.477000
v -9.519000 0.000000 -6.557000
v -9.519000 0.000000 -6.477000
v -9.253000 0.350000 -6.557000
v -9.253000 0.350000 -6.477000
v -9.519000 0.350000 -6.557000
v -9.519000 0.350000 -6.477000
v -9.519000 0.000000 4.410000
v -9.519000 0.000000 4.330000
v -9.253000 0.000000 4.410000
v -9.253000 0.000000 4.330000
v -9.519000 0.350000 4.410000
v -9.519000 0.350000 4.330000
v -9.253000 0.350000 4.410000
v -9.253000 0.350000 4.330000
v -9.253000 0.000000 4.330000
v -9.253000 0.000000 4.410000
v -9.519000 0.000000 4.330000
v -9.519000 0.000000 4.410000
v -9.253000 0.350000 4.330000
v -9.253000 0.350000 4.410000
v -9.519000 0.350000 4.330000
v -9.519000 0.350000 4.410000
v -12.388000 0.000000 4.410000
v -12.388000 0.000000 4.330000
v -12.122000 0.000000 4.410000
v -12.122000 0.000000 4.330000
v -12.388000 0.350000 4.410000
v -12.388000 0.350000 4.330000
v -12.122000 0.350000 4.410000
v -12.122000 0.350000 4.330000
v -12.122000 0.000000 4.330000
v -12.122000 0.000000 4.410000
v -12.388000 0.000000 4.330000
v -12.388000 0.000000 4.410000
v -12.122000 0.350000 4.330000
v -12.122000 0.350000 4.410000
v -12.388000 0.350000 4.330000
v -12.388000 0.350000 4.410000
v -12.958000 0.000000 4.410000
v -12.958000 0.000000 4.330000
v -12.692000 0.000000 4.410000
v -12.692000 0.000000 4.330000
v -12.958000 0.350000 4.410000
v -12.958000 0.350000 4.330000
v -12.692000 0.350000 4.410000
v -12.692000 0.350000 4.330000
v -12.692000 0.000000 4.330000
v -12.692000 0.000000 4.410000
v -12.958000 0.000000 4.330000
v -12.958000 0.000000 4.410000
v -12.692000 0.350000 4.330000
v -12.692000 0.350000 4.410000
v -12.958000 0.350000 4.330000
v -12.958000 0.350000 4.410000
v -10.089000 0.000000 -6.477000
v -10.089000 0.000000 -6.557000
v -9.823000 0.000000 -6.477000
v -9.823000 0.000000 -6.557000
v -10.089000 0.350000 -6.477000
v -10.089000 0.350000 -6.557000
v -9.823000 0.350000 -6.477000
v -9.823000 0.350000 -6.557000
v -9.823000 0.000000 -6.557000
v -9.823000 0.000000 -6.477000
v -10.089000 0.000000 -6.557000
v -10.089000 0.000000 -6.477000
v -9.823000 0.350000 -6.557000
v -9.823000 0.350000 -6.477000
v -10.089000 0.350000 -6.557000
v -10.089000 0.350000 -6.477000
v -10.659000 0.000000 -6.477000
v -10.659000 0.000000 -6.557000
v -10.393000 0.000000 -6.477000
v -10.393000 0.000000 -6.557000
v -10.659000 0.350000 -6.477000
v -10.659000 0.350000 -6.557000
v -10.393000 0.350000 -6.477000
v -10.393000 0.350000 -6.557000
v -10.393000 0.000000 -6.557000
v -10.393000 0.000000 -6.477000
v -10.659000 0.000000 -6.557000
v -10.659000 0.000000 -6.477000
v -10.393000 0.350000 -6.557000
v -10.393000 0.350000 -6.477000
v -10.659000 0.350000 -6.557000
v -10.659000 0.350000 -6.477000
v -14.630000 0.000000 0.420000
v -14.630000 0.000000 0.340000
v -14.345000 0.000000 0.420000
v -14.345000 0.000000 0.340000
v -14.630000 0.350000 0.420000
v -14.630000 0.350000 0.340000
v -14.345000 0.350000 0.420000
v -14.345000 0.350000 0.340000
v -14.345000 0.000000 0.340000
v -14.345000 0.000000 0.420000
v -14.630000 0.000000 0.340000
v -14.630000 0.000000 0.420000
v -14.345000 0.350000 0.340000
v -14.345000 0.350000 0.420000
v -14.630000 0.350000 0.340000
v -14.630000 0.350000 0.420000
v -14.630000 0.000000 0.990000
v -14.630000 0.000000 0.910000
v -14.345000 0.000000 0.990000
v -14.345000 0.000000 0.910000
v -14.630000 0.350000 0.990000
v -14.630000 0.350000 0.910000
v -14.345000 0.350000 0.990000
v -14.345000 0.350000 0.910000
v -14.345000 0.000000 0.910000
v -14.345000 0.000000 0.990000
v -14.630000 0.000000 0.910000
v -14.630000 0.000000 0.990000
v -14.345000 0.350000 0.910000
v -14.345000 0.350000 0.990000
v -14.630000 0.350000 0.910000
v -14.630000 0.350000 0.990000
v -14.630000 0.000000 1.560000
v -14.630000 0.000000 1.480000
v -14.345000 0.000000 1.560000
v -14.345000 0.000000 1.480000
v -14.630000 0.350000 1.560000
v -14.630000 0.350000 1.480000
v -14.345000 0.350000 1.560000
v -14.345000 0.350000 1.480000
v -14.345000 0.000000 1.480000
v -14.345000 0.000000 1.560000
v -14.630000 0.000000 1.480000
v -14.630000 0.000000 1.560000
v -14.345000 0.350000 1.480000
v -14.345000 0.350000 1.560000
v -14.630000 0.350000 1.480000
v -14.630000 0.350000 1.560000
v -4.731000 0.000000 1.902000
v -4.731000 0.000000 1.822000
v -4.446000 0.000000 1.902000
v -4.446000 0.000000 1.822000
v -4.731000 0.350000 1.902000
v -4.731000 0.350000 1.822000
v -4.446000 0.350000 1.902000
v -4.446000 0.350000 1.822000
v -4.446000 0.000000 1.822000
v -4.446000 0.000000 1.902000
v -4.731000 0.000000 1.822000
v -4.731000 0.000000 1.902000
v -4.446000 0.350000 1.822000
v -4.446000 0.350000 1.902000
v -4.731000 0.350000 1.822000
v -4.731000 0.350000 1.902000
v -4.731000 0.000000 2.472000
v -4.731000 0.000000 2.392000
v -4.446000 0.000000 2.472000
v -4.446000 0.000000 2.392000
v -4.731000 0.350000 2.472000
v -4.731000 0.350000 2.392000
v -4.446000 0.350000 2.472000
v -4.446000 0.350000 2.392000
v -4.446000 0.000000 2.392000
v -4.446000 0.000000 2.472000
v -4.731000 0.000000 2.392000
v -4.731000 0.000000 2.472000
v -4.446000 0.350000 2.392000
v -4.446000 0.350000 2.472000
v -4.731000 0.350000 2.392000
v -4.731000 0.350000 2.472000
v -4.731000 0.000000 3.042000
v -4.731000 0.000000 2.962000
v -4.446000 0.000000 3.042000
v -4.446000 0.000000 2.962000
v -4.731000 0.350000 3.042000
v -4.731000 0.350000 2.962000
v -4.446000 0.350000 3.042000
v -4.446000 0.350000 2.962000
v -4.446000 0.000000 2.962000
v -4.446000 0.000000 3.042000
v -4.731000 0.000000 2.962000
v -4.731000 0.000000 3.042000
v -4.446000 0.350000 2.962000
v -4.446000 0.350000 3.042000
v -4.731000 0.350000 2.962000
v -4.731000 0.350000 3.042000
v -4.731000 0.000000 4.201000
v -4.731000 0.000000 4.121000
v -4.446000 0.000000 4.201000
v -4.446000 0.000000 4.121000
v -4.731000 0.350000 4.201000
v -4.731000 0.350000 4.121000
v -4.446000 0.350000 4.201000
v -4.446000 0.350000 4.121000
v -4.446000 0.000000 4.121000
v -4.446000 0.000000 4.201000
v -4.731000 0.000000 4.121000
v -4.731000 0.000000 4.201000
v -4.446000 0.350000 4.121000
v -4.446000 0.350000 4.201000
v -4.731000 0.350000 4.121000
v -4.731000 0.350000 4.201000
f 1 3 7
f 1 7 5
f 2 6 8
f 2 8 4
f 5 7 8
f 5 8 6
f 9 11 15
f 9 15 13
f 10 14 16
f 10 16 12
f 13 15 16
f 13 16 14
f 17 19 23
f 17 23 21
f 18 22 24
f 18 24 20
f 21 23 24
f 21 24 22
f 25 27 31
f 25 31 29
f 26 30 32
f 26 32 28
f 29 31 32
f 29 32 30
f 33 35 39
f 33 39 37
f 34 38 40
f 34 40 36
f 37 39 40
f 37 40 38
f 41 43 47
f 41 47 45
f 42 46 48
f 42 48 44
f 45 47 48
f 45 48 46
f 49 51 55
f 49 55 53
f 50 54 56
f 50 56 52
f 53 55 56
f 53 56 54
f 57 59 63
f 57 63 61
f 58 62 64
f 58 64 60
f 61 63 64
f 61 64 62
f 65 67 71
f 65 71 69
f 66 70 72
f 66 72 68
f 69 71 72
f 69 72 70
f 73 75 79
f 73 79 77
f 74 78 80
f 74 80 76
f 77 79 80
f 77 80 78
f 81 83 87
f 81 87 85
f 82 86 88
f 82 88 84
f 85 87 88
f 85 88 86
f 89 91 95
f 89 95 93
f 90 94 96
f 90 96 92
f 93 95 96
f 93 96 94
f 97 99 103
f 97 103 101
f 98 102 104
f 98 104 100
f 101 103 104
f 101 104 102
f 105 107 111
f 105 111 109
f 106 110 112
f 106 112 108
f 109 111 112
f 109 112 110
f 113 115 119
f 113 119 117
f 114 118 120
f 114 120 116
f 117 119 120
f 117 120 118
f 121 123 127
f 121 127 125
f 122 126 128
f 122 128 124
f 125 127 128
f 125 128 126
f 129 131 135
f 129 135 133
f 130 134 136
f 130 136 132
f 133 135 136
f 133 136 134
f 137 139 143
f 137 143 141
f 138 142 144
f 138 144 140
f 141 143 144
f 141 144 142
f 145 147 151
f 145 151 149
f 146 150 152
f 146 152 148
f 149 151 152
f 149 152 150
f 153 155 159
f 153 159 157
f 154 158 160
f 154 160 156
f 157 159 160
f 157 160 158
f 161 163 167
f 161 167 165
f 162 166 168
f 162 168 164
f 165 167 168
f 165 168 166
f 169 171 175
f 169 175 173
f 170 174 176
f 170 176 172
f 173 175 176
f 173 176 174
f 177 179 183
f 177 183 181
f 178 182 184
f 178 184 180
f 181 183 184
f 181 184 182
f 185 187 191
f 185 191 189
f 186 190 192
f 186 192 188
f 189 191 192
f 189 192 190
f 193 195 199
f 193 199 197
f 194 198 200
f 194 200 196
f 197 199 200
f 197 200 198
f 201 203 207
f 201 207 205
f 202 206 208
f 202 208 204
f 205 207 208
f 205 208 206
f 209 211 215
f 209 215 213
f 210 214 216
f 210 216 212
f 213 215 216
f 213 216 214
f 217 219 223
f 217 223 221
f 218 222 224
f 218 224 220
f 221 223 224
f 221 224 222
f 225 227 231
f 225 231 229
f 226 230 232
f 226 232 228
f 229 231 232
f 229 232 230
f 233 235 239
f 233 239 237
f 234 238 240
f 234 240 236
f 237 239 240
f 237 240 238
f 241 243 247
f 241 247 245
f 242 246 248
f 242 248 244
f 245 247 248
f 245 248 246
f 249 251 255
f 249 255 253
f 250 254 256
f 250 256 252
f 253 255 256
f 253 256 254
f 257 259 263
f 257 263 261
f 258 262 264
f 258 264 260
f 261 263 264
f 261 264 262
f 265 267 271
f 265 271 269
f 266 270 272
f 266 272 268
f 269 271 272
f 269 272 270
f 273 275 279
f 273 279 277
f 274 278 280
f 274 280 276
f 277 279 280
f 277 280 278
f 281 283 287
f 281 287 285
f 282 286 288
f 282 288 284
f 285 287 288
f 285 288 286
f 289 291 295
f 289 295 293
f 290 294 296
f 290 296 292
f 293 295 296
f 293 296 294
f 297 299 303
f 297 303 301
f 298 302 304
f 298 304 300
f 301 303 304
f 301 304 302
f 305 307 311
f 305 311 309
f 306 310 312
f 306 312 308
f 309 311 312
f 309 312 310
f 313 315 319
f 313 319 317
f 314 318 320
f 314 320 316
f 317 319 320
f 317 320 318
f 321 323 327
f 321 327 325
f 322 326 328
f 322 328 324
f 325 327 328
f 325 328 326
f 329 331 335
f 329 335 333
f 330 334 336
f 330 336 332
f 333 335 336
f 333 336 334
f 337 339 343
f 337 343 341
f 338 342 344
f 338 344 340
f 341 343 344
f 341 344 342
f 345 347 351
f 345 351 349
f 346 350 352
f 346 352 348
f 349 351 352
f 349 352 350
f 353 355 359
f 353 359 357
f 354 358 360
f 354 360 356
f 357 359 360
f 357 360 358
f 361 363 367
f 361 367 365
f 362 366 368
f 362 368 364
f 365 367 368
f 365 368 366
f 369 371 375
f 369 375 373
f 370 374 376
f 370 376 372
f 373 375 376
f 373 376 374
f 377 379 383
f 377 383 381
f 378 382 384
f 378 384 380
f 381 383 384
f 381 384 382
f 385 387 391
f 385 391 389
f 386 390 392
f 386 392 388
f 389 391 392
f 389 392 390
f 393 395 399
f 393 399 397
f 394 398 400
f 394 400 396
f 397 399 400
f 397 400 398
f 401 403 407
f 401 407 405
f 402 406 408
f 402 408 404
f 405 407 408
f 405 408 406
f 409 411 415
f 409 415 413
f 410 414 416
f 410 416 412
f 413 415 416
f 413 416 414
f 417 419 423
f 417 423 421
f 418 422 424
f 418 424 420
f 421 423 424
f 421 424 422
f 425 427 431
f 425 431 429
f 426 430 432
f 426 432 428
f 429 431 432
f 429 432 430
f 433 435 439
f 433 439 437
f 434 438 440
f 434 440 436
f 437 439 440
f 437 440 438
f 441 443 447
f 441 447 445
f 442 446 448
f 442 448 444
f 445 447 448
f 445 448 446
f 449 451 455
f 449 455 453
f 450 454 456
f 450 456 452
f 453 455 456
f 453 456 454
f 457 459 463
f 457 463 461
f 458 462 464
f 458 464 460
f 461 463 464
f 461 464 462
f 465 467 471
f 465 471 469
f 466 470 472
f 466 472 468
f 469 471 472
f 469 472 470
f 473 475 479
f 473 479 477
f 474 478 480
f 474 480 476
f 477 479 480
f 477 480 478
f 481 483 487
f 481 487 485
f 482 486 488
f 482 488 484
f 485 487 488
f 485 488 486
f 489 491 495
f 489 495 493
f 490 494 496
f 490 496 492
f 493 495 496
f 493 496 494
f 497 499 503
f 497 503 501
f 498 502 504
f 498 504 500
f 501 503 504
f 501 504 502
f 505 507 511
f 505 511 509
f 506 510 512
f 506 512 508
f 509 511 512
f 509 512 510
f 513 515 519
f 513 519 517
f 514 518 520
f 514 520 516
f 517 519 520
f 517 520 518
f 521 523 527
f 521 527 525
f 522 526 528
f 522 528 524
f 525 527 528
f 525 528 526
f 529 531 535
f 529 535 533
f 530 534 536
f 530 536 532
f 533 535 536
f 533 536 534
f 537 539 543
f 537 543 541
f 538 542 544
f 538 544 540
f 541 543 544
f 541 544 542
f 545 547 551
f 545 551 549
f 546 550 552
f 546 552 548
f 549 551 552
f 549 552 550
f 553 555 559
f 553 559 557
f 554 558 560
f 554 560 556
f 557 559 560
f 557 560 558
f 561 563 567
f 561 567 565
f 562 566 568
f 562 568 564
f 565 567 568
f 565 568 566
f 569 571 575
f 569 575 573
f 570 574 576
f 570 576 572
f 573 575 576
f 573 576 574
f 577 579 583
f 577 583 581
f 578 582 584
f 578 584 580
f 581 583 584
f 581 584 582
f 585 587 591
f 585 591 589
f 586 590 592
f 586 592 588
f 589 591 592
f 589 592 590
f 593 595 599
f 593 599 597
f 594 598 600
f 594 600 596
f 597 599 600
f 597 600 598
f 601 603 607
f 601 607 605
f 602 606 608
f 602 608 604
f 605 607 608
f 605 608 606
f 609 611 615
f 609 615 613
f 610 614 616
f 610 616 612
f 613 615 616
f 613 616 614
f 617 619 623
f 617 623 621
f 618 622 624
f 618 624 620
f 621 623 624
f 621 624 622
f 625 627 631
f 625 631 629
f 626 630 632
f 626 632 628
f 629 631 632
f 629 632 630
f 633 635 639
f 633 639 637
f 634 638 640
f 634 640 636
f 637 639 640
f 637 640 638
f 641 643 647
f 641 647 645
f 642 646 648
f 642 648 644
f 645 647 648
f 645 648 646
f 649 651 655
f 649 655 653
f 650 654 656
f 650 656 652
f 653 655 656
f 653 656 654
f 657 659 663
f 657 663 661
f 658 662 664
f 658 664 660
f 661 663 664
f 661 664 662
f 665 667 671
f 665 671 669
f 666 670 672
f 666 672 668
f 669 671 672
f 669 672 670
f 673 675 679
f 673 679 677
f 674 678 680
f 674 680 676
f 677 679 680
f 677 680 678
f 681 683 687
f 681 687 685
f 682 686 688
f 682 688 684
f 685 687 688
f 685 688 686
f 689 691 695
f 689 695 693
f 690 694 696
f 690 696 692
f 693 695 696
f 693 696 694
f 697 699 703
f 697 703 701
f 698 702 704
f 698 704 700
f 701 703 704
f 701 704 702
f 705 707 711
f 705 711 709
f 706 710 712
f 706 712 708
f 709 711 712
f 709 712 710
f 713 715 719
f 713 719 717
f 714 718 720
f 714 720 716
f 717 719 720
f 717 720 718
f 721 723 727
f 721 727 725
f 722 726 728
f 722 728 724
f 725 727 728
f 725 728 726
f 729 731 735
f 729 735 733
f 730 734 736
f 730 736 732
f 733 735 736
f 733 736 734
f 737 739 743
f 737 743 741
f 738 742 744
f 738 744 740
f 741 743 744
f 741 744 742
f 745 747 751
f 745 751 749
f 746 750 752
f 746 752 748
f 749 751 752
f 749 752 750
f 753 755 759
f 753 759 757
f 754 758 760
f 754 760 756
f 757 759 760
f 757 760 758
f 761 763 767
f 761 767 765
f 762 766 768
f 762 768 764
f 765 767 768
f 765 768 766
f 769 771 775
f 769 775 773
f 770 774 776
f 770 776 772
f 773 775 776
f 773 776 774
f 777 779 783
f 777 783 781
f 778 782 784
f 778 784 780
f 781 783 784
f 781 784 782
f 785 787 791
f 785 791 789
f 786 790 792
f 786 792 788
f 789 791 792
f 789 792 790
f 793 795 799
f 793 799 797
f 794 798 800
f 794 800 796
f 797 799 800
f 797 800 798
f 801 803 807
f 801 807 805
f 802 806 808
f 802 808 804
f 805 807 808
f 805 808 806
f 809 811 815
f 809 815 813
f 810 814 816
f 810 816 812
f 813 815 816
f 813 816 814
f 817 819 823
f 817 823 821
f 818 822 824
f 818 824 820
f 821 823 824
f 821 824 822
f 825 827 831
f 825 831 829
f 826 830 832
f 826 832 828
f 829 831 832
f 829 832 830
f 833 835 839
f 833 839 837
f 834 838 840
f 834 840 836
f 837 839 840
f 837 840 838
f 841 843 847
f 841 847 845
f 842 846 848
f 842 848 844
f 845 847 848
f 845 848 846
f 849 851 855
f 849 855 853
f 850 854 856
f 850 856 852
f 853 855 856
f 853 856 854
f 857 859 863
f 857 863 861
f 858 862 864
f 858 864 860
f 861 863 864
f 861 864 862
f 865 867 871
f 865 871 869
f 866 870 872
f 866 872 868
f 869 871 872
f 869 872 870
f 873 875 879
f 873 879 877
f 874 878 880
f 874 880 876
f 877 879 880
f 877 880 878
f 881 883 887
f 881 887 885
f 882 886 888
f 882 888 884
f 885 887 888
f 885 888 886
f 889 891 895
f 889 895 893
f 890 894 896
f 890 896 892
f 893 895 896
f 893 896 894
f 897 899 903
f 897 903 901
f 898 902 904
f 898 904 900
f 901 903 904
f 901 904 902
f 905 907 911
f 905 911 909
f 906 910 912
f 906 912 908
f 909 911 912
f 909 912 910
f 913 915 919
f 913 919 917
f 914 918 920
f 914 920 916
f 917 919 920
f 917 920 918
f 921 923 927
f 921 927 925
f 922 926 928
f 922 928 924
f 925 927 928
f 925 928 926
f 929 931 935
f 929 935 933
f 930 934 936
f 930 936 932
f 933 935 936
f 933 936 934
f 937 939 943
f 937 943 941
f 938 942 944
f 938 944 940
f 941 943 944
f 941 944 942
f 945 947 951
f 945 951 949
f 946 950 952
f 946 952 948
f 949 951 952
f 949 952 950
f 953 955 959
f 953 959 957
f 954 958 960
f 954 960 956
f 957 959 960
f 957 960 958
